<?xml version="1.0" encoding="utf-8"?>
<!-- Generator: Adobe Illustrator 27.2.0, SVG Export Plug-In . SVG Version: 6.00 Build 0)  -->
<svg version="1.1" id="Calque_1" focusable="false" xmlns="http://www.w3.org/2000/svg" xmlns:xlink="http://www.w3.org/1999/xlink"
	 x="0px" y="0px" viewBox="0 0 1920 1080" style="enable-background:new 0 0 1920 1080;" xml:space="preserve">
<style type="text/css">
	.st0{fill:#FFFFFF;}
</style>
<path d="M1092.4,161.9h245.7v864.3H581.9V161.9h245.7c3.2-15.5,8.8-29.9,16.9-43.2c8.1-13,17.9-24.4,29.5-34.3
	c11.6-9.5,24.8-17.1,39.6-22.7c14.4-5.3,29.9-7.9,46.4-7.9c16.2,0,31.6,2.6,46.4,7.9c14.8,5.6,27.9,13.2,39.6,22.7
	c11.6,9.8,21.4,21.3,29.5,34.3C1083.6,132,1089.2,146.4,1092.4,161.9 M798.1,216.2v107.6h323.8V216.2h-80.7v-27.4
	c0-10.9-2.1-21.3-6.3-31.1s-10-18.5-17.4-25.8s-16-13.2-25.8-17.4s-20.4-6.3-31.6-6.3s-21.8,2.1-31.6,6.3s-18.5,10-25.8,17.4
	s-13.2,16-17.4,25.8s-6.3,20.2-6.3,31.1v27.4 M1283.8,971.9V216.2h-107.6v161.9H743.8V216.2H636.2v755.7H1283.8z"/>
<path class="st0" d="M1068.1,188.8h243.1v810H608.8v-810h243.1c0-14.8,2.8-28.8,8.4-42.2c5.6-13,13.4-24.4,23.2-34.3
	c9.8-9.5,21.4-17.1,34.8-22.7c13-5.6,26.9-8.4,41.7-8.4s28.8,2.8,42.2,8.4c13,5.6,24.4,13.2,34.3,22.7c9.8,9.8,17.6,21.3,23.2,34.3
	C1065.3,160,1068.1,174,1068.1,188.8z"/>
<path d="M1092.4,161.9h245.7v864.3H581.9V161.9h245.7c3.2-15.5,8.8-29.9,16.9-43.2c8.1-13,17.9-24.4,29.5-34.3
	c11.6-9.5,24.8-17.1,39.6-22.7c14.4-5.3,29.9-7.9,46.4-7.9c16.2,0,31.6,2.6,46.4,7.9c14.8,5.6,27.9,13.2,39.6,22.7
	c11.6,9.8,21.4,21.3,29.5,34.3C1083.6,132,1089.2,146.4,1092.4,161.9 M798.1,216.2v107.6h323.8V216.2h-80.7v-27.4
	c0-10.9-2.1-21.3-6.3-31.1s-10-18.5-17.4-25.8s-16-13.2-25.8-17.4s-20.4-6.3-31.6-6.3s-21.8,2.1-31.6,6.3s-18.5,10-25.8,17.4
	s-13.2,16-17.4,25.8s-6.3,20.2-6.3,31.1v27.4 M1283.8,971.9V216.2h-107.6v161.9H743.8V216.2H636.2v755.7H1283.8z"/>
</svg>
