<?xml version="1.0" encoding="utf-8"?>
<!-- Generator: Adobe Illustrator 27.2.0, SVG Export Plug-In . SVG Version: 6.00 Build 0)  -->
<svg version="1.1" id="Calque_1" focusable="false" xmlns="http://www.w3.org/2000/svg" xmlns:xlink="http://www.w3.org/1999/xlink"
	 x="0px" y="0px" viewBox="0 0 1920 1080" style="enable-background:new 0 0 1920 1080;" xml:space="preserve">
<style type="text/css">
	.st0{fill:#FFFFFF;}
	.st1{fill:#CA95D4;}
	.st2{fill:#954EA2;}
</style>
<path d="M966.3,603.8H631.5L555,810h-77.5L764.9,53.8h70.7l202,533.7l-55.9,56.4 M942.6,540L813.4,186.2c-3.5-9.1-6.3-18.3-8.4-27.4
	c-2.1-8.8-4-17.4-5.8-25.8h-2.1c-1.8,9.1-3.9,18.1-6.3,26.9s-5.3,17.6-8.4,26.4L655.2,540 M1500,698.2L1118.2,1080L888.8,851.1
	l382.3-382.3 M1271.1,545.3L1083.4,733l152.4,152.9l187.7-187.7 M1197.8,923.9L1044.9,771l-79.6,80.2l152.9,152.4L1197.8,923.9z"/>
<path d="M966.3,603.8H631.5L555,810h-77.5L764.9,53.8h70.7l202,533.7l-55.9,56.4 M942.6,540L813.4,186.2c-3.5-9.1-6.3-18.3-8.4-27.4
	c-2.1-8.8-4-17.4-5.8-25.8h-2.1c-1.8,9.1-3.9,18.1-6.3,26.9s-5.3,17.6-8.4,26.4L655.2,540H942.6z"/>
<path class="st0" d="M1044.4,733.5l226.8-226.2L1462,698.2l-226.8,226.2L1044.4,733.5z"/>
<path class="st1" d="M927.3,851.1l117.1-117.6l190.9,190.9L1118.2,1042L927.3,851.1z"/>
<path class="st2" d="M1500,698.2L1118.2,1080L888.8,851.1l382.3-382.3 M1271.1,545.3L1083.4,733l152.4,152.9l187.7-187.7
	 M1197.8,923.9L1044.9,771l-79.6,80.2l152.9,152.4L1197.8,923.9z"/>
</svg>
