<?xml version="1.0" encoding="utf-8"?>
<!-- Generator: Adobe Illustrator 27.2.0, SVG Export Plug-In . SVG Version: 6.00 Build 0)  -->
<svg version="1.1" id="Calque_1" focusable="false" xmlns="http://www.w3.org/2000/svg" xmlns:xlink="http://www.w3.org/1999/xlink"
	 x="0px" y="0px" viewBox="0 0 1920 1080" style="enable-background:new 0 0 1920 1080;" xml:space="preserve">
<style type="text/css">
	.st0{fill:#4389C8;}
</style>
<path d="M581.9,0v270h-42.7V52.2c-14.4,10.2-32.9,18.3-55.4,24.3V40.1c8.4-2.5,16.2-5.3,23.2-8.4c6.7-2.8,13.2-5.8,19.5-9
	s12.7-6.7,19-10.5c6-3.5,12.1-7.6,18.5-12.1 M640.4,648.1H473.8v-20.6c0-15.8,4.6-30.9,13.7-45.4s25.5-30.9,49-49.6
	c10.9-8.8,20-16.5,27.4-23.2c7-6.3,12.8-12.5,17.4-18.5c4.2-5.6,7.2-11.2,9-16.9c1.8-5.3,2.6-11.4,2.6-18.5
	c0-13.4-3.9-23.7-11.6-31.1c-8.1-7.4-18.6-11.1-31.6-11.1c-22.9,0-44.8,10-65.9,30.1v-41.1c10.9-8.1,22-14.2,33.2-18.5
	c11.2-3.9,24.8-5.8,40.6-5.8c24.3,0,43.6,6.2,58,18.5c14.1,12.7,21.1,30.8,21.1,54.3c0,11.2-1.1,21.1-3.2,29.5
	c-2.5,8.8-6.7,17.2-12.7,25.3S607,522.2,597.2,531c-10.2,9.1-22.9,19.7-38,31.6c-13.4,10.5-23,19.3-29,26.4c-6.3,7-9.5,13.7-9.5,20
	v2.1h119.7 M634.6,946.6c0,23.9-8.6,43.1-25.8,57.5c-17.6,14.8-41.3,22.1-71.2,22.1c-11.2,0-22.9-1.4-34.8-4.2
	c-12.3-2.8-21.4-6.2-27.4-10v-41.7c7.7,6.3,17.2,11.4,28.5,15.3s22.5,5.8,33.8,5.8c16.5,0,29.5-3.9,39-11.6s14.2-18.3,14.2-31.6
	c0-29.2-22-43.8-65.9-43.8h-22.7v-34.8h21.6c17.9,0,32.2-3.3,42.7-10s15.8-17.1,15.8-31.1c0-12.3-4-21.8-12.1-28.5
	c-8.4-6.3-19.5-9.5-33.2-9.5c-19,0-36.2,6.2-51.7,18.5v-38.5c7.7-4.2,17.1-7.7,27.9-10.5c10.9-2.5,22.5-3.7,34.8-3.7
	c22.1,0,40.6,5.4,55.4,16.3c14.4,11.2,21.6,26.9,21.6,46.9c0,16.9-4.6,30.8-13.7,41.7c-9.1,11.2-21.8,19-38,23.2v1.1
	c19,2.1,33.9,8.6,44.8,19.5C629.2,916.2,634.6,930.1,634.6,946.6 M1446.2,540H798.1v-53.8h648.1 M1446.2,108.1v53.8H798.1v-53.8
	 M1446.2,863.8v54.3H798.1v-54.3H1446.2z"/>
<path class="st0" d="M581.9,0v270h-42.7V52.2c-14.4,10.2-32.9,18.3-55.4,24.3V40.1c8.4-2.5,16.2-5.3,23.2-8.4
	c6.7-2.8,13.2-5.8,19.5-9s12.7-6.7,19-10.5c6-3.5,12.1-7.6,18.5-12.1 M640.4,648.1H473.8v-20.6c0-15.8,4.6-30.9,13.7-45.4
	s25.5-30.9,49-49.6c10.9-8.8,20-16.5,27.4-23.2c7-6.3,12.8-12.5,17.4-18.5c4.2-5.6,7.2-11.2,9-16.9c1.8-5.3,2.6-11.4,2.6-18.5
	c0-13.4-3.9-23.7-11.6-31.1c-8.1-7.4-18.6-11.1-31.6-11.1c-22.9,0-44.8,10-65.9,30.1v-41.1c10.9-8.1,22-14.2,33.2-18.5
	c11.2-3.9,24.8-5.8,40.6-5.8c24.3,0,43.6,6.2,58,18.5c14.1,12.7,21.1,30.8,21.1,54.3c0,11.2-1.1,21.1-3.2,29.5
	c-2.5,8.8-6.7,17.2-12.7,25.3S607,522.2,597.2,531c-10.2,9.1-22.9,19.7-38,31.6c-13.4,10.5-23,19.3-29,26.4c-6.3,7-9.5,13.7-9.5,20
	v2.1h119.7 M634.6,946.6c0,23.9-8.6,43.1-25.8,57.5c-17.6,14.8-41.3,22.1-71.2,22.1c-11.2,0-22.9-1.4-34.8-4.2
	c-12.3-2.8-21.4-6.2-27.4-10v-41.7c7.7,6.3,17.2,11.4,28.5,15.3s22.5,5.8,33.8,5.8c16.5,0,29.5-3.9,39-11.6s14.2-18.3,14.2-31.6
	c0-29.2-22-43.8-65.9-43.8h-22.7v-34.8h21.6c17.9,0,32.2-3.3,42.7-10s15.8-17.1,15.8-31.1c0-12.3-4-21.8-12.1-28.5
	c-8.4-6.3-19.5-9.5-33.2-9.5c-19,0-36.2,6.2-51.7,18.5v-38.5c7.7-4.2,17.1-7.7,27.9-10.5c10.9-2.5,22.5-3.7,34.8-3.7
	c22.1,0,40.6,5.4,55.4,16.3c14.4,11.2,21.6,26.9,21.6,46.9c0,16.9-4.6,30.8-13.7,41.7c-9.1,11.2-21.8,19-38,23.2v1.1
	c19,2.1,33.9,8.6,44.8,19.5C629.2,916.2,634.6,930.1,634.6,946.6z"/>
<path d="M1446.2,540H798.1v-53.8h648.1 M1446.2,108.1v53.8H798.1v-53.8 M1446.2,863.8v54.3H798.1v-54.3H1446.2z"/>
</svg>
