<?xml version="1.0" encoding="utf-8"?>
<!-- Generator: Adobe Illustrator 27.2.0, SVG Export Plug-In . SVG Version: 6.00 Build 0)  -->
<svg version="1.1" id="Calque_1" focusable="false" xmlns="http://www.w3.org/2000/svg" xmlns:xlink="http://www.w3.org/1999/xlink"
	 x="0px" y="0px" viewBox="0 0 1920 1080" style="enable-background:new 0 0 1920 1080;" xml:space="preserve">
<style type="text/css">
	.st0{fill:#4389C8;}
</style>
<path d="M636.2,216.2H473.8V53.8h162.4 M636.2,431.9v161.9H473.8V431.9 M636.2,810v161.9H473.8V810 M1446.2,540H798.1v-53.8h648.1
	 M1446.2,108.1v53.8H798.1v-53.8 M1446.2,863.8v54.3H798.1v-54.3H1446.2z"/>
<path class="st0" d="M636.2,216.2H473.8V53.8h162.4 M636.2,431.9v161.9H473.8V431.9 M636.2,810v161.9H473.8V810H636.2z"/>
<path d="M1446.2,540H798.1v-53.8h648.1 M1446.2,108.1v53.8H798.1v-53.8 M1446.2,863.8v54.3H798.1v-54.3H1446.2z"/>
</svg>
