<?xml version="1.0" encoding="utf-8"?>
<!-- Generator: Adobe Illustrator 27.2.0, SVG Export Plug-In . SVG Version: 6.00 Build 0)  -->
<svg version="1.1" id="Calque_1" focusable="false" xmlns="http://www.w3.org/2000/svg" xmlns:xlink="http://www.w3.org/1999/xlink"
	 x="0px" y="0px" viewBox="0 0 1920 1080" style="enable-background:new 0 0 1920 1080;" xml:space="preserve">
<style type="text/css">
	.st0{fill:#EA3323;}
</style>
<path d="M1500,1080H420V810h1080 M1189.4,756.2L1111.9,540H810.8l-75.4,216.2h-72.2L930.5,53.8h65.4l265.8,702.4 M961.6,139.7h-2.1
	l-126.6,347h256.8L961.6,139.7z"/>
<path d="M446.9,1053.1V836.9h1026.2v216.2H446.9z"/>
<path d="M1500,810v270H420V810 M1446.2,863.8H473.8v162.4h972.4V863.8z"/>
<path class="st0" d="M1500,810v270H420V810H1500z"/>
<path d="M1189.4,756.2L1111.9,540H810.8l-75.4,216.2h-72.2L930.5,53.8h65.4l265.8,702.4 M961.6,139.7h-2.1l-126.6,347h256.8
	L961.6,139.7z"/>
</svg>
