<?xml version="1.0" encoding="utf-8"?>
<!-- Generator: Adobe Illustrator 27.2.0, SVG Export Plug-In . SVG Version: 6.00 Build 0)  -->
<svg version="1.1" id="Calque_1" focusable="false" xmlns="http://www.w3.org/2000/svg" xmlns:xlink="http://www.w3.org/1999/xlink"
	 x="0px" y="0px" viewBox="0 0 1920 1080" style="enable-background:new 0 0 1920 1080;" xml:space="preserve">
<style type="text/css">
	.st0{fill:#90BCE8;}
	.st1{fill:#4273B4;}
</style>
<path d="M1169.9,185.1v372.8v10.5c0,27.1-5.3,52.6-15.8,76.5c-10.9,24.3-25.7,45.4-44.3,63.3c-19,17.9-41.1,32.2-66.4,42.7
	s-52.6,15.8-81.7,15.8c-26.4,0-52-4.7-77-14.2s-47.1-23-66.4-40.6c-19.7-17.2-35.3-38-46.9-62.2c-12-24.3-17.9-51.3-17.9-81.2
	c0-2.1,0-4.2,0-6.3c0-1.8,0.2-3.5,0.5-5.3V187.2c1.4-27.1,8.1-52,20-74.9c11.6-22.9,26.7-42.7,45.4-59.6
	c18.6-16.5,40.3-29.5,64.9-39C908.3,4.6,934.2,0,961.6,0s53.4,4.7,78,14.2s46.2,22.5,64.9,39c18.6,16.9,33.8,36.6,45.4,59.1
	S1168.1,159.1,1169.9,185.1 M1109.8,616.5c6-15.1,9-30.6,9-46.4c0-1.8,0-3.3,0-4.7c-0.4-1.4-0.5-3-0.5-4.7V187.2
	c-1.1-18.3-6-35.7-14.8-52.2c-8.8-16.2-20.2-30.4-34.3-42.7c-14.4-12-30.8-21.4-49-28.5c-18.6-7-38.1-10.5-58.5-10.5
	c-20,0-39.2,3.5-57.5,10.5c-18.6,7-35,16.5-49,28.5c-14.4,12.3-26,26.7-34.8,43.2c-9.1,16.5-14.2,34.3-15.3,53.3V559
	c0,1.8,0,3.2,0,4.2c-0.4,1.4-0.5,2.8-0.5,4.2c0,19,3.9,37.1,11.6,54.3c7.7,17.6,18.6,33,32.7,46.4s30.8,23.9,50.1,31.6
	c19,8.1,39.9,12.1,62.8,12.1c16.2,0,32-2.3,47.5-6.9c15.1-4.2,29.2-10.5,42.2-19c13-8.1,24.6-18.1,34.8-30.1
	C1095.9,644.4,1103.8,631.2,1109.8,616.5 M1280.6,524.7c7,0,13,2.5,17.9,7.4s7.4,10.9,7.4,17.9v40.1c-1.8,43.2-11.2,83.8-28.5,121.8
	c-17.6,38-40.8,71.2-69.6,99.7c-28.8,28.8-62.2,51.7-100.2,68.6c-38.3,17.2-78.9,26.5-121.8,27.9v146.1c0,7-2.5,13-7.4,17.9
	c-5.3,5.3-11.4,7.9-18.5,7.9s-13-2.6-17.9-7.9c-5.3-4.9-7.9-10.9-7.9-17.9V908.6h-1.6c-44.6-1.8-86.3-11.8-125-30.1
	c-39-18.3-72.8-42.4-101.2-72.2c-28.8-29.9-51.3-64.5-67.5-103.9c-16.5-39-24.8-80.5-24.8-124.5v-32.7c0-7,2.5-13.2,7.4-18.5
	c4.9-4.9,10.9-7.4,17.9-7.4s13.2,2.5,18.5,7.4c4.9,5.3,7.4,11.4,7.4,18.5V578c0,37.3,7,72.4,21.1,105.5c13.7,33,32.7,62.2,57,87.5
	s52.7,45.7,85.4,61.2s67.7,23.9,104.9,25.3h39.6c37.3,0,72.8-7,106.5-21.1c33.4-13.7,62.9-32.7,88.6-57
	c25.3-24.3,45.7-52.7,61.2-85.4s23.9-67.5,25.3-104.4V550c0-7,2.6-13,7.9-17.9C1267.6,527.2,1273.6,524.7,1280.6,524.7z"/>
<path class="st0" d="M1118.2,187.2v373.4c0,1.8,0.2,3.3,0.5,4.7c0,1.4,0,3,0,4.7c0,19-4,37.1-12.1,54.3
	c-8.4,17.2-19.7,32.3-33.8,45.4c-14.4,13-31.1,23.2-50.1,30.6c-19.3,7.7-39.7,11.6-61.2,11.6c-20,0-39.6-3.5-58.5-10.5
	s-35.7-17.1-50.1-30.1c-14.8-12.7-26.5-27.9-35.3-45.9c-8.8-17.6-13.2-36.9-13.2-58c0-1.4,0.2-2.8,0.5-4.2c0-1.1,0-2.5,0-4.2V188.8
	c1.1-19,6.2-36.7,15.3-53.3c8.8-16.5,20.4-30.9,34.8-43.2c14.1-12,30.4-21.4,49-28.5c18.3-7,37.4-10.5,57.5-10.5
	c20.4,0,39.9,3.5,58.5,10.5c18.3,7,34.6,16.5,49,28.5c14.1,12.3,25.5,26.5,34.3,42.7C1112.2,151.5,1117.1,168.9,1118.2,187.2z"/>
<path class="st1" d="M1169.9,185.1v372.8v10.5c0,27.1-5.3,52.6-15.8,76.5c-10.9,24.3-25.7,45.4-44.3,63.3
	c-19,17.9-41.1,32.2-66.4,42.7s-52.6,15.8-81.7,15.8c-26.4,0-52-4.7-77-14.2s-47.1-23-66.4-40.6c-19.7-17.2-35.3-38-46.9-62.2
	c-12-24.3-17.9-51.3-17.9-81.2c0-2.1,0-4.2,0-6.3c0-1.8,0.2-3.5,0.5-5.3V187.2c1.4-27.1,8.1-52,20-74.9
	c11.6-22.9,26.7-42.7,45.4-59.6c18.6-16.5,40.3-29.5,64.9-39C908.3,4.6,934.2,0,961.6,0s53.4,4.7,78,14.2s46.2,22.5,64.9,39
	c18.6,16.9,33.8,36.6,45.4,59.1S1168.1,159.1,1169.9,185.1 M1109.8,616.5c6-15.1,9-30.6,9-46.4c0-1.8,0-3.3,0-4.7
	c-0.4-1.4-0.5-3-0.5-4.7V187.2c-1.1-18.3-6-35.7-14.8-52.2c-8.8-16.2-20.2-30.4-34.3-42.7c-14.4-12-30.8-21.4-49-28.5
	c-18.6-7-38.1-10.5-58.5-10.5c-20,0-39.2,3.5-57.5,10.5c-18.6,7-35,16.5-49,28.5c-14.4,12.3-26,26.7-34.8,43.2
	c-9.1,16.5-14.2,34.3-15.3,53.3V559c0,1.8,0,3.2,0,4.2c-0.4,1.4-0.5,2.8-0.5,4.2c0,19,3.9,37.1,11.6,54.3
	c7.7,17.6,18.6,33,32.7,46.4s30.8,23.9,50.1,31.6c19,8.1,39.9,12.1,62.8,12.1c16.2,0,32-2.3,47.5-6.9c15.1-4.2,29.2-10.5,42.2-19
	c13-8.1,24.6-18.1,34.8-30.1C1095.9,644.4,1103.8,631.2,1109.8,616.5z"/>
<path d="M1280.6,524.7c7,0,13,2.5,17.9,7.4s7.4,10.9,7.4,17.9v40.1c-1.8,43.2-11.2,83.8-28.5,121.8c-17.6,38-40.8,71.2-69.6,99.7
	c-28.8,28.8-62.2,51.7-100.2,68.6c-38.3,17.2-78.9,26.5-121.8,27.9v146.1c0,7-2.5,13-7.4,17.9c-5.3,5.3-11.4,7.9-18.5,7.9
	s-13-2.6-17.9-7.9c-5.3-4.9-7.9-10.9-7.9-17.9V908.6h-1.6c-44.6-1.8-86.3-11.8-125-30.1c-39-18.3-72.8-42.4-101.2-72.2
	c-28.8-29.9-51.3-64.5-67.5-103.9c-16.5-39-24.8-80.5-24.8-124.5v-32.7c0-7,2.5-13.2,7.4-18.5c4.9-4.9,10.9-7.4,17.9-7.4
	s13.2,2.5,18.5,7.4c4.9,5.3,7.4,11.4,7.4,18.5V578c0,37.3,7,72.4,21.1,105.5c13.7,33,32.7,62.2,57,87.5s52.7,45.7,85.4,61.2
	s67.7,23.9,104.9,25.3h39.6c37.3,0,72.8-7,106.5-21.1c33.4-13.7,62.9-32.7,88.6-57c25.3-24.3,45.7-52.7,61.2-85.4
	s23.9-67.5,25.3-104.4V550c0-7,2.6-13,7.9-17.9C1267.6,527.2,1273.6,524.7,1280.6,524.7z"/>
</svg>
