<?xml version="1.0" encoding="utf-8"?>
<!-- Generator: Adobe Illustrator 27.2.0, SVG Export Plug-In . SVG Version: 6.00 Build 0)  -->
<svg version="1.1" id="Calque_1" focusable="false" xmlns="http://www.w3.org/2000/svg" xmlns:xlink="http://www.w3.org/1999/xlink"
	 x="0px" y="0px" viewBox="0 0 1920 1080" style="enable-background:new 0 0 1920 1080;" xml:space="preserve">
<style type="text/css">
	.st0{fill:#4389C8;}
</style>
<path d="M1446.2,53.8v54.3H473.8V53.8 M1230,323.8H473.8V270H1230 M473.8,486.2h972.4V540H473.8 M473.8,701.9H690v54.3H473.8
	 M473.8,918.1H690v53.8H473.8 M830.8,686.6c16.5-8.8,33.2-19.2,50.1-31.1h25.3v370.7h-54.3V724.6c-10.2,7.4-22.3,14.2-36.4,20.6
	c-14.4,6.7-29.4,12-44.8,15.8v-50.1c11.2-3.9,22-7.9,32.2-12.1C812.7,694.9,822,690.8,830.8,686.6 M1018.5,975.1h160.3v50.6H954.2
	v-27.9c0-10.9,1.4-22,4.2-33.2c2.8-10.9,7.6-21.6,14.2-32.2c6.3-10.2,14.9-20.9,25.8-32.2c10.9-10.9,24.6-23,41.1-36.4
	c14.1-10.9,26-20.7,35.9-29.5s17.9-17.2,24.3-25.3c6.3-7.7,10.9-15.6,13.7-23.7s4.2-17.1,4.2-26.9c0-18.3-5.4-32.5-16.3-42.7
	s-25.3-15.3-43.2-15.3c-31.3,0-61.3,13.9-90.2,41.7v-56.4c15.8-11.6,31.5-20,46.9-25.3c15.1-5.3,33-7.9,53.8-7.9
	c34.5,0,61.2,8.8,80.2,26.4s28.5,42,28.5,73.3c0,9.5-0.9,18.3-2.6,26.4c-1.8,8.4-4,16.5-6.9,24.3c-3.2,8.1-6.7,15.5-10.5,22.1
	c-4.2,6.7-9.8,13.7-16.9,21.1c-7.4,7.7-16.5,16.2-27.4,25.3c-10.9,9.5-24.8,20.7-41.7,33.8c-19.3,15.1-32.9,27.6-40.6,37.4
	c-8.1,10.2-12.1,20.7-12.1,31.6 M1360.8,828.5c26.7,3.2,47.6,12.5,62.8,27.9s22.7,34.8,22.7,58c0,16.5-3.2,31.5-9.5,44.8
	c-6.3,13.7-15.3,25.3-26.9,34.8c-11.6,9.8-25.7,17.4-42.2,22.7c-16.9,5.3-35.7,7.9-56.4,7.9c-8.1,0-16.3-0.5-24.8-1.6
	c-8.8-1.1-17.1-2.6-24.8-4.7c-8.1-1.8-15.3-3.9-21.6-6.3c-6.7-2.1-12-4.4-15.8-6.9v-58c5.3,4.2,11.2,8.1,17.9,11.6
	c6.7,3.9,13.9,7,21.6,9.5c7.7,2.8,15.6,4.9,23.7,6.3s15.8,2.1,23.2,2.1c23.2,0,41.5-5.6,54.8-16.9c13.4-10.9,20-25.5,20-43.8
	c0-20-7.7-35.2-23.2-45.4c-15.8-10.2-38.8-15.3-69.1-15.3h-31.6v-49h30.6c25.3,0,45.2-4.7,59.6-14.2c14.1-9.5,21.1-23.7,21.1-42.7
	c0-16.9-5.4-30.1-16.3-39.6s-26.4-14.2-46.4-14.2c-25.7,0-49.7,8.8-72.2,26.4v-53.8c10.9-6,24.1-10.9,39.6-14.8
	c15.1-3.5,31.1-5.3,48-5.3c16.5,0,31.5,2.3,44.8,6.9s24.8,10.7,34.3,18.5c9.1,8.1,16.2,17.6,21.1,28.5s7.4,22.7,7.4,35.3
	c0,23.6-6.3,42.9-19,58s-30.4,25.8-53.3,32.2V828.5z"/>
<path d="M1446.2,108.1H473.8V53.8h972.4 M1230,323.8H473.8V270H1230 M1446.2,540H473.8v-53.8h972.4 M690,756.2H473.8v-54.3H690
	 M690,971.9H473.8v-53.8H690V971.9z"/>
<path class="st0" d="M830.8,686.6c16.5-8.8,33.2-19.2,50.1-31.1h25.3v370.7h-54.3V724.6c-10.2,7.4-22.3,14.2-36.4,20.6
	c-14.4,6.7-29.4,12-44.8,15.8v-50.1c11.2-3.9,22-7.9,32.2-12.1C812.7,694.9,822,690.8,830.8,686.6 M1018.5,975.1h160.3v50.6H954.2
	v-27.9c0-10.9,1.4-22,4.2-33.2c2.8-10.9,7.6-21.6,14.2-32.2c6.3-10.2,14.9-20.9,25.8-32.2c10.9-10.9,24.6-23,41.1-36.4
	c14.1-10.9,26-20.7,35.9-29.5s17.9-17.2,24.3-25.3c6.3-7.7,10.9-15.6,13.7-23.7s4.2-17.1,4.2-26.9c0-18.3-5.4-32.5-16.3-42.7
	s-25.3-15.3-43.2-15.3c-31.3,0-61.3,13.9-90.2,41.7v-56.4c15.8-11.6,31.5-20,46.9-25.3c15.1-5.3,33-7.9,53.8-7.9
	c34.5,0,61.2,8.8,80.2,26.4s28.5,42,28.5,73.3c0,9.5-0.9,18.3-2.6,26.4c-1.8,8.4-4,16.5-6.9,24.3c-3.2,8.1-6.7,15.5-10.5,22.1
	c-4.2,6.7-9.8,13.7-16.9,21.1c-7.4,7.7-16.5,16.2-27.4,25.3c-10.9,9.5-24.8,20.7-41.7,33.8c-19.3,15.1-32.9,27.6-40.6,37.4
	c-8.1,10.2-12.1,20.7-12.1,31.6 M1360.8,828.5c26.7,3.2,47.6,12.5,62.8,27.9s22.7,34.8,22.7,58c0,16.5-3.2,31.5-9.5,44.8
	c-6.3,13.7-15.3,25.3-26.9,34.8c-11.6,9.8-25.7,17.4-42.2,22.7c-16.9,5.3-35.7,7.9-56.4,7.9c-8.1,0-16.3-0.5-24.8-1.6
	c-8.8-1.1-17.1-2.6-24.8-4.7c-8.1-1.8-15.3-3.9-21.6-6.3c-6.7-2.1-12-4.4-15.8-6.9v-58c5.3,4.2,11.2,8.1,17.9,11.6
	c6.7,3.9,13.9,7,21.6,9.5c7.7,2.8,15.6,4.9,23.7,6.3s15.8,2.1,23.2,2.1c23.2,0,41.5-5.6,54.8-16.9c13.4-10.9,20-25.5,20-43.8
	c0-20-7.7-35.2-23.2-45.4c-15.8-10.2-38.8-15.3-69.1-15.3h-31.6v-49h30.6c25.3,0,45.2-4.7,59.6-14.2c14.1-9.5,21.1-23.7,21.1-42.7
	c0-16.9-5.4-30.1-16.3-39.6s-26.4-14.2-46.4-14.2c-25.7,0-49.7,8.8-72.2,26.4v-53.8c10.9-6,24.1-10.9,39.6-14.8
	c15.1-3.5,31.1-5.3,48-5.3c16.5,0,31.5,2.3,44.8,6.9s24.8,10.7,34.3,18.5c9.1,8.1,16.2,17.6,21.1,28.5s7.4,22.7,7.4,35.3
	c0,23.6-6.3,42.9-19,58s-30.4,25.8-53.3,32.2V828.5z"/>
</svg>
