<?xml version="1.0" encoding="utf-8"?>
<!-- Generator: Adobe Illustrator 27.2.0, SVG Export Plug-In . SVG Version: 6.00 Build 0)  -->
<svg version="1.1" id="Calque_1" focusable="false" xmlns="http://www.w3.org/2000/svg" xmlns:xlink="http://www.w3.org/1999/xlink"
	 x="0px" y="0px" viewBox="0 0 1920 1080" style="enable-background:new 0 0 1920 1080;" xml:space="preserve">
<style type="text/css">
	.st0{fill:#FFFFFF;}
	.st1{fill:#DB4C44;}
</style>
<path d="M1264.8,810l235.2,235.2l-34.8,34.8L1230,844.8L994.8,1080l-34.8-34.8L1195.2,810L960,574.8l34.8-34.8L1230,775.2
	L1465.2,540l34.8,34.8 M864.6,1026.2H581.9V53.8h485.7l270.5,270v228.9l-54.3,54.3V378.1h-270v-270H636.2v863.8h282.7 M1068.1,323.8
	h193.5l-193.5-193 M880.4,540h-28.5v-53.8h82.3 M906.2,378.1H743.8v-54.3h162.4 M972.7,701.9H743.8v-53.8h175.1L972.7,701.9z"/>
<path class="st0" d="M896.2,994.6H608.8V81.2h443.5l258.9,254.2v244.2l-81.2,81.2L994.8,425.6L845.6,574.8L1080.8,810L896.2,994.6z"
	/>
<path class="st1" d="M880.4,540h-28.5v-53.8h82.3 M906.2,378.1H743.8v-54.3h162.4 M972.7,701.9H743.8v-53.8h175.1L972.7,701.9z"/>
<path d="M864.6,1026.2H581.9V53.8h485.7l270.5,270v228.9l-54.3,54.3V378.1h-270v-270H636.2v863.8h282.7 M1068.1,323.8h193.5
	l-193.5-193V323.8z"/>
<path class="st1" d="M1264.8,810l235.2,235.2l-34.8,34.8L1230,844.8L994.8,1080l-34.8-34.8L1195.2,810L960,574.8l34.8-34.8
	L1230,775.2L1465.2,540l34.8,34.8L1264.8,810z"/>
</svg>
