<?xml version="1.0" encoding="utf-8"?>
<!-- Generator: Adobe Illustrator 27.2.0, SVG Export Plug-In . SVG Version: 6.00 Build 0)  -->
<svg version="1.1" id="Calque_1" focusable="false" xmlns="http://www.w3.org/2000/svg" xmlns:xlink="http://www.w3.org/1999/xlink"
	 x="0px" y="0px" viewBox="0 0 1920 1080" style="enable-background:new 0 0 1920 1080;" xml:space="preserve">
<style type="text/css">
	.st0{fill:#FFFFFF;}
	.st1{fill:#4389C8;}
</style>
<path d="M1013.8,270H523.4l177.7,177.7l-38,38.5L420,243.1L663.1,0l38,38L523.4,216.2h490.4 M1446.2,108.1v648.1H907.3l-271.1,270
	v-270H473.8V411.3l54.3,54.3v236.2H690v193.5l193.5-193.5h508.4v-540H906.2v-53.8H1446.2z"/>
<path class="st0" d="M1418.8,135v593.8H896.2l-233.1,232v-232H501.2v-290l161.9,161.9l152.4-152.9L690,323.8h378.1V135H1418.8z"/>
<path d="M1446.2,108.1v648.1H907.3l-271.1,270v-270H473.8V411.3l54.3,54.3v236.2H690v193.5l193.5-193.5h508.4v-540H906.2v-53.8
	H1446.2z"/>
<path class="st1" d="M1013.8,270H523.4l177.7,177.7l-38,38.5L420,243.1L663.1,0l38,38L523.4,216.2h490.4V270z"/>
</svg>
