<?xml version="1.0" encoding="utf-8"?>
<!-- Generator: Adobe Illustrator 27.2.0, SVG Export Plug-In . SVG Version: 6.00 Build 0)  -->
<svg version="1.1" id="Calque_1" focusable="false" xmlns="http://www.w3.org/2000/svg" xmlns:xlink="http://www.w3.org/1999/xlink"
	 x="0px" y="0px" viewBox="0 0 1920 1080" style="enable-background:new 0 0 1920 1080;" xml:space="preserve">
<style type="text/css">
	.st0{fill:#FFFFFF;}
	.st1{fill:#797774;}
</style>
<path d="M1067.6,53.8l270.5,270v702.4H581.9V53.8 M1068.1,130.8v193h193.5 M1283.8,971.9V378.1h-270v-270H636.2v863.8 M851.9,378.1
	H743.8v-54.3h108.1 M960,378.1h-53.8v-54.3H960 M960,540H743.8v-53.8H960 M1176.2,540h-108.1v-53.8h108.1 M1176.2,863.8h-108.1V810
	h108.1 M1176.2,701.9h-108.1v-53.8h108.1 M1013.8,701.9h-270v-53.8h270 M960,863.8H743.8V810H960V863.8z"/>
<path class="st0" d="M608.8,998.8V81.2h443.5l258.9,254.2v663.4H608.8z"/>
<path d="M1067.6,53.8l270.5,270v702.4H581.9V53.8 M1068.1,130.8v193h193.5 M1283.8,971.9V378.1h-270v-270H636.2v863.8H1283.8z"/>
<path class="st1" d="M851.9,378.1H743.8v-54.3h108.1 M960,378.1h-53.8v-54.3H960 M960,540H743.8v-53.8H960 M1176.2,540h-108.1v-53.8
	h108.1 M1176.2,863.8h-108.1V810h108.1 M1176.2,701.9h-108.1v-53.8h108.1 M1013.8,701.9h-270v-53.8h270 M960,863.8H743.8V810H960
	V863.8z"/>
</svg>
