<?xml version="1.0" encoding="utf-8"?>
<!-- Generator: Adobe Illustrator 27.2.0, SVG Export Plug-In . SVG Version: 6.00 Build 0)  -->
<svg version="1.1" id="Calque_1" focusable="false" xmlns="http://www.w3.org/2000/svg" xmlns:xlink="http://www.w3.org/1999/xlink"
	 x="0px" y="0px" viewBox="0 0 1920 1080" style="enable-background:new 0 0 1920 1080;" xml:space="preserve">
<style type="text/css">
	.st0{fill:#4389C8;}
</style>
<path d="M960,918.1h-54.3v-39c0-15.1,3.3-28.8,10-41.1c6.7-12,15.1-23.2,25.3-33.8c9.8-10.2,20.6-20,32.2-29.5
	c11.6-9.1,22.5-18.6,32.7-28.5c9.8-9.5,18.1-19.7,24.8-30.6s10-23.2,10-36.9c0-13-2.5-24.8-7.4-35.3s-11.4-19.5-19.5-26.9
	s-17.2-13-27.4-16.9s-20.4-5.8-30.6-5.8c-69.3,0-103.9,36-103.9,108.1h-53.8c0-51.7,13.7-91.6,41.1-119.7S905.5,540,955.8,540
	c19.3,0,37.4,3.5,54.3,10.5c16.9,7.4,31.6,17.4,44.3,30.1s22.7,27.4,30.1,44.3c7,16.9,10.5,34.8,10.5,53.8c0,18.6-3.3,35.2-10,49.6
	s-14.9,27.6-24.8,39.6c-10.2,12-21.1,22.7-32.7,32.2c-11.6,9.8-22.3,19.2-32.2,27.9c-10.2,8.8-18.6,17.2-25.3,25.3
	c-6.7,8.4-10,17.1-10,25.8 M960,971.9v54.3h-54.3v-54.3 M822.4,431.9h-48.5l-40.1-108.1H573.5L536,431.9h-49.6l145-377.6h45.9
	 M719,284.2l-59.1-158.7c-2.5-6-4.4-14.4-5.8-25.3h-1.1c-2.1,10.5-4.2,19-6.3,25.3l-58.5,158.7 M851.9,431.9V54.3h107.6
	c16.2,0,30.9,2.1,44.3,6.3c13,4.2,24.1,10,33.2,17.4c9.1,7.7,16.2,16.9,21.1,27.4c4.9,10.9,7.4,22.7,7.4,35.3
	c0,21.8-5.8,40.4-17.4,55.9c-11.6,15.8-27.4,26.9-47.5,33.2v1.1c25,3.2,45.2,12.7,60.6,28.5c15.5,16.2,23.2,37.4,23.2,63.8
	c0,16.2-3.2,30.9-9.5,44.3s-14.9,24.8-25.8,34.3s-23.7,16.9-38.5,22.1c-15.1,5.3-31.3,7.9-48.5,7.9 M896.2,94.4v121.8h45.4
	c24.3,0,43.2-5.8,57-17.4c13.7-11.2,20.6-27.8,20.6-49.6c0-36.6-24.1-54.8-72.2-54.8 M896.2,255.8v136.1h60.1
	c25.7,0,45.7-6.2,60.1-18.5c14.4-12,21.6-28.8,21.6-50.6c0-44.6-30.4-67-91.2-67 M1404.6,416.1c-27.4,14.8-62.1,22.1-103.9,22.1
	c-27.1,0-51.5-4.6-73.3-13.7s-40.4-22.1-55.9-39c-15.5-16.5-27.4-36.4-35.9-59.6c-8.4-22.9-12.7-48.2-12.7-75.9
	c0-29.9,4.9-57.3,14.8-82.3c9.5-24.6,22.9-45.9,40.1-63.8c17.2-17.6,37.6-31.3,61.2-41.1s49.2-14.8,77-14.8c35.5,0,65,5.1,88.6,15.3
	v47.5c-26.7-15.1-56.4-22.7-89.1-22.7c-21.8,0-41.7,3.7-59.6,11.1c-17.9,7.7-33.2,18.6-45.9,32.7c-13,14.1-23,30.8-30.1,50.1
	c-7,19.7-10.5,41.5-10.5,65.4c0,22.9,3.3,43.6,10,62.2s16,34.5,27.9,47.5c12,13.4,26.4,23.6,43.2,30.6c16.9,7.4,35.5,11.1,55.9,11.1
	c38,0,70.7-8.4,98.1-25.3V416.1z"/>
<path d="M822.4,431.9h-48.5l-40.1-108.1H573.5L536,431.9h-49.6l145-377.6h45.9 M719,284.2l-59.1-158.7c-2.5-6-4.4-14.4-5.8-25.3
	h-1.1c-2.1,10.5-4.2,19-6.3,25.3l-58.5,158.7 M851.9,431.9V54.3h107.6c16.2,0,30.9,2.1,44.3,6.3c13,4.2,24.1,10,33.2,17.4
	c9.1,7.7,16.2,16.9,21.1,27.4c4.9,10.9,7.4,22.7,7.4,35.3c0,21.8-5.8,40.4-17.4,55.9c-11.6,15.8-27.4,26.9-47.5,33.2v1.1
	c25,3.2,45.2,12.7,60.6,28.5c15.5,16.2,23.2,37.4,23.2,63.8c0,16.2-3.2,30.9-9.5,44.3s-14.9,24.8-25.8,34.3s-23.7,16.9-38.5,22.1
	c-15.1,5.3-31.3,7.9-48.5,7.9 M896.2,94.4v121.8h45.4c24.3,0,43.2-5.8,57-17.4c13.7-11.2,20.6-27.8,20.6-49.6
	c0-36.6-24.1-54.8-72.2-54.8 M896.2,255.8v136.1h60.1c25.7,0,45.7-6.2,60.1-18.5c14.4-12,21.6-28.8,21.6-50.6
	c0-44.6-30.4-67-91.2-67 M1404.6,416.1c-27.4,14.8-62.1,22.1-103.9,22.1c-27.1,0-51.5-4.6-73.3-13.7s-40.4-22.1-55.9-39
	c-15.5-16.5-27.4-36.4-35.9-59.6c-8.4-22.9-12.7-48.2-12.7-75.9c0-29.9,4.9-57.3,14.8-82.3c9.5-24.6,22.9-45.9,40.1-63.8
	c17.2-17.6,37.6-31.3,61.2-41.1s49.2-14.8,77-14.8c35.5,0,65,5.1,88.6,15.3v47.5c-26.7-15.1-56.4-22.7-89.1-22.7
	c-21.8,0-41.7,3.7-59.6,11.1c-17.9,7.7-33.2,18.6-45.9,32.7c-13,14.1-23,30.8-30.1,50.1c-7,19.7-10.5,41.5-10.5,65.4
	c0,22.9,3.3,43.6,10,62.2s16,34.5,27.9,47.5c12,13.4,26.4,23.6,43.2,30.6c16.9,7.4,35.5,11.1,55.9,11.1c38,0,70.7-8.4,98.1-25.3
	V416.1z"/>
<path class="st0" d="M960,918.1h-54.3v-39c0-15.1,3.3-28.8,10-41.1c6.7-12,15.1-23.2,25.3-33.8c9.8-10.2,20.6-20,32.2-29.5
	c11.6-9.1,22.5-18.6,32.7-28.5c9.8-9.5,18.1-19.7,24.8-30.6s10-23.2,10-36.9c0-13-2.5-24.8-7.4-35.3s-11.4-19.5-19.5-26.9
	s-17.2-13-27.4-16.9s-20.4-5.8-30.6-5.8c-69.3,0-103.9,36-103.9,108.1h-53.8c0-51.7,13.7-91.6,41.1-119.7S905.5,540,955.8,540
	c19.3,0,37.4,3.5,54.3,10.5c16.9,7.4,31.6,17.4,44.3,30.1s22.7,27.4,30.1,44.3c7,16.9,10.5,34.8,10.5,53.8c0,18.6-3.3,35.2-10,49.6
	s-14.9,27.6-24.8,39.6c-10.2,12-21.1,22.7-32.7,32.2c-11.6,9.8-22.3,19.2-32.2,27.9c-10.2,8.8-18.6,17.2-25.3,25.3
	c-6.7,8.4-10,17.1-10,25.8 M960,971.9v54.3h-54.3v-54.3H960z"/>
</svg>
