<?xml version="1.0" encoding="utf-8"?>
<!-- Generator: Adobe Illustrator 27.2.0, SVG Export Plug-In . SVG Version: 6.00 Build 0)  -->
<svg version="1.1" id="Calque_1" focusable="false" xmlns="http://www.w3.org/2000/svg" xmlns:xlink="http://www.w3.org/1999/xlink"
	 x="0px" y="0px" viewBox="0 0 1920 1080" style="enable-background:new 0 0 1920 1080;" xml:space="preserve">
<style type="text/css">
	.st0{fill:#FFFFFF;}
	.st1{fill:#4389C8;}
</style>
<path d="M1230,108.1H528.1V810h-54.3V53.8H1230 M851.9,918.1h-270V161.9h756.2V540h-54.3V216.2H636.2v647.6h215.7 M1230,971.9h-53.8
	V810h53.8 M1230,756.2h-53.8v-54.3h53.8 M960,648.1v378.1h161.9v53.8H906.2V593.8h215.7v54.3 M1500,593.8V1080h-216.2v-53.8h162.4
	V648.1h-162.4v-54.3H1500z"/>
<path class="st0" d="M1311.2,188.8V540H851.9v351.2H608.8V810H501.2V81.2H1230v107.6H1311.2z"/>
<path d="M1230,108.1H528.1V810h-54.3V53.8H1230 M851.9,918.1h-270V161.9h756.2V540h-54.3V216.2H636.2v647.6h215.7V918.1z"/>
<path class="st1" d="M1230,971.9h-53.8V810h53.8 M1230,756.2h-53.8v-54.3h53.8 M960,648.1v378.1h161.9v53.8H906.2V593.8h215.7v54.3
	 M1500,593.8V1080h-216.2v-53.8h162.4V648.1h-162.4v-54.3H1500z"/>
</svg>
