<?xml version="1.0" encoding="utf-8"?>
<!-- Generator: Adobe Illustrator 27.2.0, SVG Export Plug-In . SVG Version: 6.00 Build 0)  -->
<svg version="1.1" id="Calque_1" focusable="false" xmlns="http://www.w3.org/2000/svg" xmlns:xlink="http://www.w3.org/1999/xlink"
	 x="0px" y="0px" viewBox="0 0 1920 1080" style="enable-background:new 0 0 1920 1080;" xml:space="preserve">
<style type="text/css">
	.st0{fill:#FFFFFF;}
	.st1{fill:#4389C8;}
</style>
<path d="M917.8,968.2c-1.1,5.6-1.9,11.2-2.6,16.9s-1.1,11.2-1.1,16.9c0,6.7,0.5,13.4,1.6,20H581.4V53.8h483.6l269.5,268.9v104.4
	c-14.8-17.6-32.7-32.2-53.8-43.8v-6.9h-14.2c-10.5-4.2-21.4-7.6-32.7-10c-11.2-2.1-22.5-3.2-33.8-3.2c-22.5,0-44.6,4.4-66.4,13.2
	h-121.8V107.6H635.2v860.6 M1065.5,130.3v192.5h193 M1494.7,593.3c0,17.6-4.4,32.2-13.2,43.8c-9.1,12-21.1,21.8-35.9,29.5l-111.3,57
	v60.1l75.9,186.2c1.8,3.9,3,8.3,3.7,13.2c0.4,4.9,0.5,9.3,0.5,13.2c0,10.9-1.9,21.1-5.8,30.6c-4.2,9.5-9.8,17.8-16.9,24.8
	c-7.4,7.4-15.8,13-25.3,16.9c-9.5,4.2-19.7,6.3-30.6,6.3c-17.2,0-32.2-4.6-44.8-13.7c-13-9.1-22.7-21.6-29-37.4l-62.2-154l-67,159.8
	c-6.7,15.8-16.2,28.1-28.5,36.9c-12.7,9.1-27.6,13.7-44.8,13.7c-10.9,0-21.1-2.1-30.6-6.3c-9.8-4.2-18.3-9.8-25.3-16.9
	s-12.7-15.5-16.9-25.3c-4.2-9.5-6.3-19.7-6.3-30.6c0-3.9,0.4-8.1,1.1-12.7s1.8-8.6,3.2-12.1l80.7-192.5v-60.1L952.1,665
	c-14.4-7.4-25.8-17.1-34.3-29c-8.4-11.6-12.7-25.8-12.7-42.7c0-10.9,2.1-21.1,6.3-30.6s10-17.9,17.4-25.3c7-7,15.3-12.7,24.8-16.9
	s19.7-6.3,30.6-6.3c4.6,0,9.3,0.4,14.2,1.1c4.9,1.1,9.5,2.5,13.7,4.2l81.7,34.8c-0.4-2.8-0.7-5.6-1.1-8.4c-0.4-2.5-0.5-5.1-0.5-7.9
	c0-14.8,2.8-28.7,8.4-41.7s13.4-24.4,23.2-34.3s21.3-17.6,34.3-23.2s26.9-8.4,41.7-8.4s28.7,2.8,41.7,8.4s24.4,13.4,34.3,23.2
	s17.6,21.3,23.2,34.3s8.4,26.9,8.4,41.7c0,4.9-0.5,10-1.6,15.3l80.7-33.8c4.2-1.8,9-3.2,14.2-4.2c4.9-0.7,9.7-1.1,14.2-1.1
	c10.9,0,21.3,2.1,31.1,6.3c9.5,4.2,17.9,9.8,25.3,16.9c7,7,12.7,15.3,16.9,24.8C1492.6,572,1494.7,582.4,1494.7,593.3 M1199.9,484.1
	c-7.4,0-14.2,1.4-20.6,4.2c-6.7,2.8-12.5,6.7-17.4,11.6s-8.8,10.5-11.6,16.9c-2.8,6.7-4.2,13.7-4.2,21.1s1.4,14.2,4.2,20.6
	c2.8,6.7,6.7,12.5,11.6,17.4s10.7,8.8,17.4,11.6c6.3,2.8,13.2,4.2,20.6,4.2s14.4-1.4,21.1-4.2c6.3-2.8,12-6.7,16.9-11.6
	s8.8-10.7,11.6-17.4c2.8-6.3,4.2-13.2,4.2-20.6s-1.4-14.4-4.2-21.1c-2.8-6.3-6.7-12-11.6-16.9s-10.5-8.8-16.9-11.6
	C1214.4,485.5,1207.3,484.1,1199.9,484.1 M1440.9,592.7c0-7-2.5-13-7.4-17.9c-5.3-4.6-11.2-6.9-17.9-6.9c-3.5,0-6.5,0.5-9,1.6
	l-168.8,70.7c-6,2.5-12.5,4.2-19.5,5.3c-7,1.4-13.7,2.1-20,2.1s-12.8-0.7-19.5-2.1c-6.7-1.1-13-2.8-19-5.3c-3.5-1.4-10-4.2-19.5-8.4
	s-20.4-9-32.7-14.2s-25.3-10.9-39-16.9c-13.7-5.6-26.4-10.9-38-15.8c-12-4.9-22.1-9-30.6-12.1s-13.7-4.7-15.8-4.7
	c-7,0-13,2.5-17.9,7.4s-7.4,10.9-7.4,17.9c0,5.3,1.4,9.8,4.2,13.7s6.7,7,11.6,9.5l130.3,66.4c4.6,2.5,8.1,5.8,10.5,10
	c2.5,4.6,3.7,9.3,3.7,14.2v81.7c0,4.2-0.7,7.7-2.1,10.5c-1.4,3.5-4.4,10.5-9,21.1c-4.9,10.9-10.4,23.6-16.3,38
	c-6.3,14.4-12.8,29.5-19.5,45.4c-6.7,16.2-12.8,31.1-18.5,44.8c-6,14.1-10.7,25.8-14.2,35.3c-3.9,9.8-5.8,15.5-5.8,16.9
	c0,7,2.6,13,7.9,17.9s11.2,7.4,17.9,7.4c5.3,0,10-1.6,14.2-4.7c4.2-2.8,7.4-6.7,9.5-11.6l72.8-175.1c3.9-9.1,9.7-16.3,17.4-21.6
	s16.5-7.9,26.4-7.9c10.5,0,19.7,2.6,27.4,7.9c7.4,5.6,13,13.2,16.9,22.7l68,168.2c2.1,5.3,5.3,9.5,9.5,12.7
	c3.9,3.2,8.8,4.7,14.8,4.7c7,0,13-2.6,17.9-7.9c4.6-4.9,6.9-10.9,6.9-17.9c0-2.1-1.8-7.9-5.3-17.4s-7.9-20.9-13.2-34.3
	c-5.3-13-11.1-27.2-17.4-42.7s-12.3-30.2-17.9-44.3c-6-13.7-11.2-25.8-15.8-36.4s-7.6-17.8-9-21.6c-0.7-1.8-1.2-3.5-1.6-5.3
	c-0.4-1.4-0.5-3-0.5-4.7v-81.7c0-4.9,1.4-9.7,4.2-14.2c2.5-4.2,6-7.6,10.5-10l128.1-64.9c4.9-2.8,9.1-6.3,12.7-10.5
	C1439.4,603.6,1440.9,598.7,1440.9,592.7z"/>
<path class="st0" d="M914.1,995.1H608.3V80.7h441.9l257.3,253.1v67c-15.5-12.3-32.3-21.6-50.6-27.9s-37.3-9.5-57-9.5
	c-16.5,0-32.5,2.3-48,6.9s-29.9,10.9-43.2,19c-13.7,8.4-26,18.6-36.9,30.6c-11.2,12-20.6,25.3-27.9,40.1c-8.1-4.2-17.8-7.4-29-9.5
	s-21.4-3.2-30.6-3.2c-20,0-38.8,3.9-56.4,11.6c-17.9,7.7-33.4,18.1-46.4,31.1c-13.4,13.4-23.9,28.8-31.6,46.4s-11.6,36.4-11.6,56.4
	c0,18.6,3.5,36.9,10.5,54.8c7.7,19.3,17.8,34.8,30.1,46.4c12,12,26.9,22.5,44.8,31.6c25.3,13,50.3,26,74.9,39v5.3L921,955
	c-2.5,6-4,12.5-4.7,19.5C915.2,981.9,914.5,988.8,914.1,995.1 M1467.8,593.3c0,11.6-2.8,21.3-8.4,29c-6,8.1-13.9,14.6-23.7,19.5
	l-128.1,65.4v81.7l78,190.9c1.1,2.5,1.8,5.1,2.1,7.9c0.4,3.2,0.5,6,0.5,8.4c0,7.4-1.4,14.2-4.2,20.6s-6.5,11.8-11.1,16.3
	c-4.9,4.9-10.5,8.6-16.9,11.1c-6.3,2.8-13,4.2-20,4.2c-11.2,0-21.1-3.2-29.5-9.5s-14.8-14.6-19-24.8l-68.6-168.8
	c-3.2-8.8-9.5-13.2-19-13.2c-9.1,0-15.5,4.4-19,13.2l-72.8,173.5c-4.2,10.2-10.4,18.5-18.5,24.8c-8.4,6.3-18.5,9.5-30.1,9.5
	c-7,0-13.7-1.4-20-4.2s-11.8-6.7-16.3-11.6c-4.9-4.6-8.8-10-11.6-16.3s-4.2-13-4.2-20c0-2.5,0.2-5.3,0.5-8.4s1.1-5.8,2.1-7.9
	l82.3-195.6v-81.7l-128.1-65.9c-9.8-4.9-17.6-11.4-23.2-19.5c-5.6-7.7-8.4-17.2-8.4-28.5c0-14.8,5.1-27.2,15.3-37.4
	c9.8-9.8,22.1-14.8,36.9-14.8c6.7,0,12.7,1.1,17.9,3.2l166.6,71.2c4.2,1.8,9,3,14.2,3.7c5.3,1.1,10.2,1.6,14.8,1.6
	c4.9,0,10-0.5,15.3-1.6c4.9-0.7,9.5-1.9,13.7-3.7l169.3-70.7c2.8-1.4,6-2.3,9.5-2.6c3.2-0.4,6.2-0.5,9-0.5
	c14.8,0,27.2,4.9,37.4,14.8S1467.8,578.5,1467.8,593.3 M1199.9,618.6c-11.2,0-21.6-2.1-31.1-6.3c-9.8-4.2-18.5-10-25.8-17.4
	s-13.2-16-17.4-25.8c-4.2-9.5-6.3-19.9-6.3-31.1c0-10.9,2.1-21.3,6.3-31.1s10-18.5,17.4-25.8s16-13.2,25.8-17.4
	c9.5-4.2,19.9-6.3,31.1-6.3c10.9,0,21.3,2.1,31.1,6.3s18.5,10,25.8,17.4s13.2,16,17.4,25.8s6.3,20.2,6.3,31.1
	c0,11.2-2.1,21.8-6.3,31.6s-9.8,18.3-16.9,25.3c-7.4,7.4-16,13.2-25.8,17.4S1211.2,618.6,1199.9,618.6z"/>
<path d="M917.8,968.2c-1.1,5.6-1.9,11.2-2.6,16.9s-1.1,11.2-1.1,16.9c0,6.7,0.5,13.4,1.6,20H581.4V53.8h483.6l269.5,268.9v104.4
	c-14.8-17.6-32.7-32.2-53.8-43.8v-6.9h-14.2c-10.5-4.2-21.4-7.6-32.7-10c-11.2-2.1-22.5-3.2-33.8-3.2c-22.5,0-44.6,4.4-66.4,13.2
	h-121.8V107.6H635.2v860.6 M1065.5,130.3v192.5h193L1065.5,130.3z"/>
<path class="st1" d="M1494.7,593.3c0,17.6-4.4,32.2-13.2,43.8c-9.1,12-21.1,21.8-35.9,29.5l-111.3,57v60.1l75.9,186.2
	c1.8,3.9,3,8.3,3.7,13.2c0.4,4.9,0.5,9.3,0.5,13.2c0,10.9-1.9,21.1-5.8,30.6c-4.2,9.5-9.8,17.8-16.9,24.8
	c-7.4,7.4-15.8,13-25.3,16.9c-9.5,4.2-19.7,6.3-30.6,6.3c-17.2,0-32.2-4.6-44.8-13.7c-13-9.1-22.7-21.6-29-37.4l-62.2-154l-67,159.8
	c-6.7,15.8-16.2,28.1-28.5,36.9c-12.7,9.1-27.6,13.7-44.8,13.7c-10.9,0-21.1-2.1-30.6-6.3c-9.8-4.2-18.3-9.8-25.3-16.9
	s-12.7-15.5-16.9-25.3c-4.2-9.5-6.3-19.7-6.3-30.6c0-3.9,0.4-8.1,1.1-12.7s1.8-8.6,3.2-12.1l80.7-192.5v-60.1L952.1,665
	c-14.4-7.4-25.8-17.1-34.3-29c-8.4-11.6-12.7-25.8-12.7-42.7c0-10.9,2.1-21.1,6.3-30.6s10-17.9,17.4-25.3c7-7,15.3-12.7,24.8-16.9
	s19.7-6.3,30.6-6.3c4.6,0,9.3,0.4,14.2,1.1c4.9,1.1,9.5,2.5,13.7,4.2l81.7,34.8c-0.4-2.8-0.7-5.6-1.1-8.4c-0.4-2.5-0.5-5.1-0.5-7.9
	c0-14.8,2.8-28.7,8.4-41.7s13.4-24.4,23.2-34.3s21.3-17.6,34.3-23.2s26.9-8.4,41.7-8.4s28.7,2.8,41.7,8.4s24.4,13.4,34.3,23.2
	s17.6,21.3,23.2,34.3s8.4,26.9,8.4,41.7c0,4.9-0.5,10-1.6,15.3l80.7-33.8c4.2-1.8,9-3.2,14.2-4.2c4.9-0.7,9.7-1.1,14.2-1.1
	c10.9,0,21.3,2.1,31.1,6.3c9.5,4.2,17.9,9.8,25.3,16.9c7,7,12.7,15.3,16.9,24.8C1492.6,572,1494.7,582.4,1494.7,593.3 M1199.9,484.1
	c-7.4,0-14.2,1.4-20.6,4.2c-6.7,2.8-12.5,6.7-17.4,11.6s-8.8,10.5-11.6,16.9c-2.8,6.7-4.2,13.7-4.2,21.1s1.4,14.2,4.2,20.6
	c2.8,6.7,6.7,12.5,11.6,17.4s10.7,8.8,17.4,11.6c6.3,2.8,13.2,4.2,20.6,4.2s14.4-1.4,21.1-4.2c6.3-2.8,12-6.7,16.9-11.6
	s8.8-10.7,11.6-17.4c2.8-6.3,4.2-13.2,4.2-20.6s-1.4-14.4-4.2-21.1c-2.8-6.3-6.7-12-11.6-16.9s-10.5-8.8-16.9-11.6
	C1214.4,485.5,1207.3,484.1,1199.9,484.1 M1440.9,592.7c0-7-2.5-13-7.4-17.9c-5.3-4.6-11.2-6.9-17.9-6.9c-3.5,0-6.5,0.5-9,1.6
	l-168.8,70.7c-6,2.5-12.5,4.2-19.5,5.3c-7,1.4-13.7,2.1-20,2.1s-12.8-0.7-19.5-2.1c-6.7-1.1-13-2.8-19-5.3c-3.5-1.4-10-4.2-19.5-8.4
	s-20.4-9-32.7-14.2s-25.3-10.9-39-16.9c-13.7-5.6-26.4-10.9-38-15.8c-12-4.9-22.1-9-30.6-12.1s-13.7-4.7-15.8-4.7
	c-7,0-13,2.5-17.9,7.4s-7.4,10.9-7.4,17.9c0,5.3,1.4,9.8,4.2,13.7s6.7,7,11.6,9.5l130.3,66.4c4.6,2.5,8.1,5.8,10.5,10
	c2.5,4.6,3.7,9.3,3.7,14.2v81.7c0,4.2-0.7,7.7-2.1,10.5c-1.4,3.5-4.4,10.5-9,21.1c-4.9,10.9-10.4,23.6-16.3,38
	c-6.3,14.4-12.8,29.5-19.5,45.4c-6.7,16.2-12.8,31.1-18.5,44.8c-6,14.1-10.7,25.8-14.2,35.3c-3.9,9.8-5.8,15.5-5.8,16.9
	c0,7,2.6,13,7.9,17.9s11.2,7.4,17.9,7.4c5.3,0,10-1.6,14.2-4.7c4.2-2.8,7.4-6.7,9.5-11.6l72.8-175.1c3.9-9.1,9.7-16.3,17.4-21.6
	s16.5-7.9,26.4-7.9c10.5,0,19.7,2.6,27.4,7.9c7.4,5.6,13,13.2,16.9,22.7l68,168.2c2.1,5.3,5.3,9.5,9.5,12.7
	c3.9,3.2,8.8,4.7,14.8,4.7c7,0,13-2.6,17.9-7.9c4.6-4.9,6.9-10.9,6.9-17.9c0-2.1-1.8-7.9-5.3-17.4s-7.9-20.9-13.2-34.3
	c-5.3-13-11.1-27.2-17.4-42.7s-12.3-30.2-17.9-44.3c-6-13.7-11.2-25.8-15.8-36.4s-7.6-17.8-9-21.6c-0.7-1.8-1.2-3.5-1.6-5.3
	c-0.4-1.4-0.5-3-0.5-4.7v-81.7c0-4.9,1.4-9.7,4.2-14.2c2.5-4.2,6-7.6,10.5-10l128.1-64.9c4.9-2.8,9.1-6.3,12.7-10.5
	C1439.4,603.6,1440.9,598.7,1440.9,592.7z"/>
</svg>
