<?xml version="1.0" encoding="utf-8"?>
<!-- Generator: Adobe Illustrator 27.1.0, SVG Export Plug-In . SVG Version: 6.00 Build 0)  -->
<svg version="1.1" id="Calque_1" xmlns="http://www.w3.org/2000/svg" xmlns:xlink="http://www.w3.org/1999/xlink" x="0px" y="0px"
	 viewBox="0 0 16 16" style="enable-background:new 0 0 16 16;" xml:space="preserve">
<style type="text/css">
	.st0{fill:#FFFFFF;}
</style>
<path class="st0" d="M4.1,7.2h7.7c1.7,0,3-1.4,3-3s-1.4-3-3-3H4.1c-1.7,0-3,1.4-3,3S2.5,7.2,4.1,7.2z M4.1,2.2h7.7
	c1.1,0,1.9,0.9,1.9,1.9s-0.9,1.9-1.9,1.9l0,0H4.1c-1.1,0-1.9-0.9-1.9-1.9S3.1,2.2,4.1,2.2z M4.1,5.5c0.8,0,1.4-0.6,1.4-1.4
	S4.9,2.8,4.1,2.8S2.8,3.4,2.8,4.1S3.4,5.5,4.1,5.5z M11.9,8.8H4.1c-1.7,0-3,1.4-3,3s1.4,3,3,3h7.7c1.7,0,3-1.4,3-3
	S13.5,8.8,11.9,8.8z M12.7,13.2c-0.8,0-1.4-0.6-1.4-1.4s0.6-1.4,1.4-1.4c0.8,0,1.4,0.6,1.4,1.4S13.4,13.2,12.7,13.2z"/>
</svg>
