<?xml version="1.0" encoding="utf-8"?>
<!-- Generator: Adobe Illustrator 27.1.0, SVG Export Plug-In . SVG Version: 6.00 Build 0)  -->
<svg version="1.1" id="Calque_1" xmlns="http://www.w3.org/2000/svg" xmlns:xlink="http://www.w3.org/1999/xlink" x="0px" y="0px"
	 viewBox="0 0 12 12" style="enable-background:new 0 0 12 12;" xml:space="preserve">
<style type="text/css">
	.st0{fill:#FFFFFF;}
</style>
<path class="st0" d="M5.8,3.6C5.4,3.6,4.7,3.1,4,3.1C3,3.1,2.2,3.7,1.7,4.5c-1,1.7-0.3,4.2,0.7,5.6c0.5,0.7,1,1.4,1.8,1.4
	c0.7,0,1-0.5,1.8-0.5c0.8,0,1.1,0.5,1.8,0.4c0.8,0,1.2-0.7,1.7-1.4c0.5-0.8,0.8-1.5,0.8-1.6c0,0-1.5-0.6-1.5-2.2
	c0-1.4,1.1-2.1,1.2-2.1c-0.7-1-1.7-1.1-2-1.1C7,3,6.2,3.6,5.8,3.6z M7.4,2.2C7.8,1.7,8,1.1,7.9,0.4c-0.6,0-1.2,0.4-1.6,0.8
	C6,1.7,5.6,2.3,5.7,3C6.3,3,7,2.7,7.4,2.2z"/>
</svg>
