<?xml version="1.0" encoding="utf-8"?>
<!-- Generator: Adobe Illustrator 27.1.0, SVG Export Plug-In . SVG Version: 6.00 Build 0)  -->
<svg version="1.1" id="Calque_1" xmlns="http://www.w3.org/2000/svg" xmlns:xlink="http://www.w3.org/1999/xlink" x="0px" y="0px"
	 viewBox="0 0 12 12" style="enable-background:new 0 0 12 12;" xml:space="preserve">
<style type="text/css">
	.st0{fill:#FFFFFF;}
</style>
<path class="st0" d="M3.2,7.7l-1-1.1c0.5-0.5,1.1-0.9,1.7-1.2C4.5,5.1,5.2,5,6,5s1.5,0.1,2.1,0.4c0.7,0.3,1.2,0.7,1.7,1.2L8.8,7.7
	C8.5,7.3,8,7,7.5,6.8S6.5,6.5,6,6.5S4.9,6.6,4.4,6.8S3.5,7.3,3.2,7.7z M1,5.6L0,4.5c0.8-0.8,1.7-1.4,2.7-1.8S4.8,2,6,2
	s2.3,0.2,3.3,0.7s1.9,1.1,2.7,1.8l-1.1,1.1C10.3,4.9,9.6,4.4,8.7,4C7.9,3.7,7,3.5,6,3.5S4.1,3.7,3.3,4C2.4,4.4,1.7,4.9,1,5.6z
	 M6,10.5l1.8-1.8C7.5,8.5,7.3,8.3,7,8.2C6.7,8.1,6.3,8,6,8S5.3,8.1,5,8.2C4.7,8.3,4.5,8.5,4.2,8.7L6,10.5z"/>
</svg>
