<?xml version="1.0" encoding="utf-8"?>
<!-- Generator: Adobe Illustrator 27.2.0, SVG Export Plug-In . SVG Version: 6.00 Build 0)  -->
<svg version="1.1" id="Calque_1" focusable="false" xmlns="http://www.w3.org/2000/svg" xmlns:xlink="http://www.w3.org/1999/xlink"
	 x="0px" y="0px" viewBox="0 0 1920 1080" style="enable-background:new 0 0 1920 1080;" xml:space="preserve">
<style type="text/css">
	.st0{fill:#FFFFFF;}
	.st1{fill:#F3DC99;}
	.st2{fill:#D0722A;}
</style>
<path d="M1176.2,701.9v161.9H743.8V701.9 M1121.9,756.2H798.1V810h323.8 M1338.1,323.8v702.4H581.9V53.8h485.7 M1068.1,323.8h193.5
	l-193.5-193 M1283.8,378.1h-540V216.2h270V108.1H636.2v863.8h647.6 M798.1,270v53.8h215.7V270H798.1z"/>
<path class="st0" d="M608.8,81.2h443.5l258.9,254.2v659.2H608.8V81.2z"/>
<path d="M1338.1,323.8v702.4H581.9V53.8h485.7 M1068.1,323.8h193.5l-193.5-193 M1283.8,378.1h-270v-270H636.2v863.8h647.6V378.1z"/>
<path class="st1" d="M771.2,836.9V728.8h377.6v108.1 M771.2,351.2V243.1h242.6v108.1H771.2z"/>
<path class="st2" d="M1176.2,701.9v161.9H743.8V701.9 M1121.9,756.2H798.1V810h323.8 M798.1,270v53.8h215.7v54.3h-270V216.2h270V270
	H798.1z"/>
</svg>
