<svg height="100%" width="100%" viewBox="0,0,2048,2048" focusable="false"><path type="path" class="OfficeIconColors_HighContrast" d="M 256 819 q 32 0 60 12 q 28 12 49 33 q 21 21 33 49 q 12 28 12 60 q 0 32 -12 60 q -12 28 -33 48 q -21 21 -49 33 q -28 12 -60 12 q -32 0 -60 -12 q -28 -12 -49 -33 q -21 -20 -33 -48 q -12 -28 -12 -60 q 0 -32 12 -60 q 12 -28 33 -49 q 21 -21 49 -33 q 28 -12 60 -12 m 717 0 q 32 0 60 12 q 28 12 49 33 q 20 21 32 49 q 12 28 12 60 q 0 32 -12 60 q -12 28 -32 48 q -21 21 -49 33 q -28 12 -60 12 q -32 0 -60 -12 q -28 -12 -49 -33 q -21 -20 -33 -48 q -12 -28 -12 -60 q 0 -32 12 -60 q 12 -28 33 -49 q 21 -21 49 -33 q 28 -12 60 -12 m 717 0 q 31 0 59 12 q 28 12 49 33 q 21 21 33 49 q 12 28 12 60 q 0 32 -12 60 q -12 28 -33 48 q -21 21 -49 33 q -28 12 -59 12 q -32 0 -60 -12 q -28 -12 -49 -33 q -21 -20 -33 -48 q -12 -28 -12 -60 q 0 -32 12 -60 q 12 -28 33 -49 q 21 -21 49 -33 q 28 -12 60 -12 z"></path><path type="path" class="OfficeIconColors_m22" d="M 256 819 q 32 0 60 12 q 28 12 49 33 q 21 21 33 49 q 12 28 12 60 q 0 32 -12 60 q -12 28 -33 48 q -21 21 -49 33 q -28 12 -60 12 q -32 0 -60 -12 q -28 -12 -49 -33 q -21 -20 -33 -48 q -12 -28 -12 -60 q 0 -32 12 -60 q 12 -28 33 -49 q 21 -21 49 -33 q 28 -12 60 -12 m 717 0 q 32 0 60 12 q 28 12 49 33 q 20 21 32 49 q 12 28 12 60 q 0 32 -12 60 q -12 28 -32 48 q -21 21 -49 33 q -28 12 -60 12 q -32 0 -60 -12 q -28 -12 -49 -33 q -21 -20 -33 -48 q -12 -28 -12 -60 q 0 -32 12 -60 q 12 -28 33 -49 q 21 -21 49 -33 q 28 -12 60 -12 m 717 0 q 31 0 59 12 q 28 12 49 33 q 21 21 33 49 q 12 28 12 60 q 0 32 -12 60 q -12 28 -33 48 q -21 21 -49 33 q -28 12 -59 12 q -32 0 -60 -12 q -28 -12 -49 -33 q -21 -20 -33 -48 q -12 -28 -12 -60 q 0 -32 12 -60 q 12 -28 33 -49 q 21 -21 49 -33 q 28 -12 60 -12 z"></path></svg>