<?xml version="1.0" encoding="utf-8"?>
<!-- Generator: Adobe Illustrator 27.2.0, SVG Export Plug-In . SVG Version: 6.00 Build 0)  -->
<svg version="1.1" id="Calque_1" focusable="false" xmlns="http://www.w3.org/2000/svg" xmlns:xlink="http://www.w3.org/1999/xlink"
	 x="0px" y="0px" viewBox="0 0 1920 1080" style="enable-background:new 0 0 1920 1080;" xml:space="preserve">
<style type="text/css">
	.st0{fill:#FFFFFF;}
	.st1{fill:#2C59B7;}
</style>
<path d="M1365,270c11.2,0,21.8,2.1,31.6,6.3s18.5,10,25.8,17.4s13.2,16,17.4,25.8s6.3,20.4,6.3,31.6s-2.1,21.6-6.3,31.1
	c-4.2,9.8-10,18.5-17.4,25.8s-16,13.2-25.8,17.4s-20.4,6.3-31.6,6.3h-315.4l-78,108.1h231.5c11.2,0,21.8,2.1,31.6,6.3
	s18.5,10,25.8,17.4c7,7.4,12.7,16,16.9,25.8s6.3,20.4,6.3,31.6s-2.1,21.6-6.3,31.1c-4.2,9.8-9.8,18.5-16.9,25.8
	c-7.4,7.4-16,13.2-25.8,17.4s-20.4,6.3-31.6,6.3H853.5l-78,108.1h265.8c10.9,0,21.3,2.1,31.1,6.3s18.5,10,25.8,17.4
	s13.2,16,17.4,25.8s6.3,20.4,6.3,31.6s-2.1,21.6-6.3,31.1c-4.2,9.8-10,18.5-17.4,25.8s-16,13.2-25.8,17.4s-20.2,6.3-31.1,6.3H613
	l-54.3,39c-2.8,1.8-5.8,2.6-9,2.6s-6-0.7-8.4-2.1l-60.6,44.8c-1.1,0.7-2.8,1.1-5.3,1.1c-9.1,0-16.9-2.6-23.2-7.9s-9.5-11.1-9.5-17.4
	v-1.6l22.1-73.3c-4.6-3.5-6.9-7.9-6.9-13.2c0-1.1,0.4-2.6,1.1-4.7l51.2-170.9L1049.1,29c3.5-2.5,6.2-4,7.9-4.7
	c1.4-0.7,3.9-1.1,7.4-1.1c2.8,0,8.1,1.8,15.8,5.3s17.1,8.3,27.9,14.2c10.5,6,22.1,13,34.8,21.1c12.3,8.1,24.6,16.7,36.9,25.8
	c12,9.1,23.2,18.5,33.8,27.9c10.5,9.8,19.2,19.5,25.8,29c1.8,2.5,3.2,4.7,4.2,6.9s1.6,4,1.6,5.8c0,2.1-0.9,4.4-2.6,6.9L1167.2,270
	 M559.2,793.1l-40.6,135.5l31.1,22.1l117.1-83.3l478.3-658.7l-105.5-74.9v0.5L559.2,793.1z"/>
<path class="st0" d="M471.2,1028.8l24.8-82.3l-9-6.9l47.5-159.3l533.1-730.4c2.8,1.1,7.6,3.3,14.2,6.9c6.7,3.9,14.6,8.6,23.7,14.2
	c8.8,5.6,18.5,12,29,19c10.2,7,20.2,14.2,30.1,21.6c9.8,7.7,19.2,15.6,27.9,23.7s16.2,15.8,22.1,23.2L685.8,887l-138.2,98.6
	l-13.2-7.9l-9.5,12.1l-53.3,39.6C471.3,1029.4,471.2,1029.2,471.2,1028.8z"/>
<path class="st1" d="M1365,270c11.2,0,21.8,2.1,31.6,6.3s18.5,10,25.8,17.4s13.2,16,17.4,25.8s6.3,20.4,6.3,31.6s-2.1,21.6-6.3,31.1
	c-4.2,9.8-10,18.5-17.4,25.8s-16,13.2-25.8,17.4s-20.4,6.3-31.6,6.3h-315.4l-78,108.1h231.5c11.2,0,21.8,2.1,31.6,6.3
	s18.5,10,25.8,17.4c7,7.4,12.7,16,16.9,25.8s6.3,20.4,6.3,31.6s-2.1,21.6-6.3,31.1c-4.2,9.8-9.8,18.5-16.9,25.8
	c-7.4,7.4-16,13.2-25.8,17.4s-20.4,6.3-31.6,6.3H853.5l-78,108.1h265.8c10.9,0,21.3,2.1,31.1,6.3s18.5,10,25.8,17.4
	s13.2,16,17.4,25.8s6.3,20.4,6.3,31.6s-2.1,21.6-6.3,31.1c-4.2,9.8-10,18.5-17.4,25.8s-16,13.2-25.8,17.4s-20.2,6.3-31.1,6.3H613
	l-54.3,39c-2.8,1.8-5.8,2.6-9,2.6s-6-0.7-8.4-2.1l-60.6,44.8c-1.1,0.7-2.8,1.1-5.3,1.1c-9.1,0-16.9-2.6-23.2-7.9s-9.5-11.1-9.5-17.4
	v-1.6l22.1-73.3c-4.6-3.5-6.9-7.9-6.9-13.2c0-1.1,0.4-2.6,1.1-4.7l51.2-170.9L1049.1,29c3.5-2.5,6.2-4,7.9-4.7
	c1.4-0.7,3.9-1.1,7.4-1.1c2.8,0,8.1,1.8,15.8,5.3s17.1,8.3,27.9,14.2c10.5,6,22.1,13,34.8,21.1c12.3,8.1,24.6,16.7,36.9,25.8
	c12,9.1,23.2,18.5,33.8,27.9c10.5,9.8,19.2,19.5,25.8,29c1.8,2.5,3.2,4.7,4.2,6.9s1.6,4,1.6,5.8c0,2.1-0.9,4.4-2.6,6.9L1167.2,270
	 M559.2,793.1l-40.6,135.5l31.1,22.1l117.1-83.3l478.3-658.7l-105.5-74.9v0.5L559.2,793.1z"/>
</svg>
