<?xml version="1.0" encoding="utf-8"?>
<!-- Generator: Adobe Illustrator 27.2.0, SVG Export Plug-In . SVG Version: 6.00 Build 0)  -->
<svg version="1.1" id="Calque_1" focusable="false" xmlns="http://www.w3.org/2000/svg" xmlns:xlink="http://www.w3.org/1999/xlink"
	 x="0px" y="0px" viewBox="0 0 1920 1080" style="enable-background:new 0 0 1920 1080;" xml:space="preserve">
<style type="text/css">
	.st0{fill:none;}
	.st1{fill:#FFFFFF;}
</style>
<path d="M1426.7,559l-34.8-34.8v502h-323.8V648.1H851.9v378.1H528.1v-502L493.3,559l-38.5-38L960,15.8L1465.2,521 M1338.1,470.4
	L960,92.3L581.9,470.4v501.5h216.2V593.8h323.8v378.1h216.2V470.4z"/>
<path class="st0" d="M1095,998.8V621.2H825v377.6H555v-540l405-405l405,405v540H1095z"/>
<path class="st1" d="M1426.7,559l-34.8-34.8v502h-323.8V648.1H851.9v378.1H528.1v-502L493.3,559l-38.5-38L960,15.8L1465.2,521
	 M1338.1,470.4L960,92.3L581.9,470.4v501.5h216.2V593.8h323.8v378.1h216.2V470.4z"/>
</svg>
