<?xml version="1.0" encoding="utf-8"?>
<!-- Generator: Adobe Illustrator 27.2.0, SVG Export Plug-In . SVG Version: 6.00 Build 0)  -->
<svg version="1.1" id="Calque_1" focusable="false" xmlns="http://www.w3.org/2000/svg" xmlns:xlink="http://www.w3.org/1999/xlink"
	 x="0px" y="0px" viewBox="0 0 1920 1080" style="enable-background:new 0 0 1920 1080;" xml:space="preserve">
<style type="text/css">
	.st0{fill:#FFFFFF;}
	.st1{fill:#90BCE8;}
	.st2{fill:#3D70B4;}
	.st3{fill:#D0722A;}
</style>
<path d="M1203.1,418.7c-9.5,0-18.3-1.8-26.4-5.3s-15.1-8.4-21.1-14.8c-6.3-6-11.2-13.2-14.8-21.6c-3.5-8.1-5.3-16.7-5.3-25.8
	c0-9.5,1.8-18.3,5.3-26.4s8.4-15.3,14.8-21.6c6-6,13-10.7,21.1-14.2s16.9-5.3,26.4-5.3c9.1,0,17.9,1.8,26.4,5.3
	c8.1,3.5,15.3,8.3,21.6,14.2c6,6.3,10.7,13.5,14.2,21.6s5.3,16.9,5.3,26.4c0,9.1-1.8,17.8-5.3,25.8c-3.5,8.4-8.3,15.6-14.2,21.6
	c-6.3,6.3-13.5,11.2-21.6,14.8C1221,417,1212.2,418.7,1203.1,418.7 M473.8,161.9h972.4v756.2H473.8 M1391.9,216.2H528.1v393.4
	L771.2,367l296.9,296.9l135-135l188.8,188.8 M528.1,686.1v177.7H1192L771.2,443 M1268,863.8h123.9v-69.6l-188.8-188.8l-97,96.5
	L1268,863.8z"/>
<path class="st0" d="M1418.8,891.2H501.2V188.8h917.6V891.2z"/>
<path class="st1" d="M500.2,673.9l271.1-265.8l300.1,289.5l131.8-129.7l217.8,211.5v111.3H500.2V673.9z"/>
<path class="st2" d="M1399.8,802.1l-196.7-196.7l-97,96.5l169.8,169.8l-38,38.5L771.2,443l-251,251l-38.5-38l289.5-289l296.9,296.9
	l135-135l235.2,235.2L1399.8,802.1z"/>
<path class="st3" d="M1203.1,418.7c-9.5,0-18.3-1.8-26.4-5.3s-15.1-8.4-21.1-14.8c-6.3-6-11.2-13.2-14.8-21.6
	c-3.5-8.1-5.3-16.7-5.3-25.8c0-9.5,1.8-18.3,5.3-26.4s8.4-15.3,14.8-21.6c6-6,13-10.7,21.1-14.2s16.9-5.3,26.4-5.3
	c9.1,0,17.9,1.8,26.4,5.3c8.1,3.5,15.3,8.3,21.6,14.2c6,6.3,10.7,13.5,14.2,21.6s5.3,16.9,5.3,26.4c0,9.1-1.8,17.8-5.3,25.8
	c-3.5,8.4-8.3,15.6-14.2,21.6c-6.3,6.3-13.5,11.2-21.6,14.8C1221,417,1212.2,418.7,1203.1,418.7z"/>
<path d="M473.8,161.9h972.4v756.2H473.8 M1391.9,863.8V216.2H528.1v647.6H1391.9z"/>
</svg>
