<svg height="100%" width="100%" viewBox="0,0,2048,2048" focusable="false"><path type="path" class="OfficeIconColors_HighContrast" d="M 1434 307 v 1048 q 0 65 13 117 q 12 53 38 90 q 25 37 63 56 q 38 20 89 20 q 17 0 93 -14 l 34 96 q -59 21 -128 21 q -75 0 -132 -26 q -57 -26 -95 -76 q -39 -49 -58 -119 q -20 -70 -20 -159 v -1054 h -614 v 1033 q 0 225 -34 383 h -104 q 18 -73 27 -168 q 8 -95 8 -215 v -1033 q -44 2 -97 9 q -53 7 -108 19 q -55 13 -108 31 q -53 18 -96 42 v -122 q 162 -81 351 -81 h 1287 v 102 z"></path><path type="path" class="OfficeIconColors_m22" d="M 1434 307 v 1048 q 0 65 13 117 q 12 53 38 90 q 25 37 63 56 q 38 20 89 20 q 17 0 93 -14 l 34 96 q -59 21 -128 21 q -75 0 -132 -26 q -57 -26 -95 -76 q -39 -49 -58 -119 q -20 -70 -20 -159 v -1054 h -614 v 1033 q 0 225 -34 383 h -104 q 18 -73 27 -168 q 8 -95 8 -215 v -1033 q -44 2 -97 9 q -53 7 -108 19 q -55 13 -108 31 q -53 18 -96 42 v -122 q 162 -81 351 -81 h 1287 v 102 z"></path></svg>