<?xml version="1.0" encoding="utf-8"?>
<!-- Generator: Adobe Illustrator 27.2.0, SVG Export Plug-In . SVG Version: 6.00 Build 0)  -->
<svg version="1.1" id="Calque_1" focusable="false" xmlns="http://www.w3.org/2000/svg" xmlns:xlink="http://www.w3.org/1999/xlink"
	 x="0px" y="0px" viewBox="0 0 1920 1080" style="enable-background:new 0 0 1920 1080;" xml:space="preserve">
<style type="text/css">
	.st0{fill:#FFFFFF;}
	.st1{fill:#4389C8;}
</style>
<path d="M1338.1,53.8v324.3H581.9V53.8h54.3v270h647.6v-270 M1338.1,648.1v323.8h-54.3v-270H636.2v270h-54.3V648.1 M581.9,540H420
	v-53.8h161.9 M798.1,540H636.2v-53.8h161.9 M1013.8,540H851.9v-53.8h161.9 M1230,540h-161.9v-53.8H1230 M1446.2,540h-162.4v-53.8
	h162.4V540z"/>
<path class="st0" d="M1311.2,675v296.9H608.8V675 M608.8,351.2V53.8h702.4v297.4H608.8z"/>
<path d="M1338.1,53.8v324.3H581.9V53.8h54.3v270h647.6v-270 M1338.1,648.1v323.8h-54.3v-270H636.2v270h-54.3V648.1H1338.1z"/>
<path class="st1" d="M581.9,540H420v-53.8h161.9 M798.1,540H636.2v-53.8h161.9 M1013.8,540H851.9v-53.8h161.9 M1230,540h-161.9
	v-53.8H1230 M1446.2,540h-162.4v-53.8h162.4V540z"/>
</svg>
