<?xml version="1.0" encoding="utf-8"?>
<!-- Generator: Adobe Illustrator 27.2.0, SVG Export Plug-In . SVG Version: 6.00 Build 0)  -->
<svg version="1.1" id="Calque_1" focusable="false" xmlns="http://www.w3.org/2000/svg" xmlns:xlink="http://www.w3.org/1999/xlink"
	 x="0px" y="0px" viewBox="0 0 1920 1080" style="enable-background:new 0 0 1920 1080;" xml:space="preserve">
<style type="text/css">
	.st0{fill:#FFFFFF;}
	.st1{fill:#569C57;}
</style>
<path d="M420,216.2h216.2V0h67.5v216.2h215.7v67.5H703.7v215.7h-67.5V283.7H420 M1446.2,108.1v648.1H907.3l-271.1,270v-270H473.8
	V364.4h54.3v337.5H690v193.5l193.5-193.5h508.4v-540h-391.3v-53.8H1446.2z"/>
<path class="st0" d="M1418.8,135v593.8H896.2l-233.1,232v-232H501.2V364.4h80.7v216.2h202.5V364.4h216.2V135H1418.8z"/>
<path d="M1446.2,108.1v648.1H907.3l-271.1,270v-270H473.8V364.4h54.3v337.5H690v193.5l193.5-193.5h508.4v-540h-391.3v-53.8H1446.2z"
	/>
<path class="st1" d="M420,216.2h216.2V0h67.5v216.2h215.7v67.5H703.7v215.7h-67.5V283.7H420V216.2z"/>
</svg>
