<?xml version="1.0" encoding="UTF-8"?>
<svg id="Calque_1" data-name="Calque 1" xmlns="http://www.w3.org/2000/svg" viewBox="0 0 20 20">
  <defs>
    <style>
      .cls-1 {
        fill: #fff;
      }
    </style>
  </defs>
  <path class="cls-1" d="m10,0c5.52,0,10,4.48,10,10s-4.48,10-10,10S0,15.52,0,10,4.48,0,10,0Zm0,1.5C5.31,1.5,1.5,5.31,1.5,10s3.81,8.5,8.5,8.5,8.5-3.81,8.5-8.5S14.69,1.5,10,1.5Zm-.35,4.05l.07-.08c.27-.27.68-.29.98-.07l.08.07,4,4c.27.27.29.68.07.98l-.07.08-4,4c-.29.29-.77.29-1.06,0-.27-.27-.29-.68-.07-.98l.07-.08,2.72-2.72h-6.69c-.38,0-.69-.28-.74-.65v-.1c0-.38.28-.69.64-.74h.1s6.69,0,6.69,0l-2.72-2.72c-.27-.27-.29-.68-.07-.98l.07-.08-.07.08Z"/>
</svg>