<?xml version="1.0" encoding="utf-8"?>
<!-- Generator: Adobe Illustrator 27.1.0, SVG Export Plug-In . SVG Version: 6.00 Build 0)  -->
<svg version="1.1" id="Calque_1" xmlns="http://www.w3.org/2000/svg" xmlns:xlink="http://www.w3.org/1999/xlink" x="0px" y="0px"
	 viewBox="0 0 1024 1024" style="enable-background:new 0 0 1024 1024;" xml:space="preserve">
<style type="text/css">
	.st0{fill:#FFFFFF;}
</style>
<path class="st0" d="M792,288H128c-52.8,0-96,43.2-96,96v256c0,52.8,43.2,96,96,96h664c52.8,0,96-43.2,96-96V384
	C888,331.2,844.8,288,792,288z M832,640c0,22-18,40-40,40H128c-22,0-40-18-40-40V384c0-22,18-40,40-40h664c22,0,40,18,40,40V640z
	 M928,409.2v205.6c32,0,64-55.4,64-102.8S960,409.2,928,409.2L928,409.2z"/>
<path class="st0" d="M768,384H152c-13.2,0-24,10.8-24,24v208c0,13.2,10.8,24,24,24h616c13.2,0,24-10.8,24-24V408
	C792,394.8,781.2,384,768,384z"/>
</svg>
