<?xml version="1.0" encoding="utf-8"?>
<!-- Generator: Adobe Illustrator 27.2.0, SVG Export Plug-In . SVG Version: 6.00 Build 0)  -->
<svg version="1.1" id="Calque_1" focusable="false" xmlns="http://www.w3.org/2000/svg" xmlns:xlink="http://www.w3.org/1999/xlink"
	 x="0px" y="0px" viewBox="0 0 1920 1080" style="enable-background:new 0 0 1920 1080;" xml:space="preserve">
<style type="text/css">
	.st0{fill:#4389C8;}
</style>
<path d="M1446.2,108.1H473.8V53.8h972.4 M1446.2,756.2h-432.4v-54.3h432.4 M1446.2,323.8h-432.4V270h432.4 M1446.2,540h-432.4v-53.8
	h432.4 M1446.2,971.9H473.8v-53.8h972.4 M663.1,323.8l38,38.5L577.7,486.2h328.5V540H577.7l123.4,123.9l-38,38L473.8,513.1
	L663.1,323.8z"/>
<path d="M1446.2,108.1H473.8V53.8h972.4 M1446.2,756.2h-432.4v-54.3h432.4 M1446.2,323.8h-432.4V270h432.4 M1446.2,540h-432.4v-53.8
	h432.4 M1446.2,971.9H473.8v-53.8h972.4V971.9z"/>
<path class="st0" d="M663.1,323.8l38,38.5L577.7,486.2h328.5V540H577.7l123.4,123.9l-38,38L473.8,513.1L663.1,323.8z"/>
</svg>
