<?xml version="1.0" encoding="utf-8"?>
<!-- Generator: Adobe Illustrator 27.2.0, SVG Export Plug-In . SVG Version: 6.00 Build 0)  -->
<svg version="1.1" id="Layer_1" focusable="false" xmlns="http://www.w3.org/2000/svg" xmlns:xlink="http://www.w3.org/1999/xlink"
	 x="0px" y="0px" viewBox="0 0 595.3 841.9" style="enable-background:new 0 0 595.3 841.9;" xml:space="preserve">
<path d="M74.4,361.4c6.2,0,12,1.2,17.4,3.5c5.4,2.3,10.2,5.5,14.2,9.6c4.1,4.1,7.3,8.8,9.6,14.2c2.3,5.4,3.5,11.2,3.5,17.4
	s-1.2,12-3.5,17.4c-2.3,5.4-5.5,10.1-9.6,14c-4.1,4.1-8.8,7.3-14.2,9.6c-5.4,2.3-11.2,3.5-17.4,3.5c-6.2,0-12-1.2-17.4-3.5
	s-10.2-5.5-14.2-9.6c-4.1-3.9-7.3-8.5-9.6-14c-2.3-5.4-3.5-11.2-3.5-17.4s1.2-12,3.5-17.4c2.3-5.4,5.5-10.2,9.6-14.2
	c4.1-4.1,8.8-7.3,14.2-9.6S68.2,361.4,74.4,361.4 M282.8,361.4c6.2,0,12,1.2,17.4,3.5c5.4,2.3,10.2,5.5,14.2,9.6
	c3.9,4.1,7,8.8,9.3,14.2c2.3,5.4,3.5,11.2,3.5,17.4s-1.2,12-3.5,17.4c-2.3,5.4-5.4,10.1-9.3,14c-4.1,4.1-8.8,7.3-14.2,9.6
	c-5.4,2.3-11.2,3.5-17.4,3.5s-12-1.2-17.4-3.5c-5.4-2.3-10.2-5.5-14.2-9.6c-4.1-3.9-7.3-8.5-9.6-14c-2.3-5.4-3.5-11.2-3.5-17.4
	s1.2-12,3.5-17.4c2.3-5.4,5.5-10.2,9.6-14.2c4.1-4.1,8.8-7.3,14.2-9.6C270.8,362.5,276.6,361.4,282.8,361.4 M491.2,361.4
	c6,0,11.7,1.2,17.1,3.5c5.4,2.3,10.2,5.5,14.2,9.6c4.1,4.1,7.3,8.8,9.6,14.2c2.3,5.4,3.5,11.2,3.5,17.4s-1.2,12-3.5,17.4
	c-2.3,5.4-5.5,10.1-9.6,14c-4.1,4.1-8.8,7.3-14.2,9.6c-5.4,2.3-11.1,3.5-17.1,3.5c-6.2,0-12-1.2-17.4-3.5s-10.2-5.5-14.2-9.6
	c-4.1-3.9-7.3-8.5-9.6-14c-2.3-5.4-3.5-11.2-3.5-17.4s1.2-12,3.5-17.4c2.3-5.4,5.5-10.2,9.6-14.2c4.1-4.1,8.8-7.3,14.2-9.6
	S485,361.4,491.2,361.4z"/>
<path d="M74.4,361.4c6.2,0,12,1.2,17.4,3.5c5.4,2.3,10.2,5.5,14.2,9.6c4.1,4.1,7.3,8.8,9.6,14.2c2.3,5.4,3.5,11.2,3.5,17.4
	s-1.2,12-3.5,17.4c-2.3,5.4-5.5,10.1-9.6,14c-4.1,4.1-8.8,7.3-14.2,9.6c-5.4,2.3-11.2,3.5-17.4,3.5c-6.2,0-12-1.2-17.4-3.5
	s-10.2-5.5-14.2-9.6c-4.1-3.9-7.3-8.5-9.6-14c-2.3-5.4-3.5-11.2-3.5-17.4s1.2-12,3.5-17.4c2.3-5.4,5.5-10.2,9.6-14.2
	c4.1-4.1,8.8-7.3,14.2-9.6S68.2,361.4,74.4,361.4 M282.8,361.4c6.2,0,12,1.2,17.4,3.5c5.4,2.3,10.2,5.5,14.2,9.6
	c3.9,4.1,7,8.8,9.3,14.2c2.3,5.4,3.5,11.2,3.5,17.4s-1.2,12-3.5,17.4c-2.3,5.4-5.4,10.1-9.3,14c-4.1,4.1-8.8,7.3-14.2,9.6
	c-5.4,2.3-11.2,3.5-17.4,3.5s-12-1.2-17.4-3.5c-5.4-2.3-10.2-5.5-14.2-9.6c-4.1-3.9-7.3-8.5-9.6-14c-2.3-5.4-3.5-11.2-3.5-17.4
	s1.2-12,3.5-17.4c2.3-5.4,5.5-10.2,9.6-14.2c4.1-4.1,8.8-7.3,14.2-9.6C270.8,362.5,276.6,361.4,282.8,361.4 M491.2,361.4
	c6,0,11.7,1.2,17.1,3.5c5.4,2.3,10.2,5.5,14.2,9.6c4.1,4.1,7.3,8.8,9.6,14.2c2.3,5.4,3.5,11.2,3.5,17.4s-1.2,12-3.5,17.4
	c-2.3,5.4-5.5,10.1-9.6,14c-4.1,4.1-8.8,7.3-14.2,9.6c-5.4,2.3-11.1,3.5-17.1,3.5c-6.2,0-12-1.2-17.4-3.5s-10.2-5.5-14.2-9.6
	c-4.1-3.9-7.3-8.5-9.6-14c-2.3-5.4-3.5-11.2-3.5-17.4s1.2-12,3.5-17.4c2.3-5.4,5.5-10.2,9.6-14.2c4.1-4.1,8.8-7.3,14.2-9.6
	S485,361.4,491.2,361.4z"/>
</svg>
