<?xml version="1.0" encoding="utf-8"?>
<!-- Generator: Adobe Illustrator 27.2.0, SVG Export Plug-In . SVG Version: 6.00 Build 0)  -->
<svg version="1.1" id="Calque_1" focusable="false" xmlns="http://www.w3.org/2000/svg" xmlns:xlink="http://www.w3.org/1999/xlink"
	 x="0px" y="0px" viewBox="0 0 1920 1080" style="enable-background:new 0 0 1920 1080;" xml:space="preserve">
<style type="text/css">
	.st0{fill:#FFFFFF;}
</style>
<path d="M1230,540H782.8L960,717.7l-38,38.5L679.5,513.6l240.5-241l41.1,35.3L783.3,486.2H1230 M933.1,0c47.1,0,92.6,6.2,136.6,18.5
	c43.6,12.3,84.4,29.5,122.3,51.7s72.6,48.9,103.9,80.2s58,65.9,80.2,103.9s39.4,78.9,51.7,122.9c12.3,43.6,18.5,88.9,18.5,136.1
	s-6.2,92.6-18.5,136.6c-12.3,43.6-29.5,84.4-51.7,122.3s-48.9,72.6-80.2,103.9s-65.9,58-103.9,80.2s-78.8,39.4-122.3,51.7
	c-43.9,12.3-89.5,18.5-136.6,18.5s-92.5-6.2-136.1-18.5c-43.9-12.3-84.9-29.5-122.9-51.7s-72.6-48.9-103.9-80.2s-58-65.9-80.2-103.9
	s-39.4-78.8-51.7-122.3c-12.3-43.9-18.5-89.5-18.5-136.6s6.2-92.5,18.5-136.1c12.3-43.9,29.5-84.9,51.7-122.9s48.9-72.6,80.2-103.9
	s65.9-58,103.9-80.2s78.9-39.4,122.9-51.7C840.6,6.2,886,0,933.1,0 M933.1,971.9c42.2,0,82.8-5.4,121.8-16.3s75.6-26.4,109.7-46.4
	s65-43.9,92.8-71.7s51.7-58.7,71.7-92.8s35.5-70.7,46.4-109.7s16.3-79.6,16.3-121.8s-5.4-82.8-16.3-121.8
	c-10.9-39.4-26.4-75.9-46.4-109.7c-20-34.1-43.9-65-71.7-92.8c-27.8-28.1-58.7-52.2-92.8-72.2s-70.7-35.5-109.7-46.4
	s-79.6-16.3-121.8-16.3s-82.8,5.4-121.8,16.3c-39.4,10.9-75.9,26.4-109.7,46.4c-34.1,20-65,44.1-92.8,72.2
	c-28.1,27.8-52.2,58.7-72.2,92.8c-20,33.8-35.5,70.3-46.4,109.7c-10.9,39-16.3,79.6-16.3,121.8s5.4,82.8,16.3,121.8
	s26.4,75.6,46.4,109.7s44.1,65,72.2,92.8c27.8,27.8,58.7,51.7,92.8,71.7c33.8,20,70.3,35.5,109.7,46.4
	C850.3,966.4,890.9,971.9,933.1,971.9z"/>
<path class="st0" d="M1230,540H782.8L960,717.7l-38,38.5L679.5,513.6l240.5-241l41.1,35.3L783.3,486.2H1230 M933.1,0
	c47.1,0,92.6,6.2,136.6,18.5c43.6,12.3,84.4,29.5,122.3,51.7s72.6,48.9,103.9,80.2s58,65.9,80.2,103.9s39.4,78.9,51.7,122.9
	c12.3,43.6,18.5,88.9,18.5,136.1s-6.2,92.6-18.5,136.6c-12.3,43.6-29.5,84.4-51.7,122.3s-48.9,72.6-80.2,103.9s-65.9,58-103.9,80.2
	s-78.8,39.4-122.3,51.7c-43.9,12.3-89.5,18.5-136.6,18.5s-92.5-6.2-136.1-18.5c-43.9-12.3-84.9-29.5-122.9-51.7
	s-72.6-48.9-103.9-80.2s-58-65.9-80.2-103.9s-39.4-78.8-51.7-122.3c-12.3-43.9-18.5-89.5-18.5-136.6s6.2-92.5,18.5-136.1
	c12.3-43.9,29.5-84.9,51.7-122.9s48.9-72.6,80.2-103.9s65.9-58,103.9-80.2s78.9-39.4,122.9-51.7C840.6,6.2,886,0,933.1,0
	 M933.1,971.9c42.2,0,82.8-5.4,121.8-16.3s75.6-26.4,109.7-46.4s65-43.9,92.8-71.7s51.7-58.7,71.7-92.8s35.5-70.7,46.4-109.7
	s16.3-79.6,16.3-121.8s-5.4-82.8-16.3-121.8c-10.9-39.4-26.4-75.9-46.4-109.7c-20-34.1-43.9-65-71.7-92.8
	c-27.8-28.1-58.7-52.2-92.8-72.2s-70.7-35.5-109.7-46.4s-79.6-16.3-121.8-16.3s-82.8,5.4-121.8,16.3
	c-39.4,10.9-75.9,26.4-109.7,46.4c-34.1,20-65,44.1-92.8,72.2c-28.1,27.8-52.2,58.7-72.2,92.8c-20,33.8-35.5,70.3-46.4,109.7
	c-10.9,39-16.3,79.6-16.3,121.8s5.4,82.8,16.3,121.8s26.4,75.6,46.4,109.7s44.1,65,72.2,92.8c27.8,27.8,58.7,51.7,92.8,71.7
	c33.8,20,70.3,35.5,109.7,46.4C850.3,966.4,890.9,971.9,933.1,971.9z"/>
</svg>
