<?xml version="1.0" encoding="utf-8"?>
<!-- Generator: Adobe Illustrator 27.2.0, SVG Export Plug-In . SVG Version: 6.00 Build 0)  -->
<svg version="1.1" id="Calque_1" focusable="false" xmlns="http://www.w3.org/2000/svg" xmlns:xlink="http://www.w3.org/1999/xlink"
	 x="0px" y="0px" viewBox="0 0 1920 1080" style="enable-background:new 0 0 1920 1080;" xml:space="preserve">
<style type="text/css">
	.st0{fill:#FFFFFF;}
	.st1{fill:#A8A8A8;}
	.st2{fill:#70AEEA;}
	.st3{fill:#4F82D0;}
	.st4{fill:#5277C3;}
	.st5{fill:#2C59B7;}
</style>
<path d="M1321.2,303.8c6.7,6.7,10,14.6,10,23.7v651.3c0,9.1-3.3,17.1-10,23.7s-14.6,10-23.7,10H656.2c-9.1,0-17.1-3.3-23.7-10
	s-10-14.6-10-23.7V776.2h-95.4c-10.9,0-20.2-3.9-27.9-11.6s-11.6-17.1-11.6-27.9V343.3c0-10.9,3.9-20.2,11.6-27.9
	s17.1-11.6,27.9-11.6h95.4V101.2c0-9.1,3.3-17.1,10-23.7s14.6-10,23.7-10h415c9.1,0,17.1,3.3,23.7,10 M1095,303.8h178.8L1095,125
	 M1297.5,337.5H1095c-9.1,0-17.1-3.3-23.7-10s-10-14.6-10-23.7V101.2h-405v202.5h264.2c10.9,0,20.2,3.9,27.9,11.6
	s11.6,17.1,11.6,27.9v393.4c0,10.9-3.9,20.2-11.6,27.9s-17.1,11.6-27.9,11.6H656.2v202.5h641.2 M884.6,405h-45.9l-38,188.8
	L747,410.3h-40.6l-57,183.5L612,405h-49l54.3,270h48.5l59.6-186.2L781.8,675h48.5 M1230,506.2H993.8v-33.8H1230 M1230,573.8H993.8
	V540H1230 M1230,641.2H993.8v-33.8H1230V641.2z"/>
<path class="st0" d="M639.4,978.8V101.2c0-4.9,1.6-9,4.7-12.1s7.2-4.7,12.1-4.7h415c4.6,0,8.4,1.6,11.6,4.7l226.8,226.8
	c3.2,3.2,4.7,7,4.7,11.6v651.3c0,4.9-1.6,9-4.7,12.1s-7.2,4.7-12.1,4.7H656.2c-4.9,0-9-1.6-12.1-4.7S639.4,983.7,639.4,978.8z"/>
<path class="st1" d="M1321.2,303.8c6.7,6.7,10,14.6,10,23.7v651.3c0,9.1-3.3,17.1-10,23.7s-14.6,10-23.7,10H656.2
	c-9.1,0-17.1-3.3-23.7-10s-10-14.6-10-23.7V101.2c0-9.1,3.3-17.1,10-23.7s14.6-10,23.7-10h415c9.1,0,17.1,3.3,23.7,10 M1095,303.8
	h178.8L1095,125 M1297.5,978.8V337.5H1095c-9.1,0-17.1-3.3-23.7-10s-10-14.6-10-23.7V101.2h-405v877.5H1297.5z"/>
<path class="st2" d="M1230,506.2H993.8v-33.8H1230V506.2z"/>
<path class="st3" d="M1230,573.8H993.8V540H1230V573.8z"/>
<path class="st4" d="M1230,641.2H993.8v-33.8H1230V641.2z"/>
<path class="st5" d="M920.4,776.2H527.1c-10.9,0-20.2-3.9-27.9-11.6s-11.6-17.1-11.6-27.9V343.3c0-10.9,3.9-20.2,11.6-27.9
	s17.1-11.6,27.9-11.6h393.4c10.9,0,20.2,3.9,27.9,11.6s11.6,17.1,11.6,27.9v393.4c0,10.9-3.9,20.2-11.6,27.9
	S931.3,776.2,920.4,776.2z"/>
<path class="st0" d="M830.3,675h-48.5l-56.4-186.2L665.7,675h-48.5l-54.3-270h49l37.4,188.8l57-183.5H747l53.8,183.5l38-188.8h45.9
	L830.3,675z"/>
</svg>
