<?xml version="1.0" encoding="utf-8"?>
<!-- Generator: Adobe Illustrator 27.2.0, SVG Export Plug-In . SVG Version: 6.00 Build 0)  -->
<svg version="1.1" id="Layer_1" focusable="false" xmlns="http://www.w3.org/2000/svg" xmlns:xlink="http://www.w3.org/1999/xlink"
	 x="0px" y="0px" viewBox="0 0 595.3 841.9" style="enable-background:new 0 0 595.3 841.9;" xml:space="preserve">
<style type="text/css">
	.st0{fill:#2C58B8;}
</style>
<path d="M539.5,346.5c7.8,0,15,1.5,21.8,4.4s12.7,6.9,17.7,11.9c5,5,9,10.9,11.9,17.7s4.4,14,4.4,21.8c0,7.8-1.5,15-4.4,21.8
	c-2.9,6.8-6.9,12.7-11.9,17.7c-5,5-10.9,9-17.7,11.9s-14,4.4-21.8,4.4c-11.8,0-22.4-3.3-31.7-9.9c-9.3-6.4-16.1-14.8-20.3-25.3
	l-96.8,184L223.2,272.1l-66.9,148.8h-48c-1.9,5.4-4.6,10.4-7.8,14.8c-3.5,4.7-7.5,8.6-11.9,11.9c-4.7,3.3-9.8,5.8-15.4,7.6
	c-5.6,1.9-11.4,2.9-17.4,2.9c-7.8,0-15-1.5-21.8-4.4s-12.7-6.9-17.7-11.9c-5-5-9-10.9-11.9-17.7c-2.9-6.8-4.4-14-4.4-21.8
	c0-7.8,1.5-15,4.4-21.8s6.9-12.7,11.9-17.7c5-5,10.9-9,17.7-11.9s14-4.4,21.8-4.4c6,0,11.8,0.9,17.4,2.6c5.6,1.9,10.8,4.6,15.4,7.8
	c4.5,3.3,8.4,7.2,11.9,11.6c3.3,4.7,5.9,9.7,7.8,15.1h22.4l92.4-186l167.4,334.8l75-148.8h21.2c1.9-5.4,4.7-10.5,8.1-15.1
	c3.3-4.5,7.3-8.3,11.9-11.6c4.5-3.3,9.5-5.9,15.1-7.8C527.5,347.4,533.3,346.5,539.5,346.5z"/>
<path class="st0" d="M539.5,346.5c7.8,0,15,1.5,21.8,4.4s12.7,6.9,17.7,11.9c5,5,9,10.9,11.9,17.7s4.4,14,4.4,21.8
	c0,7.8-1.5,15-4.4,21.8c-2.9,6.8-6.9,12.7-11.9,17.7c-5,5-10.9,9-17.7,11.9s-14,4.4-21.8,4.4c-11.8,0-22.4-3.3-31.7-9.9
	c-9.3-6.4-16.1-14.8-20.3-25.3l-96.8,184L223.2,272.1l-66.9,148.8h-48c-1.9,5.4-4.6,10.4-7.8,14.8c-3.5,4.7-7.5,8.6-11.9,11.9
	c-4.7,3.3-9.8,5.8-15.4,7.6c-5.6,1.9-11.4,2.9-17.4,2.9c-7.8,0-15-1.5-21.8-4.4s-12.7-6.9-17.7-11.9c-5-5-9-10.9-11.9-17.7
	c-2.9-6.8-4.4-14-4.4-21.8c0-7.8,1.5-15,4.4-21.8s6.9-12.7,11.9-17.7c5-5,10.9-9,17.7-11.9s14-4.4,21.8-4.4c6,0,11.8,0.9,17.4,2.6
	c5.6,1.9,10.8,4.6,15.4,7.8c4.5,3.3,8.4,7.2,11.9,11.6c3.3,4.7,5.9,9.7,7.8,15.1h22.4l92.4-186l167.4,334.8l75-148.8h21.2
	c1.9-5.4,4.7-10.5,8.1-15.1c3.3-4.5,7.3-8.3,11.9-11.6c4.5-3.3,9.5-5.9,15.1-7.8C527.5,347.4,533.3,346.5,539.5,346.5z"/>
</svg>
