<?xml version="1.0" encoding="utf-8"?>
<!-- Generator: Adobe Illustrator 27.2.0, SVG Export Plug-In . SVG Version: 6.00 Build 0)  -->
<svg version="1.1" id="Calque_1" focusable="false" xmlns="http://www.w3.org/2000/svg" xmlns:xlink="http://www.w3.org/1999/xlink"
	 x="0px" y="0px" viewBox="0 0 1920 1080" style="enable-background:new 0 0 1920 1080;" xml:space="preserve">
<style type="text/css">
	.st0{fill:#FFFFFF;}
</style>
<path d="M1095.5,625.4c42.2,13.7,80.9,33.4,116,59.1c34.8,26,64.9,56.4,90.2,91.2s45,73.3,59.1,115.5c14.1,42.5,21.1,87.5,21.1,135
	h-53.8c0-52.4-9.3-101.1-27.9-146.1s-44.3-84-77-117.1c-33-32.7-72.1-58.4-117.1-77s-93.7-27.9-146.1-27.9
	c-51.7,0-99.8,9.5-144.5,28.5s-83.5,45-116.5,78c-33.4,33-59.6,71.9-78.6,116.5c-19,45-28.5,93.3-28.5,145h-53.8
	c0-47.5,7-92.5,21.1-135c14.1-42.2,33.8-80.7,59.1-115.5s55.5-65.2,90.7-91.2c34.8-25.7,73.3-45.4,115.5-59.1
	c-23.2-11.6-44.3-26-63.3-43.2c-19.3-16.9-36.2-36-50.6-57.5c-7,4.9-14.4,8.6-22.1,11.1c-8.1,2.8-16.5,4.2-25.3,4.2
	c-11.2,0-21.8-2.1-31.6-6.3s-18.5-10-25.8-17.4s-13.2-16-17.4-25.8s-6.3-20.4-6.3-31.6V296.9c0-11.2,2.1-21.8,6.3-31.6
	s10-18.5,17.4-25.8c7.4-7,16-12.7,25.8-16.9s20.4-6.3,31.6-6.3c10.5,0,20.4,1.8,29.5,5.3c12.3-24.3,27.8-46.4,46.4-66.4
	c18.3-20,39-37.4,62.2-52.2c22.9-14.4,47.8-25.7,74.9-33.8c26.7-7.7,54.7-11.6,83.8-11.6s57.3,3.9,84.4,11.6
	c26.7,8.1,51.7,19.3,74.9,33.8c22.9,14.8,43.6,32.2,62.2,52.2c18.3,20,33.6,42.2,45.9,66.4c9.1-3.5,19-5.3,29.5-5.3
	c11.2,0,21.8,2.1,31.6,6.3s18.5,9.8,25.8,16.9c7.4,7.4,13.2,16,17.4,25.8s6.3,20.4,6.3,31.6v161.9c0,11.2-2.1,21.8-6.3,31.6
	s-10,18.5-17.4,25.8s-16,13.2-25.8,17.4s-20.4,6.3-31.6,6.3c-8.8,0-17.1-1.4-24.8-4.2c-8.1-2.5-15.6-6.2-22.7-11.1
	c-14.4,21.4-31.1,40.6-50.1,57.5C1140,599.4,1118.7,613.8,1095.5,625.4 M1256.9,270c-7.4,0-13.7,2.6-19,7.9s-7.9,11.6-7.9,19v161.9
	c0,7.7,2.6,14.2,7.9,19.5s11.6,7.9,19,7.9s13.7-2.6,19-7.9s7.9-11.8,7.9-19.5V296.9c0-7.4-2.6-13.7-7.9-19S1264.3,270,1256.9,270
	 M690,296.9c0-7.4-2.6-13.7-7.9-19s-11.6-7.9-19-7.9s-13.7,2.6-19,7.9s-7.9,11.6-7.9,19v161.9c0,7.7,2.6,14.2,7.9,19.5
	s11.6,7.9,19,7.9s13.7-2.6,19-7.9s7.9-11.8,7.9-19.5 M749.6,486.2c10.9,17.6,23.9,33.6,39,48c14.8,14.8,31.1,27.2,49,37.4
	c17.9,10.5,37.3,18.6,58,24.3s42.2,8.4,64.3,8.4c23.6,0,46.2-3.2,68-9.5c21.4-6.3,41.5-15.3,60.1-26.9s35.5-25.5,50.6-41.7
	c15.1-15.8,27.9-33.4,38.5-52.7c-0.7-2.5-1.1-4.9-1.1-7.4c0-2.1,0-4.6,0-7.4V296.9c0-14.1,3.2-26.7,9.5-38
	c-9.5-21.8-21.8-41.8-36.9-60.1c-15.5-17.9-32.9-33.4-52.2-46.4c-19.7-13-41-23.2-63.8-30.6c-23.2-7-47.5-10.5-72.8-10.5
	s-49.4,3.5-72.2,10.5c-23.2,7.4-44.5,17.6-63.8,30.6c-19.7,13-37.1,28.5-52.2,46.4c-15.5,18.3-27.9,38.3-37.4,60.1
	c6.3,11.2,9.5,23.9,9.5,38v135h108.1c0-7.4,1.4-14.4,4.2-21.1c2.8-6.3,6.7-12,11.6-16.9s10.7-8.8,17.4-11.6s13.7-4.2,21.1-4.2
	s14.4,1.4,21.1,4.2c6.3,2.8,12,6.7,16.9,11.6s8.8,10.5,11.6,16.9c2.8,6.7,4.2,13.7,4.2,21.1s-1.4,14.4-4.2,21.1s-6.7,12.5-11.6,17.4
	s-10.5,8.8-16.9,11.6c-6.7,2.8-13.7,4.2-21.1,4.2H749.6z"/>
<path class="st0" d="M568.7,1026.2c0-52,9.1-101.1,27.4-147.1C614.1,833,639,792.2,671,756.7c31.6-35.5,69.1-64.5,112.3-87
	s90.2-36,140.8-40.6c-23.2-3.2-45.4-9.3-66.4-18.5c-21.1-8.8-40.6-20-58.5-33.8c-17.9-13.4-33.9-29-48-46.9
	c-14.4-17.6-26.4-36.7-35.9-57.5c-2.8,11.6-9,21.3-18.5,29c-9.8,7.7-21.1,11.6-33.8,11.6c-7.4,0-14.4-1.4-21.1-4.2
	s-12.5-6.7-17.4-11.6s-8.8-10.7-11.6-17.4s-4.2-13.7-4.2-21.1V296.9c0-7.4,1.4-14.4,4.2-21.1c2.8-6.3,6.7-12,11.6-16.9
	s10.7-8.8,17.4-11.6s13.7-4.2,21.1-4.2c9.1,0,17.4,1.9,24.8,5.8s13.5,9.1,18.5,15.8c9.5-25.7,22.7-49.4,39.6-71.2
	c16.5-21.4,35.9-40.1,58-55.9c21.8-15.5,46.1-27.6,72.8-36.4c26.4-8.8,54.1-13.2,83.3-13.2s57.1,4.4,83.8,13.2
	c26.4,8.8,50.6,20.9,72.8,36.4c21.8,15.8,41.1,34.5,58,55.9c16.5,21.8,29.5,45.5,39,71.2c4.9-6.7,11.1-12,18.5-15.8
	s15.6-5.8,24.8-5.8c7.4,0,14.4,1.4,21.1,4.2s12.5,6.7,17.4,11.6s8.8,10.5,11.6,16.9c2.8,6.7,4.2,13.7,4.2,21.1v161.9
	c0,7.4-1.4,14.4-4.2,21.1s-6.7,12.5-11.6,17.4s-10.7,8.8-17.4,11.6s-13.7,4.2-21.1,4.2c-12.7,0-23.7-3.9-33.2-11.6
	c-9.8-7.7-16.2-17.4-19-29c-9.5,20.7-21.3,39.9-35.3,57.5c-14.4,17.9-30.6,33.6-48.5,46.9c-17.9,13.7-37.4,25-58.5,33.8
	c-21.1,9.1-43.2,15.3-66.4,18.5c50.6,4.6,97.6,18.1,140.8,40.6s80.9,51.5,112.9,87c31.6,35.5,56.6,76.3,74.9,122.3
	c17.9,46.1,26.9,95.1,26.9,147.1H568.7z"/>
<path d="M1095.5,625.4c42.2,13.7,80.9,33.4,116,59.1c34.8,26,64.9,56.4,90.2,91.2s45,73.3,59.1,115.5c14.1,42.5,21.1,87.5,21.1,135
	h-53.8c0-52.4-9.3-101.1-27.9-146.1s-44.3-84-77-117.1c-33-32.7-72.1-58.4-117.1-77s-93.7-27.9-146.1-27.9
	c-51.7,0-99.8,9.5-144.5,28.5s-83.5,45-116.5,78c-33.4,33-59.6,71.9-78.6,116.5c-19,45-28.5,93.3-28.5,145h-53.8
	c0-47.5,7-92.5,21.1-135c14.1-42.2,33.8-80.7,59.1-115.5s55.5-65.2,90.7-91.2c34.8-25.7,73.3-45.4,115.5-59.1
	c-23.2-11.6-44.3-26-63.3-43.2c-19.3-16.9-36.2-36-50.6-57.5c-7,4.9-14.4,8.6-22.1,11.1c-8.1,2.8-16.5,4.2-25.3,4.2
	c-11.2,0-21.8-2.1-31.6-6.3s-18.5-10-25.8-17.4s-13.2-16-17.4-25.8s-6.3-20.4-6.3-31.6V296.9c0-11.2,2.1-21.8,6.3-31.6
	s10-18.5,17.4-25.8c7.4-7,16-12.7,25.8-16.9s20.4-6.3,31.6-6.3c10.5,0,20.4,1.8,29.5,5.3c12.3-24.3,27.8-46.4,46.4-66.4
	c18.3-20,39-37.4,62.2-52.2c22.9-14.4,47.8-25.7,74.9-33.8c26.7-7.7,54.7-11.6,83.8-11.6s57.3,3.9,84.4,11.6
	c26.7,8.1,51.7,19.3,74.9,33.8c22.9,14.8,43.6,32.2,62.2,52.2c18.3,20,33.6,42.2,45.9,66.4c9.1-3.5,19-5.3,29.5-5.3
	c11.2,0,21.8,2.1,31.6,6.3s18.5,9.8,25.8,16.9c7.4,7.4,13.2,16,17.4,25.8s6.3,20.4,6.3,31.6v161.9c0,11.2-2.1,21.8-6.3,31.6
	s-10,18.5-17.4,25.8s-16,13.2-25.8,17.4s-20.4,6.3-31.6,6.3c-8.8,0-17.1-1.4-24.8-4.2c-8.1-2.5-15.6-6.2-22.7-11.1
	c-14.4,21.4-31.1,40.6-50.1,57.5C1140,599.4,1118.7,613.8,1095.5,625.4 M1256.9,270c-7.4,0-13.7,2.6-19,7.9s-7.9,11.6-7.9,19v161.9
	c0,7.7,2.6,14.2,7.9,19.5s11.6,7.9,19,7.9s13.7-2.6,19-7.9s7.9-11.8,7.9-19.5V296.9c0-7.4-2.6-13.7-7.9-19S1264.3,270,1256.9,270
	 M690,296.9c0-7.4-2.6-13.7-7.9-19s-11.6-7.9-19-7.9s-13.7,2.6-19,7.9s-7.9,11.6-7.9,19v161.9c0,7.7,2.6,14.2,7.9,19.5
	s11.6,7.9,19,7.9s13.7-2.6,19-7.9s7.9-11.8,7.9-19.5 M749.6,486.2c10.9,17.6,23.9,33.6,39,48c14.8,14.8,31.1,27.2,49,37.4
	c17.9,10.5,37.3,18.6,58,24.3s42.2,8.4,64.3,8.4c23.6,0,46.2-3.2,68-9.5c21.4-6.3,41.5-15.3,60.1-26.9s35.5-25.5,50.6-41.7
	c15.1-15.8,27.9-33.4,38.5-52.7c-0.7-2.5-1.1-4.9-1.1-7.4c0-2.1,0-4.6,0-7.4V296.9c0-14.1,3.2-26.7,9.5-38
	c-9.5-21.8-21.8-41.8-36.9-60.1c-15.5-17.9-32.9-33.4-52.2-46.4c-19.7-13-41-23.2-63.8-30.6c-23.2-7-47.5-10.5-72.8-10.5
	s-49.4,3.5-72.2,10.5c-23.2,7.4-44.5,17.6-63.8,30.6c-19.7,13-37.1,28.5-52.2,46.4c-15.5,18.3-27.9,38.3-37.4,60.1
	c6.3,11.2,9.5,23.9,9.5,38v135h108.1c0-7.4,1.4-14.4,4.2-21.1c2.8-6.3,6.7-12,11.6-16.9s10.7-8.8,17.4-11.6s13.7-4.2,21.1-4.2
	s14.4,1.4,21.1,4.2c6.3,2.8,12,6.7,16.9,11.6s8.8,10.5,11.6,16.9c2.8,6.7,4.2,13.7,4.2,21.1s-1.4,14.4-4.2,21.1s-6.7,12.5-11.6,17.4
	s-10.5,8.8-16.9,11.6c-6.7,2.8-13.7,4.2-21.1,4.2H749.6z"/>
</svg>
