<?xml version="1.0" encoding="utf-8"?>
<!-- Generator: Adobe Illustrator 27.2.0, SVG Export Plug-In . SVG Version: 6.00 Build 0)  -->
<svg version="1.1" id="Calque_1" focusable="false" xmlns="http://www.w3.org/2000/svg" xmlns:xlink="http://www.w3.org/1999/xlink"
	 x="0px" y="0px" viewBox="0 0 1920 1080" style="enable-background:new 0 0 1920 1080;" xml:space="preserve">
<style type="text/css">
	.st0{fill:#FFFFFF;}
	.st1{fill:#4389C8;}
</style>
<path d="M1359.7,282.1c0,20.7-5.8,39.4-17.4,55.9c-11.6,16.9-27.1,29-46.4,36.4l-174,65.9v175.6l102.8,277.4
	c2.1,5.3,3.7,10.7,4.7,16.3c0.7,5.6,1.1,11.4,1.1,17.4c0,13.4-2.5,26-7.4,38c-5.3,12-12.3,22.3-21.1,31.1
	c-8.8,9.1-19.2,16.2-31.1,21.1c-12,5.3-24.6,7.9-38,7.9c-21.1,0-39.9-5.8-56.4-17.4c-16.9-11.2-29-26.9-36.4-46.9l-79.1-213
	l-80.7,213.6c-7.4,19.3-19.3,35-35.9,46.9s-35.3,17.9-56.4,17.9c-13.7,0-26.5-2.6-38.5-7.9s-22.3-12.5-31.1-21.6
	c-9.1-8.8-16.2-19.2-21.1-31.1c-5.3-12-7.9-24.6-7.9-38c0-11.6,1.9-22.9,5.8-33.8l102.8-277.9V440.3l-174.6-67
	c-19.3-7.4-34.6-19.3-45.9-35.9c-11.6-16.2-17.4-34.6-17.4-55.4c0-13.7,2.6-26.5,7.9-38.5c4.9-12,12-22.5,21.1-31.6
	c8.8-8.8,19.2-15.8,31.1-21.1c11.6-5.3,24.3-7.9,38-7.9c6.3,0,12.3,0.7,17.9,2.1s11.4,3,17.4,4.7l139.2,44.8
	c-5.3-14.8-7.9-30.1-7.9-45.9c0-18.6,3.5-36.2,10.5-52.7c7-16.2,16.7-30.4,29-42.7s26.7-22,43.2-29c16.2-7,33.6-10.5,52.2-10.5
	s36.2,3.5,52.7,10.5c16.2,7,30.4,16.7,42.7,29s22,26.5,29,42.7c7,16.5,10.5,34.1,10.5,52.7c0,15.8-2.6,31.1-7.9,45.9l139.7-45.4
	c6-1.8,11.6-3.3,16.9-4.7c5.3-1.1,10.9-1.6,16.9-1.6c13.7,0,26.5,2.6,38.5,7.9s22.5,12.3,31.6,21.1c8.8,9.1,15.8,19.7,21.1,31.6
	S1359.7,268.4,1359.7,282.1 M960,108.1c-11.2,0-21.8,2.1-31.6,6.3s-18.5,9.8-25.8,16.9c-7.4,7.4-13.2,16-17.4,25.8
	s-6.3,20.4-6.3,31.6s2.1,21.8,6.3,31.6s10,18.5,17.4,25.8s16,13.2,25.8,17.4s20.4,6.3,31.6,6.3s21.8-2.1,31.6-6.3s18.5-10,25.8-17.4
	s13.2-16,17.4-25.8s6.3-20.4,6.3-31.6s-2.1-21.8-6.3-31.6c-4.6-9.8-10.5-18.5-17.9-25.8c-7.4-7-16-12.7-25.8-16.9
	S970.9,108.1,960,108.1 M1305.9,282.7c0-12.7-4.4-23.4-13.2-32.2s-19.5-13.2-32.2-13.2c-4.6,0-9.8,0.9-15.8,2.6L1009,316.4
	c-8.1,2.8-16,4.9-23.7,6.3c-8.1,1.8-16.5,2.6-25.3,2.6c-9.1,0-17.6-0.9-25.3-2.6c-8.1-1.4-16.3-3.5-24.8-6.3l-234.1-75.9
	c-2.8-0.7-5.6-1.4-8.4-2.1s-5.6-1.1-8.4-1.1c-12.3,0-22.9,4.2-31.6,12.7c-8.8,8.8-13.2,19.3-13.2,31.6c0,9.1,2.6,17.6,7.9,25.3
	s12.1,13.2,20.6,16.3l192,73.3c5.3,1.8,9.5,4.9,12.7,9.5c3.2,4.9,4.7,10.2,4.7,15.8v199.3c0,1.8-1.4,6.9-4.2,15.3s-6.3,19-10.5,31.6
	c-4.6,12.7-9.8,26.9-15.8,42.7c-6,16.2-12,32.7-17.9,49.6c-6.3,16.9-12.7,33.6-19,50.1s-12.1,31.6-17.4,45.4
	c-5.3,14.1-9.7,26-13.2,35.9c-3.9,10.2-6.5,17.1-7.9,20.6c-1.8,5.3-2.6,10.2-2.6,14.8c0,6,1.2,11.6,3.7,16.9
	c2.1,5.6,5.3,10.4,9.5,14.2c3.9,4.2,8.4,7.6,13.7,10s11.1,3.7,17.4,3.7c9.5,0,18.1-2.6,25.8-7.9c7.7-4.9,13.2-12,16.3-21.1
	l78.6-214.1c3.9-10.9,10.5-19.7,20-26.4c9.5-6.3,20-9.5,31.6-9.5c11.2,0,21.8,3.2,31.6,9.5c9.8,6.7,16.7,15.5,20.6,26.4l78.6,213.6
	c3.2,8.4,8.6,15.3,16.3,20.6c7.4,5.6,15.6,8.4,24.8,8.4c12.3,0,22.9-4.4,31.6-13.2c8.8-8.4,13.2-18.8,13.2-31.1
	c0-4.9-0.9-10-2.6-15.3c-1.8-4.9-5.6-15.3-11.6-31.1c-6-15.5-12.8-33.6-20.6-54.3c-8.1-20.7-16.3-42.7-24.8-65.9
	c-8.8-23.2-16.7-44.8-23.7-64.9c-7.4-19.7-13.4-36.6-17.9-50.6c-4.9-13.7-7.4-21.6-7.4-23.7V421.9c0-5.6,1.6-10.9,4.7-15.8
	c3.2-4.6,7.4-7.7,12.7-9.5l191.4-72.2c8.4-3.2,15.5-8.6,21.1-16.3C1303.3,300.2,1305.9,291.8,1305.9,282.7z"/>
<path class="st0" d="M825,621.2V421.9l-192-73.3c-13.7-5.3-24.8-14.1-33.2-26.4s-12.7-25.8-12.7-40.6c0-9.8,1.9-19.2,5.8-27.9
	c3.5-8.4,8.6-16,15.3-22.7c6.3-6.3,13.9-11.4,22.7-15.3c8.4-3.5,17.6-5.3,27.4-5.3c4.9,0,9.5,0.4,13.7,1.1c3.9,1.1,7.9,2.3,12.1,3.7
	l235.2,75.9c7,2.1,13.9,3.9,20.6,5.3c6.3,1.4,13,2.1,20,2.1s13.9-0.7,20.6-2.1c6.3-1.4,13-3.2,20-5.3l234.7-75.9
	c4.2-1.4,8.4-2.6,12.7-3.7c3.9-0.7,8.3-1.1,13.2-1.1c9.8,0,19.2,1.9,27.9,5.8s16.5,9,23.2,15.3c6.3,6.7,11.4,14.4,15.3,23.2
	c3.5,8.8,5.3,18.1,5.3,27.9c0,14.8-4.2,28.3-12.7,40.6c-8.8,12.3-20,21.1-33.8,26.4L1095,421.9v199.3l104.4,281.6
	c2.8,8.4,4.2,16.5,4.2,24.3c0,9.8-1.8,19-5.3,27.4c-3.9,8.8-9,16.3-15.3,22.7c-6.7,6.7-14.2,11.8-22.7,15.3
	c-8.8,3.9-18.1,5.8-27.9,5.8c-15.1,0-28.8-4.4-41.1-13.2c-12.7-8.4-21.4-19.7-26.4-33.8l-78-213c-2.1-5.6-5.6-10.2-10.5-13.7
	c-4.9-3.2-10.4-4.7-16.3-4.7s-11.2,1.6-15.8,4.7c-4.9,3.5-8.4,8.1-10.5,13.7l-78.6,213.6c-5.3,14.4-13.9,25.8-25.8,34.3
	c-12,8.8-25.7,13.2-41.1,13.2c-9.8,0-19.2-1.9-27.9-5.8s-16.3-9.1-22.7-15.8c-6.7-6.3-11.8-13.9-15.3-22.7
	c-3.9-8.8-5.8-18.1-5.8-27.9c0-8.1,1.4-16,4.2-23.7 M960,81.2c14.8,0,28.8,2.8,42.2,8.4c13,5.6,24.4,13.2,34.3,22.7
	c9.8,9.8,17.6,21.3,23.2,34.3c5.6,13.4,8.4,27.4,8.4,42.2s-2.8,28.7-8.4,41.7c-5.6,13.4-13.4,25-23.2,34.8s-21.3,17.6-34.3,23.2
	c-13.4,5.6-27.4,8.4-42.2,8.4s-28.7-2.8-41.7-8.4c-13.4-5.6-25-13.4-34.8-23.2s-17.6-21.4-23.2-34.8c-5.6-13-8.4-26.9-8.4-41.7
	s2.8-28.8,8.4-42.2c5.6-13,13.4-24.4,23.2-34.3c9.8-9.5,21.4-17.1,34.8-22.7C931.3,84,945.2,81.2,960,81.2z"/>
<path class="st1" d="M1359.7,282.1c0,20.7-5.8,39.4-17.4,55.9c-11.6,16.9-27.1,29-46.4,36.4l-174,65.9v175.6l102.8,277.4
	c2.1,5.3,3.7,10.7,4.7,16.3c0.7,5.6,1.1,11.4,1.1,17.4c0,13.4-2.5,26-7.4,38c-5.3,12-12.3,22.3-21.1,31.1
	c-8.8,9.1-19.2,16.2-31.1,21.1c-12,5.3-24.6,7.9-38,7.9c-21.1,0-39.9-5.8-56.4-17.4c-16.9-11.2-29-26.9-36.4-46.9l-79.1-213
	l-80.7,213.6c-7.4,19.3-19.3,35-35.9,46.9s-35.3,17.9-56.4,17.9c-13.7,0-26.5-2.6-38.5-7.9s-22.3-12.5-31.1-21.6
	c-9.1-8.8-16.2-19.2-21.1-31.1c-5.3-12-7.9-24.6-7.9-38c0-11.6,1.9-22.9,5.8-33.8l102.8-277.9V440.3l-174.6-67
	c-19.3-7.4-34.6-19.3-45.9-35.9c-11.6-16.2-17.4-34.6-17.4-55.4c0-13.7,2.6-26.5,7.9-38.5c4.9-12,12-22.5,21.1-31.6
	c8.8-8.8,19.2-15.8,31.1-21.1c11.6-5.3,24.3-7.9,38-7.9c6.3,0,12.3,0.7,17.9,2.1s11.4,3,17.4,4.7l139.2,44.8
	c-5.3-14.8-7.9-30.1-7.9-45.9c0-18.6,3.5-36.2,10.5-52.7c7-16.2,16.7-30.4,29-42.7s26.7-22,43.2-29c16.2-7,33.6-10.5,52.2-10.5
	s36.2,3.5,52.7,10.5c16.2,7,30.4,16.7,42.7,29s22,26.5,29,42.7c7,16.5,10.5,34.1,10.5,52.7c0,15.8-2.6,31.1-7.9,45.9l139.7-45.4
	c6-1.8,11.6-3.3,16.9-4.7c5.3-1.1,10.9-1.6,16.9-1.6c13.7,0,26.5,2.6,38.5,7.9s22.5,12.3,31.6,21.1c8.8,9.1,15.8,19.7,21.1,31.6
	S1359.7,268.4,1359.7,282.1 M960,108.1c-11.2,0-21.8,2.1-31.6,6.3s-18.5,9.8-25.8,16.9c-7.4,7.4-13.2,16-17.4,25.8
	s-6.3,20.4-6.3,31.6s2.1,21.8,6.3,31.6s10,18.5,17.4,25.8s16,13.2,25.8,17.4s20.4,6.3,31.6,6.3s21.8-2.1,31.6-6.3s18.5-10,25.8-17.4
	s13.2-16,17.4-25.8s6.3-20.4,6.3-31.6s-2.1-21.8-6.3-31.6c-4.6-9.8-10.5-18.5-17.9-25.8c-7.4-7-16-12.7-25.8-16.9
	S970.9,108.1,960,108.1 M1305.9,282.7c0-12.7-4.4-23.4-13.2-32.2s-19.5-13.2-32.2-13.2c-4.6,0-9.8,0.9-15.8,2.6L1009,316.4
	c-8.1,2.8-16,4.9-23.7,6.3c-8.1,1.8-16.5,2.6-25.3,2.6c-9.1,0-17.6-0.9-25.3-2.6c-8.1-1.4-16.3-3.5-24.8-6.3l-234.1-75.9
	c-2.8-0.7-5.6-1.4-8.4-2.1s-5.6-1.1-8.4-1.1c-12.3,0-22.9,4.2-31.6,12.7c-8.8,8.8-13.2,19.3-13.2,31.6c0,9.1,2.6,17.6,7.9,25.3
	s12.1,13.2,20.6,16.3l192,73.3c5.3,1.8,9.5,4.9,12.7,9.5c3.2,4.9,4.7,10.2,4.7,15.8v199.3c0,1.8-1.4,6.9-4.2,15.3s-6.3,19-10.5,31.6
	c-4.6,12.7-9.8,26.9-15.8,42.7c-6,16.2-12,32.7-17.9,49.6c-6.3,16.9-12.7,33.6-19,50.1s-12.1,31.6-17.4,45.4
	c-5.3,14.1-9.7,26-13.2,35.9c-3.9,10.2-6.5,17.1-7.9,20.6c-1.8,5.3-2.6,10.2-2.6,14.8c0,6,1.2,11.6,3.7,16.9
	c2.1,5.6,5.3,10.4,9.5,14.2c3.9,4.2,8.4,7.6,13.7,10s11.1,3.7,17.4,3.7c9.5,0,18.1-2.6,25.8-7.9c7.7-4.9,13.2-12,16.3-21.1
	l78.6-214.1c3.9-10.9,10.5-19.7,20-26.4c9.5-6.3,20-9.5,31.6-9.5c11.2,0,21.8,3.2,31.6,9.5c9.8,6.7,16.7,15.5,20.6,26.4l78.6,213.6
	c3.2,8.4,8.6,15.3,16.3,20.6c7.4,5.6,15.6,8.4,24.8,8.4c12.3,0,22.9-4.4,31.6-13.2c8.8-8.4,13.2-18.8,13.2-31.1
	c0-4.9-0.9-10-2.6-15.3c-1.8-4.9-5.6-15.3-11.6-31.1c-6-15.5-12.8-33.6-20.6-54.3c-8.1-20.7-16.3-42.7-24.8-65.9
	c-8.8-23.2-16.7-44.8-23.7-64.9c-7.4-19.7-13.4-36.6-17.9-50.6c-4.9-13.7-7.4-21.6-7.4-23.7V421.9c0-5.6,1.6-10.9,4.7-15.8
	c3.2-4.6,7.4-7.7,12.7-9.5l191.4-72.2c8.4-3.2,15.5-8.6,21.1-16.3C1303.3,300.2,1305.9,291.8,1305.9,282.7z"/>
</svg>
