<?xml version="1.0" encoding="utf-8"?>
<!-- Generator: Adobe Illustrator 27.2.0, SVG Export Plug-In . SVG Version: 6.00 Build 0)  -->
<svg version="1.1" id="Calque_1" focusable="false" xmlns="http://www.w3.org/2000/svg" xmlns:xlink="http://www.w3.org/1999/xlink"
	 x="0px" y="0px" viewBox="0 0 1920 1080" style="enable-background:new 0 0 1920 1080;" xml:space="preserve">
<style type="text/css">
	.st0{fill:#4389C8;}
</style>
<path d="M1395.6,476.7c-1.1,1.4-3.5,4.2-7.4,8.4s-8.1,8.8-12.7,13.7c-4.9,4.9-9.7,9.5-14.2,13.7c-4.9,4.6-8.6,7.7-11.1,9.5
	L1038,734.6c7.4,10.9,13.2,22.7,17.4,35.3c3.9,12.7,5.8,26,5.8,40.1c0,18.6-3.5,36-10.5,52.2c-7,16.5-16.7,30.9-29,43.2
	s-26.5,22-42.7,29c-16.5,7-34.1,10.5-52.7,10.5c-23.2,0-44.3-5.3-63.3-15.8c-19.3-10.5-35.2-24.8-47.5-42.7l-70.7,48
	c-2.5,1.8-4.7,3.3-6.9,4.7c-2.5,1.4-4.7,2.8-6.9,4.2c-2.1,1.8-4.7,3.7-7.9,5.8c-3.5,2.5-8.1,5.8-13.7,10c-6,4.6-13.4,10.7-22.1,18.5
	c-9.1,8.1-20.2,18.6-33.2,31.6L487.5,842.7c0.7-0.7,2.8-2.6,6.3-5.8c3.5-2.8,7.4-6.3,11.6-10.5c4.2-3.9,8.4-7.9,12.7-12.1
	c3.9-4.2,6.9-8.1,9-11.6l451.4-659.7c1.4-2.1,4-5.1,7.9-9c3.5-3.5,7.4-7.4,11.6-11.6c4.2-3.9,8.4-7.7,12.7-11.6c3.9-3.9,7-7,9.5-9.5
	 M1027.5,810c0-10.5-1.4-20.6-4.2-30.1c-3.2-9.5-7.6-18.3-13.2-26.4L842.9,867.5c9.1,13.4,21.1,23.9,35.9,31.6
	c14.4,8.1,30.2,12.1,47.5,12.1c14.1,0,27.2-2.6,39.6-7.9s23-12.5,32.2-21.6s16.3-19.9,21.6-32.2S1027.5,824.1,1027.5,810
	 M1331.2,493.6c0.7-0.4,2.3-1.8,4.7-4.2l12.1-12.1l-328.5-329.1c-3.2,3.2-6,6.2-8.4,9c-2.8,3.2-4.6,4.9-5.3,5.3L556.1,820.5
	c-2.5,3.5-5.1,6.9-7.9,10c-3.2,3.5-7.2,7.7-12.1,12.7l117.6,118.1c3.5-3.2,6.9-6.3,10-9.5c2.8-3.2,6.3-6.3,10.5-9.5l13.2-9.5
	c4.2-2.8,8.8-6.2,13.7-10c4.9-3.5,13.2-8.8,24.8-15.8 M1230,168.8h-33.8V0h33.8 M1331.2,270H1500v33.8h-168.8 M1285.4,190.4
	L1471,4.7l24.3,24.3l-185.6,185.6L1285.4,190.4z"/>
<path d="M511.8,842.7c2.1-1.8,4.7-4.2,7.9-7.4c2.8-2.8,5.8-5.8,9-9s6-6.2,8.4-9c2.5-2.5,4-4.4,4.7-5.8l450.4-659.2
	c0.7-0.7,3-3,6.9-6.9c3.5-3.9,7.2-7.6,11.1-11.1l10-9.5l351.7,352.3c-9.1,10.9-16.7,18.8-22.7,23.7c-6.3,5.3-9.1,7.6-8.4,6.9
	L735.4,920.7c-6,3.9-10.9,7-14.8,9.5c-3.9,2.8-7,5.1-9.5,6.9c-2.8,2.1-5.3,3.9-7.4,5.3s-4.2,2.8-6.3,4.2l-13.2,9.5
	c-3.9,2.8-7.6,6-11.1,9.5c-3.5,3.9-7.2,7.7-11.1,11.6l-7.9,8.4L511.8,842.7z"/>
<path d="M1395.6,476.7c-1.1,1.4-3.5,4.2-7.4,8.4s-8.1,8.8-12.7,13.7c-4.9,4.9-9.7,9.5-14.2,13.7c-4.9,4.6-8.6,7.7-11.1,9.5
	L1038,734.6c7.4,10.9,13.2,22.7,17.4,35.3c3.9,12.7,5.8,26,5.8,40.1c0,18.6-3.5,36-10.5,52.2c-7,16.5-16.7,30.9-29,43.2
	s-26.5,22-42.7,29c-16.5,7-34.1,10.5-52.7,10.5c-23.2,0-44.3-5.3-63.3-15.8c-19.3-10.5-35.2-24.8-47.5-42.7l-70.7,48
	c-2.5,1.8-4.7,3.3-6.9,4.7c-2.5,1.4-4.7,2.8-6.9,4.2c-2.1,1.8-4.7,3.7-7.9,5.8c-3.5,2.5-8.1,5.8-13.7,10c-6,4.6-13.4,10.7-22.1,18.5
	c-9.1,8.1-20.2,18.6-33.2,31.6L487.5,842.7c0.7-0.7,2.8-2.6,6.3-5.8c3.5-2.8,7.4-6.3,11.6-10.5c4.2-3.9,8.4-7.9,12.7-12.1
	c3.9-4.2,6.9-8.1,9-11.6l451.4-659.7c1.4-2.1,4-5.1,7.9-9c3.5-3.5,7.4-7.4,11.6-11.6c4.2-3.9,8.4-7.7,12.7-11.6c3.9-3.9,7-7,9.5-9.5
	 M1027.5,810c0-10.5-1.4-20.6-4.2-30.1c-3.2-9.5-7.6-18.3-13.2-26.4L842.9,867.5c9.1,13.4,21.1,23.9,35.9,31.6
	c14.4,8.1,30.2,12.1,47.5,12.1c14.1,0,27.2-2.6,39.6-7.9s23-12.5,32.2-21.6s16.3-19.9,21.6-32.2S1027.5,824.1,1027.5,810
	 M1331.2,493.6c0.7-0.4,2.3-1.8,4.7-4.2l12.1-12.1l-328.5-329.1c-3.2,3.2-6,6.2-8.4,9c-2.8,3.2-4.6,4.9-5.3,5.3L556.1,820.5
	c-2.5,3.5-5.1,6.9-7.9,10c-3.2,3.5-7.2,7.7-12.1,12.7l117.6,118.1c3.5-3.2,6.9-6.3,10-9.5c2.8-3.2,6.3-6.3,10.5-9.5l13.2-9.5
	c4.2-2.8,8.8-6.2,13.7-10c4.9-3.5,13.2-8.8,24.8-15.8L1331.2,493.6z"/>
<path class="st0" d="M1230,168.8h-33.8V0h33.8 M1331.2,270H1500v33.8h-168.8 M1285.4,190.4L1471,4.7l24.3,24.3l-185.6,185.6
	L1285.4,190.4z"/>
</svg>
