<?xml version="1.0" encoding="utf-8"?>
<!-- Generator: Adobe Illustrator 27.2.0, SVG Export Plug-In . SVG Version: 6.00 Build 0)  -->
<svg version="1.1" id="Calque_1" focusable="false" xmlns="http://www.w3.org/2000/svg" xmlns:xlink="http://www.w3.org/1999/xlink"
	 x="0px" y="0px" viewBox="0 0 1920 1080" style="enable-background:new 0 0 1920 1080;" xml:space="preserve">
<style type="text/css">
	.st0{fill:#FFFFFF;}
</style>
<path d="M798.1,756.2c-37.3,0-72.2,7-104.9,21.1s-61.2,33.2-85.4,57.5c-24.6,24.6-43.9,53.3-58,86c-14.4,33-21.6,68.2-21.6,105.5
	h-54.3c0-34.8,5.3-68,15.8-99.7c10.2-31.6,24.6-60.6,43.2-87s41-49.6,67-69.6c25.7-19.7,53.8-35.3,84.4-46.9
	c-15.5-9.5-29.4-20.7-41.7-33.8c-12.7-13-23.4-27.4-32.2-43.2c-9.1-15.5-16.2-32.2-21.1-50.1s-7.4-36.6-7.4-55.9
	c0-29.9,5.6-58,16.9-84.4c11.2-26,26.7-48.9,46.4-68.6c19.3-19.3,42.2-34.8,68.6-46.4c26.4-11.2,54.5-16.9,84.4-16.9
	s58,5.6,84.4,16.9c26,11.6,48.9,27.1,68.6,46.4c19.3,19.7,34.6,42.5,45.9,68.6c11.2,26.4,16.9,54.5,16.9,84.4
	c0,19.3-2.5,38-7.4,55.9s-11.8,34.6-20.6,50.1c-9.1,15.8-19.9,30.2-32.2,43.2c-12.7,13-26.7,24.3-42.2,33.8
	c30.6,11.6,58.9,27.2,84.9,46.9c25.7,20,47.8,43.2,66.4,69.6s33.2,55.4,43.8,87c10.2,31.6,15.3,64.9,15.3,99.7h-53.8
	c0-37.3-7-72.4-21.1-105.5c-14.4-32.7-33.8-61.3-58-86c-24.6-24.3-53.3-43.4-86-57.5S835.4,756.2,798.1,756.2 M636.2,540
	c0,22.1,4.2,43.1,12.7,62.8s20,36.9,34.8,51.7c14.4,14.8,31.5,26.4,51.2,34.8s40.8,12.7,63.3,12.7c22.1,0,43.1-4.2,62.8-12.7
	s36.9-20,51.7-34.8s26.4-32,34.8-51.7S960,562.1,960,540s-4.2-43.1-12.7-62.8s-20-36.9-34.8-51.7s-32-26.4-51.7-34.8
	s-40.6-12.7-62.8-12.7c-22.5,0-43.6,4.2-63.3,12.7s-36.7,20-51.2,34.8c-14.8,14.8-26.4,32-34.8,51.7S636.2,517.9,636.2,540
	 M1446.2,53.8V540h-108.1l-216.2,161.9V540h-53.8c0-17.6-1.9-35.5-5.8-53.8h113.9v107.6l144-107.6h71.7V108.1H798.1V270
	c-9.1,0-18.1,0.4-26.9,1.1c-9.1,1.1-18.3,2.5-27.4,4.2V53.8H1446.2z"/>
<path class="st0" d="M1418.8,81.2v431.9h-89.6l-180.4,135v-135h-80.7c-3.5-34.1-13-65.9-28.5-95.4s-35.2-55.2-59.1-77
	c-24.3-21.8-52-39-83.3-51.7s-64.3-19-99.1-19c-3.2,0-6.2-0.2-9-0.5c-3.2,0-6.2,0-9,0c-1.8,0-3.2,0-4.2,0c-1.4,0-3,0.2-4.7,0.5V81.2
	 M986.9,540c0,26-4.9,50.3-14.8,72.8c-9.8,22.9-23.4,42.5-40.6,59.1c-17.2,16.9-37.3,30.1-60.1,39.6s-47.3,14.2-73.3,14.2
	s-50.4-4.7-73.3-14.2c-23.2-9.5-43.4-22.7-60.6-39.6c-17.2-16.5-30.8-36.2-40.6-59.1c-9.8-22.5-14.8-46.8-14.8-72.8
	s4.9-50.6,14.8-73.8c9.8-22.9,23.4-42.9,40.6-60.1c17.2-16.9,37.4-30.2,60.6-40.1c22.9-9.8,47.3-14.8,73.3-14.8s50.4,4.9,73.3,14.8
	s42.9,23.2,60.1,40.1c17.2,17.2,30.8,37.3,40.6,60.1C982,489.4,986.9,514,986.9,540 M798.1,732.5c40.8,0,79.3,7.6,115.5,22.7
	c35.9,15.5,67.3,36.4,94.4,62.8c26.7,26.4,48,57.3,63.8,92.8c15.5,35.9,23.2,74.4,23.2,115.5H501.2c0-27.4,3.5-53.8,10.5-79.1
	c7-25,17.1-48.3,30.1-70.1c12.7-21.8,28.1-41.7,46.4-59.6c17.9-17.6,38-32.7,60.1-45.4c21.8-12.7,45.4-22.5,70.7-29.5
	C744.3,735.8,770.7,732.5,798.1,732.5z"/>
<path d="M798.1,756.2c-37.3,0-72.2,7-104.9,21.1s-61.2,33.2-85.4,57.5c-24.6,24.6-43.9,53.3-58,86c-14.4,33-21.6,68.2-21.6,105.5
	h-54.3c0-34.8,5.3-68,15.8-99.7c10.2-31.6,24.6-60.6,43.2-87s41-49.6,67-69.6c25.7-19.7,53.8-35.3,84.4-46.9
	c-15.5-9.5-29.4-20.7-41.7-33.8c-12.7-13-23.4-27.4-32.2-43.2c-9.1-15.5-16.2-32.2-21.1-50.1s-7.4-36.6-7.4-55.9
	c0-29.9,5.6-58,16.9-84.4c11.2-26,26.7-48.9,46.4-68.6c19.3-19.3,42.2-34.8,68.6-46.4c26.4-11.2,54.5-16.9,84.4-16.9
	s58,5.6,84.4,16.9c26,11.6,48.9,27.1,68.6,46.4c19.3,19.7,34.6,42.5,45.9,68.6c11.2,26.4,16.9,54.5,16.9,84.4
	c0,19.3-2.5,38-7.4,55.9s-11.8,34.6-20.6,50.1c-9.1,15.8-19.9,30.2-32.2,43.2c-12.7,13-26.7,24.3-42.2,33.8
	c30.6,11.6,58.9,27.2,84.9,46.9c25.7,20,47.8,43.2,66.4,69.6s33.2,55.4,43.8,87c10.2,31.6,15.3,64.9,15.3,99.7h-53.8
	c0-37.3-7-72.4-21.1-105.5c-14.4-32.7-33.8-61.3-58-86c-24.6-24.3-53.3-43.4-86-57.5S835.4,756.2,798.1,756.2 M636.2,540
	c0,22.1,4.2,43.1,12.7,62.8s20,36.9,34.8,51.7c14.4,14.8,31.5,26.4,51.2,34.8s40.8,12.7,63.3,12.7c22.1,0,43.1-4.2,62.8-12.7
	s36.9-20,51.7-34.8s26.4-32,34.8-51.7S960,562.1,960,540s-4.2-43.1-12.7-62.8s-20-36.9-34.8-51.7s-32-26.4-51.7-34.8
	s-40.6-12.7-62.8-12.7c-22.5,0-43.6,4.2-63.3,12.7s-36.7,20-51.2,34.8c-14.8,14.8-26.4,32-34.8,51.7S636.2,517.9,636.2,540
	 M1446.2,53.8V540h-108.1l-216.2,161.9V540h-53.8c0-17.6-1.9-35.5-5.8-53.8h113.9v107.6l144-107.6h71.7V108.1H798.1V270
	c-9.1,0-18.1,0.4-26.9,1.1c-9.1,1.1-18.3,2.5-27.4,4.2V53.8H1446.2z"/>
</svg>
