<?xml version="1.0" encoding="utf-8"?>
<!-- Generator: Adobe Illustrator 27.2.0, SVG Export Plug-In . SVG Version: 6.00 Build 0)  -->
<svg version="1.1" id="Calque_1" focusable="false" xmlns="http://www.w3.org/2000/svg" xmlns:xlink="http://www.w3.org/1999/xlink"
	 x="0px" y="0px" viewBox="0 0 1920 1080" style="enable-background:new 0 0 1920 1080;" xml:space="preserve">
<style type="text/css">
	.st0{fill:#FFFFFF;}
	.st1{fill:#4389C8;}
</style>
<path d="M1338.1,161.9h-810V810h-54.3V108.1h864.3 M781.8,756.2c4.6,18.6,10.9,36.6,19,53.8H690V323.8h648.1v137.6
	c-16.5-18.6-34.6-35-54.3-49v-34.3h-59.6c-20-8.8-40.8-15.5-62.2-20s-43.8-6.9-67-6.9s-45.5,2.3-67,6.9s-42.2,11.2-62.2,20h-222
	v378.1 M1493.7,1041.5c4.2,4.9,6.3,10.4,6.3,16.3c0,6.3-2.3,11.6-6.9,15.8s-9.8,6.3-15.8,6.3c-6.3,0-11.6-2.1-15.8-6.3l-212-212.5
	c-21.1,17.6-44.6,31.5-70.7,41.7s-54,15.3-83.8,15.3c-33.8,0-65.4-6.3-94.9-19s-55.2-30.1-77-52.2c-22.1-21.8-39.6-47.5-52.2-77
	s-19-61.2-19-94.9s6.3-65.4,19-94.9s30.1-55.4,52.2-77.5c21.8-21.8,47.5-39,77-51.7s61.2-19,94.9-19s65.4,6.3,94.9,19
	s55.4,29.9,77.5,51.7c21.8,22.1,39,48,51.7,77.5s19,61.2,19,94.9c0,29.9-5.1,57.8-15.3,83.8s-24.1,49.6-41.7,70.7 M1095,863.8
	c26,0,50.6-4.9,73.8-14.8c22.9-9.8,42.9-23.4,60.1-40.6c16.9-16.9,30.2-36.9,40.1-60.1c9.8-22.9,14.8-47.3,14.8-73.3
	s-4.9-50.6-14.8-73.8c-9.8-22.9-23.2-42.9-40.1-60.1c-17.2-16.9-37.3-30.2-60.1-40.1c-23.2-9.8-47.8-14.8-73.8-14.8
	s-50.4,4.9-73.3,14.8c-23.2,9.8-43.2,23.2-60.1,40.1c-17.2,17.2-30.8,37.3-40.6,60.1c-9.8,23.2-14.8,47.8-14.8,73.8
	s4.9,50.4,14.8,73.3c9.8,23.2,23.4,43.2,40.6,60.1c16.9,17.2,36.9,30.8,60.1,40.6C1044.6,858.9,1069,863.8,1095,863.8 M832.4,863.8
	c14.1,19.7,30.4,37.8,49,54.3H581.9V216.2h864.3v663.4l-54.3-53.8v-23.7c8.8-20,15.5-40.8,20-62.2c4.6-21.1,6.9-42.7,6.9-64.9
	c0-23.2-2.3-45.5-6.9-67s-11.2-42.2-20-62.2V270H636.2v593.8H832.4z"/>
<path class="st0" d="M771.2,675c0,41.5,7.4,80.7,22.1,117.6s35,69.8,60.6,98.6H608.8V243.1h810V675c0-29.9-3.9-58.7-11.6-86.5
	c-7.7-27.4-18.6-53.1-32.7-77s-30.9-45.7-50.6-65.4s-41.5-36.6-65.4-50.6s-49.6-25-77-32.7c-27.8-7.7-56.6-11.6-86.5-11.6
	s-58.5,3.9-86,11.6c-27.8,7.7-53.6,18.6-77.5,32.7s-45.7,30.9-65.4,50.6s-36.6,41.5-50.6,65.4s-25,49.6-32.7,77
	C775.1,616.3,771.2,645.1,771.2,675 M1095,891.2c-29.9,0-57.8-5.8-83.8-17.4c-26.4-11.2-49.2-26.7-68.6-46.4
	c-19.7-19.3-35.2-42.2-46.4-68.6c-11.6-26-17.4-54-17.4-83.8s5.8-58,17.4-84.4c11.2-26,26.7-48.9,46.4-68.6
	c19.3-19.3,42.2-34.8,68.6-46.4c26-11.2,54-16.9,83.8-16.9s58,5.6,84.4,16.9c26,11.6,48.9,27.1,68.6,46.4
	c19.3,19.7,34.8,42.5,46.4,68.6c11.2,26.4,16.9,54.5,16.9,84.4s-5.6,57.8-16.9,83.8c-11.6,26.4-27.1,49.2-46.4,68.6
	c-19.7,19.7-42.5,35.2-68.6,46.4C1153,885.4,1124.9,891.2,1095,891.2z"/>
<path d="M781.8,756.2c4.6,18.6,10.9,36.6,19,53.8H690V323.8h648.1v137.6c-16.5-18.6-34.6-35-54.3-49v-34.3h-59.6
	c-20-8.8-40.8-15.5-62.2-20s-43.8-6.9-67-6.9s-45.5,2.3-67,6.9s-42.2,11.2-62.2,20h-222v378.1H781.8z"/>
<path d="M1338.1,161.9h-810V810h-54.3V108.1h864.3 M832.4,863.8c14.1,19.7,30.4,37.8,49,54.3H581.9V216.2h864.3v663.4l-54.3-53.8
	v-23.7c8.8-20,15.5-40.8,20-62.2c4.6-21.1,6.9-42.7,6.9-64.9c0-23.2-2.3-45.5-6.9-67s-11.2-42.2-20-62.2V270H636.2v593.8H832.4z"/>
<path class="st1" d="M1493.7,1041.5c4.2,4.9,6.3,10.4,6.3,16.3c0,6.3-2.3,11.6-6.9,15.8s-9.8,6.3-15.8,6.3c-6.3,0-11.6-2.1-15.8-6.3
	l-212-212.5c-21.1,17.6-44.6,31.5-70.7,41.7s-54,15.3-83.8,15.3c-33.8,0-65.4-6.3-94.9-19s-55.2-30.1-77-52.2
	c-22.1-21.8-39.6-47.5-52.2-77s-19-61.2-19-94.9s6.3-65.4,19-94.9s30.1-55.4,52.2-77.5c21.8-21.8,47.5-39,77-51.7s61.2-19,94.9-19
	s65.4,6.3,94.9,19s55.4,29.9,77.5,51.7c21.8,22.1,39,48,51.7,77.5s19,61.2,19,94.9c0,29.9-5.1,57.8-15.3,83.8s-24.1,49.6-41.7,70.7
	 M1095,863.8c26,0,50.6-4.9,73.8-14.8c22.9-9.8,42.9-23.4,60.1-40.6c16.9-16.9,30.2-36.9,40.1-60.1c9.8-22.9,14.8-47.3,14.8-73.3
	s-4.9-50.6-14.8-73.8c-9.8-22.9-23.2-42.9-40.1-60.1c-17.2-16.9-37.3-30.2-60.1-40.1c-23.2-9.8-47.8-14.8-73.8-14.8
	s-50.4,4.9-73.3,14.8c-23.2,9.8-43.2,23.2-60.1,40.1c-17.2,17.2-30.8,37.3-40.6,60.1c-9.8,23.2-14.8,47.8-14.8,73.8
	s4.9,50.4,14.8,73.3c9.8,23.2,23.4,43.2,40.6,60.1c16.9,17.2,36.9,30.8,60.1,40.6C1044.6,858.9,1069,863.8,1095,863.8z"/>
</svg>
