<?xml version="1.0" encoding="utf-8"?>
<!-- Generator: Adobe Illustrator 27.2.0, SVG Export Plug-In . SVG Version: 6.00 Build 0)  -->
<svg version="1.1" id="Layer_1" focusable="false" xmlns="http://www.w3.org/2000/svg" xmlns:xlink="http://www.w3.org/1999/xlink"
	 x="0px" y="0px" viewBox="0 0 595.3 841.9" style="enable-background:new 0 0 595.3 841.9;" xml:space="preserve">
<style type="text/css">
	.st0{fill:#4289C8;}
</style>
<path d="M357.2,599.4l-42.1-112.2H128.5L87.8,599.4h-43l158.7-416.5h38.9l157.8,416.5 M222.4,226.5h-1.2c-1,5-2.1,10-3.5,14.8
	s-2.9,9.7-4.7,14.5L141.6,452H302l-71.8-196.2C226.7,245.2,224.1,235.4,222.4,226.5 M544.4,272.1l-54.9-54.9l-54.9,54.9l-20.9-20.9
	l75.9-76.2l76.2,75.9L544.4,272.1z"/>
<path d="M357.2,599.4l-42.1-112.2H128.5L87.8,599.4h-43l158.7-416.5h38.9l157.8,416.5 M222.4,226.5h-1.2c-1,5-2.1,10-3.5,14.8
	s-2.9,9.7-4.7,14.5L141.6,452H302l-71.8-196.2C226.7,245.2,224.1,235.4,222.4,226.5z"/>
<path class="st0" d="M544.4,272.1l-54.9-54.9l-54.9,54.9l-20.9-20.9l75.9-76.2l76.2,75.9L544.4,272.1z"/>
</svg>
