<?xml version="1.0" encoding="utf-8"?>
<!-- Generator: Adobe Illustrator 27.2.0, SVG Export Plug-In . SVG Version: 6.00 Build 0)  -->
<svg version="1.1" id="Calque_1" focusable="false" xmlns="http://www.w3.org/2000/svg" xmlns:xlink="http://www.w3.org/1999/xlink"
	 x="0px" y="0px" viewBox="0 0 1920 1080" style="enable-background:new 0 0 1920 1080;" xml:space="preserve">
<style type="text/css">
	.st0{fill:#FFFF54;stroke:#FFFFFF;stroke-miterlimit:10;}
	.st1{fill:#797774;}
	.st2{fill:#FFFFFF;}
</style>
<path d="M1500,810v270H420V810 M808.7,759.4H528.1L668.4,666l23.2-132.9l443.5-444c11.2-11.2,24.4-19.7,39.6-25.3
	c14.8-5.6,30.1-8.4,45.9-8.4c15.5,0,30.8,2.8,45.9,8.4s28.3,14.1,39.6,25.3l32.7,33.2c11.2,11.2,20,24.1,26.4,38.5
	c6,14.8,9,30.4,9,46.9c0,16.2-3,31.5-9,45.9c-6.3,14.8-15.1,27.8-26.4,39L922.6,713H808.7 M795.5,505.2l127.1,127.6l378.1-378.1
	c13-13,19.5-28.7,19.5-46.9c0-18.6-6.5-34.5-19.5-47.5l-33.2-33.2c-13-12.3-28.7-18.5-46.9-18.5c-8.8,0-17.2,1.6-25.3,4.7
	c-8.4,3.2-15.8,7.9-22.1,14.2L795.5,505.2z"/>
<path d="M446.9,1053.1V836.9h1026.2v216.2H446.9z"/>
<path d="M1500,810v270H420V810 M1446.2,863.8H473.8v162.4h972.4V863.8z"/>
<path class="st0" d="M1500,810v270H420V810H1500z"/>
<path class="st1" d="M528.1,759.4L668.4,666l23.2-132.9l59.1-59.1l171.9,235.2H808.7v50.1H528.1V759.4z"/>
<path class="st2" d="M757,505.2l397.1-397.1c8.8-8.8,19-15.5,30.6-20s23.6-6.9,35.9-6.9s24.3,2.3,35.9,6.9
	c11.2,4.6,21.3,11.2,30.1,20l33.2,33.2c18.3,18.3,27.4,40.4,27.4,66.4c0,12.7-2.3,24.6-6.9,35.9c-4.9,11.2-11.8,21.3-20.6,30.1
	L922.6,670.8L757,505.2z"/>
<path d="M922.6,709.3L719,505.2l416.1-416.1c11.2-11.2,24.4-19.7,39.6-25.3c14.8-5.6,30.1-8.4,45.9-8.4s31.3,2.8,46.4,8.4
	c14.8,5.6,27.8,14.1,39,25.3l32.7,33.2c11.2,11.2,20,24.1,26.4,38.5c6,14.8,9,30.4,9,46.9c0,16.2-3,31.5-9,45.9
	c-6.3,14.8-15.1,27.8-26.4,39 M795.5,505.2l127.1,127.6l378.1-378.1c13-13,19.5-28.7,19.5-46.9c0-18.6-6.5-34.5-19.5-47.5
	l-33.2-33.2c-13-12.3-28.7-18.5-46.9-18.5c-8.8,0-17.2,1.6-25.3,4.7c-8.4,3.2-15.8,7.9-22.1,14.2L795.5,505.2z"/>
</svg>
