<?xml version="1.0" encoding="utf-8"?>
<!-- Generator: Adobe Illustrator 27.2.0, SVG Export Plug-In . SVG Version: 6.00 Build 0)  -->
<svg version="1.1" id="Calque_1" focusable="false" xmlns="http://www.w3.org/2000/svg" xmlns:xlink="http://www.w3.org/1999/xlink"
	 x="0px" y="0px" viewBox="0 0 1920 1080" style="enable-background:new 0 0 1920 1080;" xml:space="preserve">
<style type="text/css">
	.st0{fill:#FFFFFF;}
</style>
<path d="M960,1026.2c-44.6,0-87.5-5.8-128.7-17.4c-41.5-11.6-80.2-27.9-116-49c-36.2-21.1-69.1-46.6-98.6-76.5
	c-29.9-29.5-55.4-62.4-76.5-98.6c-21.1-35.9-37.4-74.5-49-116c-11.6-41.1-17.4-84-17.4-128.7s5.8-87.7,17.4-129.2
	c11.6-41.1,27.9-79.8,49-116c21.1-35.9,46.6-68.7,76.5-98.6c29.5-29.5,62.4-54.8,98.6-75.9c35.9-21.1,74.5-37.4,116-49
	c41.1-11.6,84-17.4,128.7-17.4s87.7,5.8,129.2,17.4c41.1,11.6,79.8,27.9,116,49c35.9,21.1,68.7,46.4,98.6,75.9
	c29.5,29.9,54.8,62.8,75.9,98.6c21.1,36.2,37.4,74.9,49,116c11.6,41.5,17.4,84.6,17.4,129.2s-5.8,87.5-17.4,128.7
	c-11.6,41.5-27.9,80.2-49,116c-21.1,36.2-46.4,69.1-75.9,98.6c-29.9,29.9-62.8,55.4-98.6,76.5c-36.2,21.1-74.9,37.4-116,49
	C1047.7,1020.4,1004.6,1026.2,960,1026.2 M960,108.1c-39.7,0-77.9,5.1-114.4,15.3c-36.9,10.5-71.4,25.1-103.4,43.8
	s-61.2,41.1-87.5,67.5s-48.9,55.5-67.5,87.5s-33,66.3-43.2,102.8c-10.5,36.9-15.8,75.2-15.8,115s5.3,77.9,15.8,114.4
	c10.2,36.9,24.6,71.4,43.2,103.4s41.1,61.2,67.5,87.5s55.5,48.9,87.5,67.5s66.4,33,103.4,43.2c36.6,10.5,74.7,15.8,114.4,15.8
	s78-5.3,115-15.8c36.6-10.2,70.8-24.6,102.8-43.2s61.2-41.1,87.5-67.5s48.9-55.5,67.5-87.5s33.2-66.4,43.8-103.4
	c10.2-36.6,15.3-74.7,15.3-114.4s-5.1-78-15.3-115c-10.5-36.6-25.1-70.8-43.8-102.8s-41.1-61.2-67.5-87.5s-55.5-48.9-87.5-67.5
	s-66.3-33.2-102.8-43.8C1038,113.2,999.7,108.1,960,108.1 M906.2,405c0,11.2-2.1,21.8-6.3,31.6s-10,18.5-17.4,25.8
	s-16,13.2-25.8,17.4s-20.4,6.3-31.6,6.3s-21.8-2.1-31.6-6.3s-18.5-10-25.8-17.4s-13.2-16-17.4-25.8s-6.3-20.4-6.3-31.6
	s2.1-21.8,6.3-31.6s10-18.5,17.4-25.8s16-13.2,25.8-17.4s20.4-6.3,31.6-6.3s21.8,2.1,31.6,6.3s18.5,10,25.8,17.4s13.2,16,17.4,25.8
	S906.2,393.8,906.2,405 M1176.2,405c0,11.2-2.1,21.8-6.3,31.6s-10,18.5-17.4,25.8s-16,13.2-25.8,17.4s-20.4,6.3-31.6,6.3
	s-21.8-2.1-31.6-6.3s-18.5-10-25.8-17.4s-13.2-16-17.4-25.8s-6.3-20.4-6.3-31.6s2.1-21.8,6.3-31.6s10-18.5,17.4-25.8
	s16-13.2,25.8-17.4s20.4-6.3,31.6-6.3s21.8,2.1,31.6,6.3s18.5,10,25.8,17.4s13.2,16,17.4,25.8S1176.2,393.8,1176.2,405
	 M1200.5,660.2c-11.2,22.1-25.1,42.4-41.7,60.6c-16.5,18.6-35,34.5-55.4,47.5c-20.7,13.4-43.2,23.6-67.5,30.6
	c-24.3,7.4-49.6,11.1-75.9,11.1s-51.7-3.7-75.9-11.1c-24.3-7-46.6-17.2-67-30.6c-20.7-13-39.4-28.8-55.9-47.5
	c-16.9-18.3-30.8-38.5-41.7-60.6l48-24.3c8.8,17.6,19.9,33.8,33.2,48.5s28.3,27.4,44.8,38s34.5,18.8,53.8,24.8s39.6,9,60.6,9
	s41.3-3,60.6-9s37.3-14.2,53.8-24.8s31.5-23.2,44.8-38c13-14.8,24.1-30.9,33.2-48.5L1200.5,660.2z"/>
<path class="st0" d="M960,81.2c42.2,0,83,5.4,122.3,16.3c39,10.9,75.6,26.2,109.7,45.9c33.8,20,64.7,43.9,92.8,71.7
	c27.8,28.1,51.7,59.1,71.7,92.8c19.7,34.1,35,70.7,45.9,109.7c10.9,39.4,16.3,80.2,16.3,122.3s-5.4,82.8-16.3,121.8
	c-10.9,39.4-26.2,75.9-45.9,109.7c-20,34.1-43.9,65-71.7,92.8c-28.1,28.1-59.1,52-92.8,71.7c-34.1,20-70.7,35.5-109.7,46.4
	c-39.4,10.9-80.2,16.3-122.3,16.3s-82.8-5.4-121.8-16.3c-39.4-10.9-75.9-26.4-109.7-46.4c-34.1-19.7-65-43.6-92.8-71.7
	c-28.1-27.8-52-58.7-71.7-92.8c-20-33.8-35.5-70.3-46.4-109.7c-10.9-39-16.3-79.6-16.3-121.8s5.4-83,16.3-122.3
	c10.9-39,26.4-75.6,46.4-109.7c19.7-33.8,43.6-64.7,71.7-92.8c27.8-27.8,58.7-51.7,92.8-71.7c33.8-19.7,70.3-35,109.7-45.9
	C877.2,86.7,917.8,81.2,960,81.2z"/>
<path d="M960,1026.2c-44.6,0-87.5-5.8-128.7-17.4c-41.5-11.6-80.2-27.9-116-49c-36.2-21.1-69.1-46.6-98.6-76.5
	c-29.9-29.5-55.4-62.4-76.5-98.6c-21.1-35.9-37.4-74.5-49-116c-11.6-41.1-17.4-84-17.4-128.7s5.8-87.7,17.4-129.2
	c11.6-41.1,27.9-79.8,49-116c21.1-35.9,46.6-68.7,76.5-98.6c29.5-29.5,62.4-54.8,98.6-75.9c35.9-21.1,74.5-37.4,116-49
	c41.1-11.6,84-17.4,128.7-17.4s87.7,5.8,129.2,17.4c41.1,11.6,79.8,27.9,116,49c35.9,21.1,68.7,46.4,98.6,75.9
	c29.5,29.9,54.8,62.8,75.9,98.6c21.1,36.2,37.4,74.9,49,116c11.6,41.5,17.4,84.6,17.4,129.2s-5.8,87.5-17.4,128.7
	c-11.6,41.5-27.9,80.2-49,116c-21.1,36.2-46.4,69.1-75.9,98.6c-29.9,29.9-62.8,55.4-98.6,76.5c-36.2,21.1-74.9,37.4-116,49
	C1047.7,1020.4,1004.6,1026.2,960,1026.2 M960,108.1c-39.7,0-77.9,5.1-114.4,15.3c-36.9,10.5-71.4,25.1-103.4,43.8
	s-61.2,41.1-87.5,67.5s-48.9,55.5-67.5,87.5s-33,66.3-43.2,102.8c-10.5,36.9-15.8,75.2-15.8,115s5.3,77.9,15.8,114.4
	c10.2,36.9,24.6,71.4,43.2,103.4s41.1,61.2,67.5,87.5s55.5,48.9,87.5,67.5s66.4,33,103.4,43.2c36.6,10.5,74.7,15.8,114.4,15.8
	s78-5.3,115-15.8c36.6-10.2,70.8-24.6,102.8-43.2s61.2-41.1,87.5-67.5s48.9-55.5,67.5-87.5s33.2-66.4,43.8-103.4
	c10.2-36.6,15.3-74.7,15.3-114.4s-5.1-78-15.3-115c-10.5-36.6-25.1-70.8-43.8-102.8s-41.1-61.2-67.5-87.5s-55.5-48.9-87.5-67.5
	s-66.3-33.2-102.8-43.8C1038,113.2,999.7,108.1,960,108.1 M906.2,405c0,11.2-2.1,21.8-6.3,31.6s-10,18.5-17.4,25.8
	s-16,13.2-25.8,17.4s-20.4,6.3-31.6,6.3s-21.8-2.1-31.6-6.3s-18.5-10-25.8-17.4s-13.2-16-17.4-25.8s-6.3-20.4-6.3-31.6
	s2.1-21.8,6.3-31.6s10-18.5,17.4-25.8s16-13.2,25.8-17.4s20.4-6.3,31.6-6.3s21.8,2.1,31.6,6.3s18.5,10,25.8,17.4s13.2,16,17.4,25.8
	S906.2,393.8,906.2,405 M1176.2,405c0,11.2-2.1,21.8-6.3,31.6s-10,18.5-17.4,25.8s-16,13.2-25.8,17.4s-20.4,6.3-31.6,6.3
	s-21.8-2.1-31.6-6.3s-18.5-10-25.8-17.4s-13.2-16-17.4-25.8s-6.3-20.4-6.3-31.6s2.1-21.8,6.3-31.6s10-18.5,17.4-25.8
	s16-13.2,25.8-17.4s20.4-6.3,31.6-6.3s21.8,2.1,31.6,6.3s18.5,10,25.8,17.4s13.2,16,17.4,25.8S1176.2,393.8,1176.2,405
	 M1200.5,660.2c-11.2,22.1-25.1,42.4-41.7,60.6c-16.5,18.6-35,34.5-55.4,47.5c-20.7,13.4-43.2,23.6-67.5,30.6
	c-24.3,7.4-49.6,11.1-75.9,11.1s-51.7-3.7-75.9-11.1c-24.3-7-46.6-17.2-67-30.6c-20.7-13-39.4-28.8-55.9-47.5
	c-16.9-18.3-30.8-38.5-41.7-60.6l48-24.3c8.8,17.6,19.9,33.8,33.2,48.5s28.3,27.4,44.8,38s34.5,18.8,53.8,24.8s39.6,9,60.6,9
	s41.3-3,60.6-9s37.3-14.2,53.8-24.8s31.5-23.2,44.8-38c13-14.8,24.1-30.9,33.2-48.5L1200.5,660.2z"/>
</svg>
