<svg height="100%" width="100%" viewBox="0,0,2048,2048" focusable="false"><path type="path" class="OfficeIconColors_HighContrast" d="M 1201 1843 v -101 q 217 -156 327 -348 q 110 -191 110 -421 q 0 -149 -48 -272 q -49 -123 -135 -211 q -87 -87 -207 -136 q -120 -48 -262 -48 q -149 0 -274 48 q -125 49 -215 137 q -90 88 -140 209 q -50 122 -50 269 q 0 461 432 773 v 101 h -532 v -101 h 389 q -203 -151 -297 -345 q -94 -193 -94 -430 q 0 -173 56 -314 q 56 -140 157 -240 q 101 -100 242 -154 q 141 -54 311 -54 q 175 0 317 52 q 142 52 243 150 q 100 98 155 238 q 55 141 55 317 q 0 117 -24 225 q -24 109 -79 212 q -55 103 -128 188 q -74 86 -168 155 h 399 v 101 z"></path><path type="path" class="OfficeIconColors_m22" d="M 1201 1843 v -101 q 217 -156 327 -348 q 110 -191 110 -421 q 0 -149 -48 -272 q -49 -123 -135 -211 q -87 -87 -207 -136 q -120 -48 -262 -48 q -149 0 -274 48 q -125 49 -215 137 q -90 88 -140 209 q -50 122 -50 269 q 0 461 432 773 v 101 h -532 v -101 h 389 q -203 -151 -297 -345 q -94 -193 -94 -430 q 0 -173 56 -314 q 56 -140 157 -240 q 101 -100 242 -154 q 141 -54 311 -54 q 175 0 317 52 q 142 52 243 150 q 100 98 155 238 q 55 141 55 317 q 0 117 -24 225 q -24 109 -79 212 q -55 103 -128 188 q -74 86 -168 155 h 399 v 101 z"></path></svg>