<?xml version="1.0" encoding="utf-8"?>
<!-- Generator: Adobe Illustrator 27.2.0, SVG Export Plug-In . SVG Version: 6.00 Build 0)  -->
<svg version="1.1" id="Calque_1" focusable="false" xmlns="http://www.w3.org/2000/svg" xmlns:xlink="http://www.w3.org/1999/xlink"
	 x="0px" y="0px" viewBox="0 0 1920 1080" style="enable-background:new 0 0 1920 1080;" xml:space="preserve">
<style type="text/css">
	.st0{fill:#FFFFFF;}
	.st1{fill:#73A9DC;}
	.st2{fill:#649DD0;}
</style>
<path d="M716.9,217.3c-4.6,0.7-9,1.2-13.2,1.6c-4.6,0.7-9.1,1.4-13.7,2.1V53.8h540v169.8c-4.6,2.8-9,6-13.2,9.5
	c-4.6,3.5-8.8,7.2-12.7,11.1l-165.1,165.6c-12.7-28.5-28.8-54.7-48.5-78.6c-20-23.6-42.7-43.9-68-61.2
	c-25.7-16.9-53.6-30.1-83.8-39.6s-61.9-14.2-94.9-14.2c-4.6,0-9,0-13.2,0C726,216.6,721.5,216.9,716.9,217.3 M1414.6,301.6
	c10.2,10.5,17.9,22.5,23.2,35.9s7.9,26.9,7.9,40.6s-2.5,27.2-7.4,40.6c-5.3,13.7-13.2,25.7-23.7,35.9L931,934.5l-239.4,88.1
	l96.5-247.3l473.6-473.6c10.5-10.5,22.5-18.5,35.9-23.7c13-5.3,26.5-7.9,40.6-7.9c13.7,0,27.2,2.6,40.6,7.9S1404,291.1,1414.6,301.6
	 M710,752.5l-20.6,52.2c-30.6-6.3-59.1-17.6-85.4-33.8s-49.2-36-68.6-59.6c-19.3-23.2-34.5-49.4-45.4-78.6s-16.3-60.1-16.3-92.8
	c0-37.3,7.2-72.4,21.6-105.5c14.1-32.7,33.4-61.3,58-86c24.3-24.3,52.7-43.4,85.4-57.5S706.5,270,743.8,270
	c29.5,0,57.7,4.4,84.4,13.2c26.7,9.1,51.2,21.8,73.3,38s41.5,35.2,58,57c16.5,22.1,29.4,46.4,38.5,72.8l-43.2,43.2L718.5,730.4
	 M603,1026.2H473.8v-54.3h150.3L603,1026.2z"/>
<path class="st0" d="M699.5,778.4c-28.1-5.3-54.3-15.1-78.6-29.5c-24.3-14.1-45.2-31.6-62.8-52.7c-17.9-21.1-31.8-45-41.7-71.7
	c-10.2-26.7-15.3-54.8-15.3-84.4c0-33.4,6.3-64.9,19-94.4s30.1-55.4,52.2-77.5c21.8-21.8,47.5-39.2,77-52.2c29.5-12.7,61-19,94.4-19
	c27.8,0,54.1,4.4,79.1,13.2c24.6,8.8,47.1,20.9,67.5,36.4c20.4,15.8,38,34.5,52.7,55.9s25.8,44.8,33.2,70.1L718.5,730.4
	 M1039.1,409.7c-12.7-28.5-28.8-54.7-48.5-78.6c-20-23.6-42.7-43.9-68-61.2c-25.7-16.9-53.6-30.1-83.8-39.6s-61.9-14.2-94.9-14.2
	c-4.6,0-9,0-13.2,0c-4.6,0.4-9.1,0.7-13.7,1.1V81.2h486.2v164.5 M798.1,807.9c84.4-94.9,163.1-179.6,236.2-254.2
	c20.7-21.1,41.7-42.2,62.8-63.3c21.1-20.7,41.8-40.6,62.2-59.6c20-18.6,39.6-36,58.5-52.2c18.6-16.2,36-30.2,52.2-42.2
	c15.8-11.6,30.2-20.7,43.2-27.4c12.7-6.7,23.2-10,31.6-10c2.8,0,4.9,0.2,6.3,0.5c14.8,3.9,26.9,8.8,36.4,14.8
	c9.1,6,16.3,12.5,21.6,19.5c5.3,7.4,9,14.8,11.1,22.1c1.8,7.7,2.6,15.1,2.6,22.1c0,6-0.5,11.6-1.6,16.9c-1.1,5.6-2.1,10.4-3.2,14.2
	c-1.4,4.6-3,8.8-4.7,12.7L908.3,922.3L798.1,807.9z"/>
<path class="st1" d="M807.1,794.7c26.7,9.5,50.1,24.1,70.1,43.8c20,20,34.8,43.6,44.3,70.7l-190.9,76.5L807.1,794.7z"/>
<path d="M743.8,216.2c-18.6,0-36.6,1.6-53.8,4.7V53.8h540v169.8c-4.6,2.8-9,6-13.2,9.5c-4.6,3.5-8.8,7.2-12.7,11.1l-27.9,28.5V108.1
	H743.8 M689.5,804.7c-30.6-6.3-59.1-17.6-85.4-33.8s-49.2-36-68.6-59.6c-19.3-23.2-34.5-49.4-45.4-78.6s-16.3-60.1-16.3-92.8
	c0-37.3,7.2-72.4,21.6-105.5c14.1-32.7,33.4-61.3,58-86c24.3-24.3,52.7-43.4,85.4-57.5S706.5,270,743.8,270
	c29.5,0,57.7,4.4,84.4,13.2c26.7,9.1,51.2,21.8,73.3,38s41.5,35.2,58,57c16.5,22.1,29.4,46.4,38.5,72.8l-43.2,43.2
	c-5.3-24.3-14.4-46.8-27.4-67.5s-28.7-38.8-46.9-54.3c-18.6-15.1-39.6-27.1-62.8-35.9c-23.6-8.4-48.2-12.7-73.8-12.7
	c-29.5,0-57.3,5.6-83.3,16.9c-26.4,11.6-49.2,27.1-68.6,46.4c-19.7,19.7-35.2,42.5-46.4,68.6c-11.6,26.4-17.4,54.5-17.4,84.4
	c0,27.1,4.7,52.6,14.2,76.5c9.1,23.9,22,45.2,38.5,63.8c16.2,19,35.3,34.6,57.5,46.9c22.1,12.7,46.1,21.1,71.7,25.3 M603,1026.2
	H473.8v-54.3h150.3L603,1026.2z"/>
<path class="st2" d="M1414.6,301.6c10.2,10.5,17.9,22.5,23.2,35.9s7.9,26.9,7.9,40.6s-2.5,27.2-7.4,40.6
	c-5.3,13.7-13.2,25.7-23.7,35.9L931,934.5l-239.4,88.1l96.5-247.3l473.6-473.6c10.5-10.5,22.5-18.5,35.9-23.7
	c13-5.3,26.5-7.9,40.6-7.9c13.7,0,27.2,2.6,40.6,7.9S1404,291.1,1414.6,301.6 M852.9,786.8c31.6,18.6,57,44.1,75.9,76.5L1329.7,463
	l-76.5-76.5 M783.9,930.8l100.7-36.9c-14.8-26.4-35.7-47.1-62.8-62.2 M1376.1,416.1c5.3-5.3,9.3-11.2,12.1-17.9
	c2.5-6.3,3.7-13,3.7-20c0-7.4-1.4-14.4-4.2-21.1c-3.2-6.3-7.2-12-12.1-16.9s-10.5-8.8-16.9-11.6c-6.7-2.8-13.7-4.2-21.1-4.2
	c-13.4,0-25.8,5.3-37.4,15.8l-8.4,7.9l75.9,76.5L1376.1,416.1z"/>
</svg>
