<?xml version="1.0" encoding="utf-8"?>
<!-- Generator: Adobe Illustrator 27.2.0, SVG Export Plug-In . SVG Version: 6.00 Build 0)  -->
<svg version="1.1" id="Calque_1" focusable="false" xmlns="http://www.w3.org/2000/svg" xmlns:xlink="http://www.w3.org/1999/xlink"
	 x="0px" y="0px" viewBox="0 0 1920 1080" style="enable-background:new 0 0 1920 1080;" xml:space="preserve">
<style type="text/css">
	.st0{fill:#FFFFFF;}
	.st1{fill:#C8C6C4;}
	.st2{fill:#797774;}
</style>
<path d="M473.8,53.8h972.4v972.4H473.8 M528.1,108.1v108.1h863.8V108.1 M851.9,701.9h216.2V540H851.9 M1068.1,756.2H851.9v215.7
	h216.2 M798.1,701.9V540h-270v161.9 M1068.1,270H851.9v216.2h216.2 M1121.9,540v161.9h270V540 M1121.9,486.2h270V270h-270
	 M798.1,270h-270v216.2h270 M528.1,756.2v215.7h270V756.2 M1121.9,971.9h270V756.2h-270V971.9z"/>
<path class="st0" d="M1418.8,998.8H501.2V243.1h917.6V998.8z"/>
<path class="st1" d="M1418.8,243.1H501.2V81.2h917.6V243.1z"/>
<path class="st2" d="M1418.8,540h-296.9v161.9h296.9v54.3h-296.9v242.6h-53.8V756.2H851.9v242.6h-53.8V756.2H501.2v-54.3h296.9V540
	H501.2v-53.8h296.9V243.1h53.8v243.1h216.2V243.1h53.8v243.1h296.9 M1068.1,701.9V540H851.9v161.9H1068.1z"/>
<path d="M473.8,53.8h972.4v972.4H473.8 M1391.9,971.9V270H528.1v701.9 M1391.9,216.2V108.1H528.1v108.1H1391.9z"/>
</svg>
