<?xml version="1.0" encoding="utf-8"?>
<!-- Generator: Adobe Illustrator 27.2.0, SVG Export Plug-In . SVG Version: 6.00 Build 0)  -->
<svg version="1.1" id="Calque_1" focusable="false" xmlns="http://www.w3.org/2000/svg" xmlns:xlink="http://www.w3.org/1999/xlink"
	 x="0px" y="0px" viewBox="0 0 1920 1080" style="enable-background:new 0 0 1920 1080;" xml:space="preserve">
<style type="text/css">
	.st0{fill:#FFFFFF;}
</style>
<path d="M473.8,987.7l354.9-354.4c-26.4-30.9-47.1-65.7-62.2-104.4s-22.7-80-22.7-123.9c0-48.5,9.3-94,27.9-136.6
	c18.3-42.5,43.4-79.8,75.4-111.8c31.6-31.6,68.7-56.8,111.3-75.4c42.5-18.3,88.1-27.4,136.6-27.4s94,9.1,136.6,27.4
	c42.5,18.6,79.8,43.8,111.8,75.4c31.6,32,56.8,69.3,75.4,111.8c18.3,42.5,27.4,88.1,27.4,136.6s-9.1,94-27.4,136.6
	c-18.6,42.5-43.8,79.6-75.4,111.3c-32,32-69.3,57.1-111.8,75.4c-42.5,18.6-88.1,27.9-136.6,27.9c-43.9,0-85.3-7.6-123.9-22.7
	s-73.5-35.9-104.4-62.2l-354.4,354.9 M1095,701.9c27.4,0,53.8-3.5,79.1-10.5s49-17.1,71.2-30.1c21.8-13,41.8-28.7,60.1-46.9
	c17.9-17.9,33.4-38,46.4-60.1c12.7-21.8,22.5-45.4,29.5-70.7c7-25,10.5-51.2,10.5-78.6c0-27.1-3.5-53.3-10.5-78.6
	s-16.9-49-29.5-71.2c-13-21.8-28.5-41.8-46.4-60.1c-18.3-17.9-38.3-33.4-60.1-46.4c-22.1-13-45.9-23-71.2-30.1s-51.7-10.5-79.1-10.5
	s-53.8,3.5-79.1,10.5s-48.9,17.1-70.7,30.1c-22.1,13-42.2,28.5-60.1,46.4c-18.3,18.3-33.8,38.3-46.4,60.1
	c-13,22.1-23,45.9-30.1,71.2s-10.5,51.5-10.5,78.6c0,27.4,3.5,53.6,10.5,78.6c7,25.3,17.1,48.9,30.1,70.7
	c12.7,22.1,28.1,42.2,46.4,60.1c17.9,18.3,38,33.9,60.1,46.9c21.8,13,45.4,23,70.7,30.1S1067.6,701.9,1095,701.9z"/>
<path class="st0" d="M1090.8,725.1c-44.6,0-86.7-8.6-126-25.8c-39.4-16.9-73.7-40.1-102.8-69.6c-29.2-29.2-52.2-63.5-69.1-102.8
	c-17.2-39.4-25.8-81.4-25.8-126c0-29.9,3.9-58.7,11.6-86.5c7.7-27.4,18.6-53.1,32.7-77s30.9-45.7,50.6-65.4s41.5-36.6,65.4-50.6
	s49.7-25,77.5-32.7c27.4-7.7,56.1-11.6,86-11.6s58.7,3.9,86.5,11.6c27.4,7.7,53.1,18.6,77,32.7s45.7,30.9,65.4,50.6
	s36.6,41.5,50.6,65.4s25,49.6,32.7,77c7.7,27.8,11.6,56.6,11.6,86.5c0,44.6-8.4,86.7-25.3,126c-17.2,39.4-40.4,73.7-69.6,102.8
	c-29.2,29.5-63.5,52.7-102.8,69.6C1177.4,716.5,1135.4,725.1,1090.8,725.1z"/>
<path d="M473.8,987.7l354.9-354.4c-26.4-30.9-47.1-65.7-62.2-104.4s-22.7-80-22.7-123.9c0-48.5,9.3-94,27.9-136.6
	c18.3-42.5,43.4-79.8,75.4-111.8c31.6-31.6,68.7-56.8,111.3-75.4c42.5-18.3,88.1-27.4,136.6-27.4s94,9.1,136.6,27.4
	c42.5,18.6,79.8,43.8,111.8,75.4c31.6,32,56.8,69.3,75.4,111.8c18.3,42.5,27.4,88.1,27.4,136.6s-9.1,94-27.4,136.6
	c-18.6,42.5-43.8,79.6-75.4,111.3c-32,32-69.3,57.1-111.8,75.4c-42.5,18.6-88.1,27.9-136.6,27.9c-43.9,0-85.3-7.6-123.9-22.7
	s-73.5-35.9-104.4-62.2l-354.4,354.9 M1095,701.9c27.4,0,53.8-3.5,79.1-10.5s49-17.1,71.2-30.1c21.8-13,41.8-28.7,60.1-46.9
	c17.9-17.9,33.4-38,46.4-60.1c12.7-21.8,22.5-45.4,29.5-70.7c7-25,10.5-51.2,10.5-78.6c0-27.1-3.5-53.3-10.5-78.6
	s-16.9-49-29.5-71.2c-13-21.8-28.5-41.8-46.4-60.1c-18.3-17.9-38.3-33.4-60.1-46.4c-22.1-13-45.9-23-71.2-30.1s-51.7-10.5-79.1-10.5
	s-53.8,3.5-79.1,10.5s-48.9,17.1-70.7,30.1c-22.1,13-42.2,28.5-60.1,46.4c-18.3,18.3-33.8,38.3-46.4,60.1
	c-13,22.1-23,45.9-30.1,71.2s-10.5,51.5-10.5,78.6c0,27.4,3.5,53.6,10.5,78.6c7,25.3,17.1,48.9,30.1,70.7
	c12.7,22.1,28.1,42.2,46.4,60.1c17.9,18.3,38,33.9,60.1,46.9c21.8,13,45.4,23,70.7,30.1S1067.6,701.9,1095,701.9z"/>
</svg>
