<?xml version="1.0" encoding="utf-8"?>
<!-- Generator: Adobe Illustrator 27.2.0, SVG Export Plug-In . SVG Version: 6.00 Build 0)  -->
<svg version="1.1" id="Calque_1" focusable="false" xmlns="http://www.w3.org/2000/svg" xmlns:xlink="http://www.w3.org/1999/xlink"
	 x="0px" y="0px" viewBox="0 0 1920 1080" style="enable-background:new 0 0 1920 1080;" xml:space="preserve">
<style type="text/css">
	.st0{fill:#FFFFFF;}
	.st1{fill:#4389C8;}
</style>
<path d="M960,53.8c44.6,0,87.7,5.8,129.2,17.4s80.3,27.9,116.5,49c35.9,21.1,68.6,46.4,98.1,75.9s54.8,62.2,75.9,98.1
	c21.1,36.2,37.4,75.1,49,116.5s17.4,84.6,17.4,129.2s-5.8,87.7-17.4,129.2s-27.9,80.2-49,116c-21.1,36.2-46.4,69.1-75.9,98.6
	s-62.2,54.8-98.1,75.9c-36.2,21.1-75.1,37.4-116.5,49s-84.6,17.4-129.2,17.4s-87.7-5.8-129.2-17.4s-80.2-27.9-116-49
	c-36.2-21.1-69.1-46.4-98.6-75.9s-54.8-62.4-75.9-98.6c-21.1-35.9-37.4-74.5-49-116s-17.4-84.6-17.4-129.2s5.8-87.7,17.4-129.2
	s27.9-80.3,49-116.5c21.1-35.9,46.4-68.6,75.9-98.1s62.4-54.8,98.6-75.9c35.9-21.1,74.5-37.4,116-49S915.4,53.8,960,53.8 M960,971.9
	c39.7,0,78-5.3,115-15.8c36.6-10.2,70.8-24.6,102.8-43.2s61.2-41.1,87.5-67.5s48.9-55.5,67.5-87.5s33.2-66.4,43.8-103.4
	c10.2-36.6,15.3-74.7,15.3-114.4s-5.1-78-15.3-115c-10.5-36.6-25.1-70.8-43.8-102.8s-41.1-61.2-67.5-87.5s-55.5-48.9-87.5-67.5
	s-66.3-33.2-102.8-43.8c-36.9-10.2-75.2-15.3-115-15.3s-77.9,5.1-114.4,15.3c-36.9,10.5-71.4,25.1-103.4,43.8s-61.2,41.1-87.5,67.5
	s-48.9,55.5-67.5,87.5s-33,66.3-43.2,102.8c-10.5,36.9-15.8,75.2-15.8,115s5.3,77.9,15.8,114.4c10.2,36.9,24.6,71.4,43.2,103.4
	s41.1,61.2,67.5,87.5s55.5,48.9,87.5,67.5s66.4,33,103.4,43.2C882.1,966.6,920.3,971.9,960,971.9 M1013.8,777.8v86h-78v-86
	 M1130.3,278.4c14.8,16.9,26,35.9,33.8,57c7.7,21.4,11.6,42.9,11.6,64.3c0,15.8-1.9,30.1-5.8,42.7s-9.5,24.8-16.9,36.4
	c-7.7,11.6-17.1,22.9-27.9,33.8c-11.2,11.2-24.1,23-38.5,35.3c-25,21.1-44.3,42.4-58,63.8s-20.6,41.8-20.6,61.2v29h-62.8v-15.8
	c0-3.9,0.2-7.7,0.5-11.6c0-3.9,0-6.3,0-7.4c0-12,2.5-24.6,7.4-38s11.8-26.9,20.6-40.6c8.4-13.7,18.8-27.6,31.1-41.7
	c12.3-13.7,26-26.9,41.1-39.6c22.1-18.6,39-36,50.6-52.2s17.4-34.3,17.4-54.3c0-13.4-2.6-27.4-7.9-42.2
	c-5.6-14.4-13.7-27.6-24.3-39.6s-23.7-21.8-39.6-29.5s-34.1-11.6-54.8-11.6c-21.8,0-40.4,3-55.9,9c-15.5,6.3-28.5,14.2-39,23.7
	c-10.5,9.8-19,20.4-25.3,31.6s-11.1,22-14.2,32.2c-3.5,10.5-5.8,19.7-6.9,27.4c-1.4,7.7-2.1,12.8-2.1,15.3v14.8h-62.2V415
	c0.7-11.6,2.8-24.6,6.3-39c3.2-14.4,8.1-29,14.8-43.8s15.3-29.2,25.8-43.2c10.5-13.7,23.4-26,38.5-36.9
	c14.8-10.9,32.2-19.7,52.2-26.4c19.7-6.3,42.4-9.5,68-9.5c18.3,0,35,1.9,50.1,5.8c14.8,3.9,28.1,8.8,40.1,14.8
	c11.6,6,21.8,12.7,30.6,20C1116.6,264.2,1124,271.4,1130.3,278.4z"/>
<path class="st0" d="M960,998.8c-42.2,0-82.8-5.4-121.8-16.3s-75.6-26.4-109.7-46.4s-65-43.9-92.8-71.7S584,805.6,564,771.5
	s-35.5-70.7-46.4-109.7s-16.3-79.6-16.3-121.8s5.4-82.8,16.3-121.8s26.4-75.6,46.4-109.7s43.9-65,71.7-92.8s58.7-51.7,92.8-71.7
	s70.7-35.5,109.7-46.4S917.8,81.2,960,81.2s82.8,5.4,121.8,16.3s75.6,26.4,109.7,46.4s65,43.9,92.8,71.7s51.7,58.7,71.7,92.8
	s35.5,70.7,46.4,109.7s16.3,79.6,16.3,121.8s-5.4,82.8-16.3,121.8s-26.4,75.6-46.4,109.7s-43.9,65-71.7,92.8s-58.7,51.7-92.8,71.7
	s-70.7,35.5-109.7,46.4S1002.2,998.8,960,998.8z"/>
<path class="st1" d="M960,53.8c44.6,0,87.7,5.8,129.2,17.4s80.3,27.9,116.5,49c35.9,21.1,68.6,46.4,98.1,75.9s54.8,62.2,75.9,98.1
	c21.1,36.2,37.4,75.1,49,116.5s17.4,84.6,17.4,129.2s-5.8,87.7-17.4,129.2s-27.9,80.2-49,116c-21.1,36.2-46.4,69.1-75.9,98.6
	s-62.2,54.8-98.1,75.9c-36.2,21.1-75.1,37.4-116.5,49s-84.6,17.4-129.2,17.4s-87.7-5.8-129.2-17.4s-80.2-27.9-116-49
	c-36.2-21.1-69.1-46.4-98.6-75.9s-54.8-62.4-75.9-98.6c-21.1-35.9-37.4-74.5-49-116s-17.4-84.6-17.4-129.2s5.8-87.7,17.4-129.2
	s27.9-80.3,49-116.5c21.1-35.9,46.4-68.6,75.9-98.1s62.4-54.8,98.6-75.9c35.9-21.1,74.5-37.4,116-49S915.4,53.8,960,53.8 M960,971.9
	c39.7,0,78-5.3,115-15.8c36.6-10.2,70.8-24.6,102.8-43.2s61.2-41.1,87.5-67.5s48.9-55.5,67.5-87.5s33.2-66.4,43.8-103.4
	c10.2-36.6,15.3-74.7,15.3-114.4s-5.1-78-15.3-115c-10.5-36.6-25.1-70.8-43.8-102.8s-41.1-61.2-67.5-87.5s-55.5-48.9-87.5-67.5
	s-66.3-33.2-102.8-43.8c-36.9-10.2-75.2-15.3-115-15.3s-77.9,5.1-114.4,15.3c-36.9,10.5-71.4,25.1-103.4,43.8s-61.2,41.1-87.5,67.5
	s-48.9,55.5-67.5,87.5s-33,66.3-43.2,102.8c-10.5,36.9-15.8,75.2-15.8,115s5.3,77.9,15.8,114.4c10.2,36.9,24.6,71.4,43.2,103.4
	s41.1,61.2,67.5,87.5s55.5,48.9,87.5,67.5s66.4,33,103.4,43.2C882.1,966.6,920.3,971.9,960,971.9 M1013.8,777.8v86h-78v-86
	 M1130.3,278.4c14.8,16.9,26,35.9,33.8,57c7.7,21.4,11.6,42.9,11.6,64.3c0,15.8-1.9,30.1-5.8,42.7s-9.5,24.8-16.9,36.4
	c-7.7,11.6-17.1,22.9-27.9,33.8c-11.2,11.2-24.1,23-38.5,35.3c-25,21.1-44.3,42.4-58,63.8s-20.6,41.8-20.6,61.2v29h-62.8v-15.8
	c0-3.9,0.2-7.7,0.5-11.6c0-3.9,0-6.3,0-7.4c0-12,2.5-24.6,7.4-38s11.8-26.9,20.6-40.6c8.4-13.7,18.8-27.6,31.1-41.7
	c12.3-13.7,26-26.9,41.1-39.6c22.1-18.6,39-36,50.6-52.2s17.4-34.3,17.4-54.3c0-13.4-2.6-27.4-7.9-42.2
	c-5.6-14.4-13.7-27.6-24.3-39.6s-23.7-21.8-39.6-29.5s-34.1-11.6-54.8-11.6c-21.8,0-40.4,3-55.9,9c-15.5,6.3-28.5,14.2-39,23.7
	c-10.5,9.8-19,20.4-25.3,31.6s-11.1,22-14.2,32.2c-3.5,10.5-5.8,19.7-6.9,27.4c-1.4,7.7-2.1,12.8-2.1,15.3v14.8h-62.2V415
	c0.7-11.6,2.8-24.6,6.3-39c3.2-14.4,8.1-29,14.8-43.8s15.3-29.2,25.8-43.2c10.5-13.7,23.4-26,38.5-36.9
	c14.8-10.9,32.2-19.7,52.2-26.4c19.7-6.3,42.4-9.5,68-9.5c18.3,0,35,1.9,50.1,5.8c14.8,3.9,28.1,8.8,40.1,14.8
	c11.6,6,21.8,12.7,30.6,20C1116.6,264.2,1124,271.4,1130.3,278.4z"/>
</svg>
