<?xml version="1.0" encoding="utf-8"?>
<!-- Generator: Adobe Illustrator 27.2.0, SVG Export Plug-In . SVG Version: 6.00 Build 0)  -->
<svg version="1.1" id="Calque_1" focusable="false" xmlns="http://www.w3.org/2000/svg" xmlns:xlink="http://www.w3.org/1999/xlink"
	 x="0px" y="0px" viewBox="0 0 1920 1080" style="enable-background:new 0 0 1920 1080;" xml:space="preserve">
<style type="text/css">
	.st0{fill:#E48A85;}
</style>
<path d="M791.2,918.1v-86.5h-2.1c-15.8,31.3-37.3,55.4-64.3,72.2c-27.4,16.9-58.4,25.3-92.8,25.3c-23.2,0-44.1-3.3-62.8-10
	c-19-6.7-35-16.2-48-28.5c-13.4-12-23.6-26.4-30.6-43.2c-7.4-16.9-11.1-35.7-11.1-56.4c0-88.6,54.7-140.8,164-156.6l147.7-21.1
	c0-93.5-36.2-140.3-108.6-140.3c-28.5,0-55.2,5.8-80.2,17.4c-25.3,12-50.1,28.5-74.4,49.6v-71.2c9.5-6.7,20.6-13,33.2-19
	c12.3-6,25.5-11.1,39.6-15.3s28.5-7.6,43.2-10s29.4-3.7,43.8-3.7c54.5,0,95.4,15.1,122.9,45.4s41.1,75.4,41.1,135.5v316.4
	 M541.8,786.8c0,13.4,2.5,25.5,7.4,36.4c4.6,11.2,11.4,20.7,20.6,28.5c8.8,8.1,19.3,14.2,31.6,18.5c12.3,4.6,26.2,6.9,41.7,6.9
	c21.1,0,40.8-4.2,59.1-12.7c17.9-8.1,33.6-19.5,46.9-34.3c13-14.4,23.4-31.6,31.1-51.7c7.4-20,11.1-42,11.1-65.9v-48l-125.5,17.9
	c-23.9,3.5-43.8,7.9-59.6,13.2c-16.2,5.3-29,12-38.5,20c-9.5,8.4-16.2,18.5-20,30.1S541.8,771,541.8,786.8 M1020.6,839.5v78.6H960
	V198.3h60.6v327h2.1c17.9-34.1,42-60.1,72.2-78c29.9-17.6,64-26.4,102.3-26.4c30.9,0,58.7,5.6,83.3,16.9s45.4,27.2,62.2,48
	c16.9,21.1,29.9,46.2,39,75.4c8.8,29.5,13.2,62.2,13.2,98.1c0,40.4-5.1,77.2-15.3,110.2c-10.5,33-25.3,61.3-44.3,84.9
	c-19,23.9-42,42.4-69.1,55.4s-57.3,19.5-90.7,19.5c-68.9,0-119.9-29.9-152.9-89.6 M1020.6,715.6c0,22.5,3.9,43.6,11.6,63.3
	c7.4,19.7,17.9,36.7,31.6,51.2s29.9,25.8,48.5,34.3s39,12.7,61.2,12.7c24.6,0,46.8-5.3,66.4-15.8c19.3-10.2,35.9-24.8,49.6-43.8
	s24.3-42,31.6-69.1c7.4-26.7,11.1-56.6,11.1-89.6c0-27.8-3.3-53.1-10-75.9c-7-22.9-16.9-42.5-29.5-59.1
	c-12.7-16.2-28.1-28.7-46.4-37.4s-38.7-13.2-61.2-13.2c-23.6,0-45.4,4.4-65.4,13.2c-20,9.1-37.4,21.6-52.2,37.4
	s-26.2,34.6-34.3,56.4c-8.4,21.8-12.7,45.5-12.7,71.2 M1391.9,53.8v270h-42.7V106.5c-14.4,10.2-32.9,18.3-55.4,24.3V94.4
	c8.1-2.8,15.6-5.6,22.7-8.4s13.7-5.8,20-9s12.7-6.7,19-10.5c6-3.5,12.1-7.7,18.5-12.7H1391.9z"/>
<path d="M791.2,918.1v-86.5h-2.1c-15.8,31.3-37.3,55.4-64.3,72.2c-27.4,16.9-58.4,25.3-92.8,25.3c-23.2,0-44.1-3.3-62.8-10
	c-19-6.7-35-16.2-48-28.5c-13.4-12-23.6-26.4-30.6-43.2c-7.4-16.9-11.1-35.7-11.1-56.4c0-88.6,54.7-140.8,164-156.6l147.7-21.1
	c0-93.5-36.2-140.3-108.6-140.3c-28.5,0-55.2,5.8-80.2,17.4c-25.3,12-50.1,28.5-74.4,49.6v-71.2c9.5-6.7,20.6-13,33.2-19
	c12.3-6,25.5-11.1,39.6-15.3s28.5-7.6,43.2-10s29.4-3.7,43.8-3.7c54.5,0,95.4,15.1,122.9,45.4s41.1,75.4,41.1,135.5v316.4
	 M541.8,786.8c0,13.4,2.5,25.5,7.4,36.4c4.6,11.2,11.4,20.7,20.6,28.5c8.8,8.1,19.3,14.2,31.6,18.5c12.3,4.6,26.2,6.9,41.7,6.9
	c21.1,0,40.8-4.2,59.1-12.7c17.9-8.1,33.6-19.5,46.9-34.3c13-14.4,23.4-31.6,31.1-51.7c7.4-20,11.1-42,11.1-65.9v-48l-125.5,17.9
	c-23.9,3.5-43.8,7.9-59.6,13.2c-16.2,5.3-29,12-38.5,20c-9.5,8.4-16.2,18.5-20,30.1S541.8,771,541.8,786.8 M1020.6,839.5v78.6H960
	V198.3h60.6v327h2.1c17.9-34.1,42-60.1,72.2-78c29.9-17.6,64-26.4,102.3-26.4c30.9,0,58.7,5.6,83.3,16.9s45.4,27.2,62.2,48
	c16.9,21.1,29.9,46.2,39,75.4c8.8,29.5,13.2,62.2,13.2,98.1c0,40.4-5.1,77.2-15.3,110.2c-10.5,33-25.3,61.3-44.3,84.9
	c-19,23.9-42,42.4-69.1,55.4s-57.3,19.5-90.7,19.5c-68.9,0-119.9-29.9-152.9-89.6 M1020.6,715.6c0,22.5,3.9,43.6,11.6,63.3
	c7.4,19.7,17.9,36.7,31.6,51.2s29.9,25.8,48.5,34.3s39,12.7,61.2,12.7c24.6,0,46.8-5.3,66.4-15.8c19.3-10.2,35.9-24.8,49.6-43.8
	s24.3-42,31.6-69.1c7.4-26.7,11.1-56.6,11.1-89.6c0-27.8-3.3-53.1-10-75.9c-7-22.9-16.9-42.5-29.5-59.1
	c-12.7-16.2-28.1-28.7-46.4-37.4s-38.7-13.2-61.2-13.2c-23.6,0-45.4,4.4-65.4,13.2c-20,9.1-37.4,21.6-52.2,37.4
	s-26.2,34.6-34.3,56.4c-8.4,21.8-12.7,45.5-12.7,71.2V715.6z"/>
<path class="st0" d="M1391.9,53.8v270h-42.7V106.5c-14.4,10.2-32.9,18.3-55.4,24.3V94.4c8.1-2.8,15.6-5.6,22.7-8.4s13.7-5.8,20-9
	s12.7-6.7,19-10.5c6-3.5,12.1-7.7,18.5-12.7H1391.9z"/>
</svg>
