<svg height="100%" width="100%" viewBox="0,0,2048,2048" focusable="false"><path type="path" class="OfficeIconColors_HighContrast" d="M 1229 102 q 85 0 164 22 q 78 22 146 62 q 68 40 124 96 q 56 56 96 124 q 40 69 62 147 q 22 79 22 164 q 0 77 -16 146 q -16 69 -44 129 q -28 61 -65 113 q -38 52 -80 94 l -744 747 l -75 -73 l 747 -747 q 35 -35 67 -75 q 31 -39 55 -88 q 24 -48 39 -109 q 14 -60 14 -137 q 0 -109 -41 -203 q -42 -93 -113 -162 q -71 -69 -166 -108 q -96 -39 -204 -39 q -89 0 -173 33 q -85 34 -152 102 l -513 479 h 645 v 103 h -819 v -820 h 102 v 642 l 512 -477 q 86 -86 192 -126 q 105 -39 218 -39 z"></path><path type="path" class="OfficeIconColors_m22" d="M 1229 102 q 85 0 164 22 q 78 22 146 62 q 68 40 124 96 q 56 56 96 124 q 40 69 62 147 q 22 79 22 164 q 0 77 -16 146 q -16 69 -44 129 q -28 61 -65 113 q -38 52 -80 94 l -744 747 l -75 -73 l 747 -747 q 35 -35 67 -75 q 31 -39 55 -88 q 24 -48 39 -109 q 14 -60 14 -137 q 0 -109 -41 -203 q -42 -93 -113 -162 q -71 -69 -166 -108 q -96 -39 -204 -39 q -89 0 -173 33 q -85 34 -152 102 l -513 479 h 645 v 103 h -819 v -820 h 102 v 642 l 512 -477 q 86 -86 192 -126 q 105 -39 218 -39 z"></path></svg>