<?xml version="1.0" encoding="utf-8"?>
<!-- Generator: Adobe Illustrator 27.2.0, SVG Export Plug-In . SVG Version: 6.00 Build 0)  -->
<svg version="1.1" id="Calque_1" focusable="false" xmlns="http://www.w3.org/2000/svg" xmlns:xlink="http://www.w3.org/1999/xlink"
	 x="0px" y="0px" viewBox="0 0 1920 1080" style="enable-background:new 0 0 1920 1080;" xml:space="preserve">
<style type="text/css">
	.st0{fill:#90BCE8;}
	.st1{fill:#3067AF;}
</style>
<path d="M1052.3,520.5c9.5-13.4,16.7-28.3,21.6-44.8s7.4-33.8,7.4-51.7c0-4.9-0.2-9.8-0.5-14.8s-0.9-9.8-1.6-14.8
	c0,0-0.5-2.8-1.6-8.4c-1.4-5.3-3.7-12.1-6.9-20.6s-7.4-17.9-12.7-28.5s-12.1-21.1-20.6-31.6c-3.5,17.6-10.4,35.2-20.6,52.7
	c-10.5,17.9-26,35.2-46.4,51.7l-10.5,8.4c-10.2,7.7-18.8,14.6-25.8,20.6c-7.4,6.3-13.5,12.3-18.5,17.9s-8.4,11.2-10.5,16.9
	c-2.5,5.6-3.7,11.8-3.7,18.5c0,22.1,6.9,39.4,20.6,51.7s31.1,18.5,52.2,18.5c10.2,0,19.3-1.2,27.4-3.7s15.3-5.6,21.6-9.5
	s12-8.4,16.9-13.7C1044.7,530.3,1048.8,525.4,1052.3,520.5 M880.4,687.7c12.3-16.2,23.7-31.6,34.3-46.4c10.2-14.8,19.9-28.8,29-42.2
	c-13.7-3.9-25.7-9.1-35.9-15.8c-10.2-6.3-19.2-15.1-26.9-26.4c-8.1,8.8-15.8,17.6-23.2,26.4c-7.7,9.1-15.6,18.5-23.7,27.9
	c-8.1,9.8-16.5,20.4-25.3,31.6c-9.1,11.2-19.2,23.6-30.1,36.9c-39,48.2-71.4,89.5-97,123.9s-46.4,63.6-62.2,87.5
	s-27.4,43.1-34.8,57.5c-7.4,14.8-12.1,26-14.2,33.8c11.2-4.2,25-12.3,41.1-24.3c16.2-11.6,33.8-25.7,52.7-42.2s38.7-34.8,59.1-54.8
	c20-20,39.7-40.3,59.1-60.6s37.4-40.4,54.3-60.1C853.5,721.1,868.1,703.5,880.4,687.7 M1119.3,388.1c2.1,12.3,3.2,24.3,3.2,35.9
	c0,21.4-3,42.2-9,62.2s-14.4,38-25.3,53.8c-10.9,16.2-23.9,29.5-39,40.1c-15.5,10.9-32.3,17.9-50.6,21.1c-1.4,0-2.8,0-4.2,0
	c-1.4,0.4-3,0.7-4.7,1.1c-10.9,17.2-22.7,35-35.3,53.3c-13,18.3-27.1,37.3-42.2,57c-5.3,7-13.2,16.9-23.7,29.5
	c-10.9,12.7-23.4,26.9-37.4,42.7c-14.4,16.2-30.1,33.2-46.9,51.2c-17.2,18.3-34.8,36.4-52.7,54.3c-18.3,17.9-36.6,35-54.8,51.2
	c-18.3,16.5-35.9,31.1-52.7,43.8c-17.2,12.7-33.2,22.7-48,30.1s-27.6,11.1-38.5,11.1c-9.1,0-16.2-2.8-21.1-8.4
	c-5.3-5.3-7.9-12.5-7.9-21.6c0-10.5,3-23.4,9-38.5s14.1-31.5,24.3-49c9.8-17.6,21.3-36,34.3-55.4c13-19,26.7-38.1,41.1-57.5
	c14.1-19.3,28.3-38.1,42.7-56.4c14.1-17.9,27.4-34.6,40.1-50.1c12.3-15.5,23.4-29.2,33.2-41.1s17.2-21.1,22.1-27.4
	c15.5-19.7,30.6-38.3,45.4-55.9c14.4-17.2,28.8-33.6,43.2-49c0-3.9-0.4-7.9-1.1-12.1c-1.1-3.9-1.6-7.7-1.6-11.6
	c0-13.4,2.5-25.3,7.4-35.9s11.4-20.2,19.5-29c7.7-8.8,16.7-17.2,26.9-25.3c9.8-7.7,20-15.6,30.6-23.7c10.9-8.4,19.9-17.2,26.9-26.4
	s12.7-18.3,16.9-27.4s7.2-18.1,9-26.9c1.4-8.4,2.1-16.3,2.1-23.7c0-8.1-0.7-15.8-2.1-23.2c-1.4-7-3-13-4.7-17.9
	c-1.8-6-3.9-11.4-6.3-16.3c14.1,6,26.7,13,38,21.1s21.3,16.7,30.1,25.8c8.8,9.5,16.5,19,23.2,28.5c6.3,9.8,12,19.3,16.9,28.5
	C1106.2,341.9,1114.3,364.6,1119.3,388.1 M1214.7,486.2l69.1,69.1l-38,38l-69.1-69.1 M1176.7,177.7l68.6-68.6l38,38.5l-68,68
	 M866.7,215.7l-68.6-68.6l38-38.5l69.1,69.1 M1230,323.8h108.1v54.3H1230 M1068.1,161.9h-54.3V53.8h54.3V161.9z"/>
<path d="M869.3,534.2c8.1,21.1,20.9,37.6,38.5,49.6c17.2,12,37.8,18.3,61.7,19c-9.8,15.5-20.6,31.5-32.2,48
	c-12,16.9-25,34.3-39,52.2c-12,15.5-27.1,33.8-45.4,54.8c-18.6,21.1-38.5,42.9-59.6,65.4c-21.4,22.9-43.4,45.4-65.9,67.5
	c-22.9,22.1-44.6,42-65.4,59.6c-21.1,17.6-40.3,31.8-57.5,42.7c-17.2,11.2-31.1,17.2-41.7,17.9L546,1012l-1.1-15.8
	c0-4.6,0.9-10.4,2.6-17.4c1.4-7,4.7-16.2,10-27.4c4.9-11.2,12.1-25.1,21.6-41.7c9.5-16.2,22.3-35.9,38.5-59.1
	c15.8-22.9,35.5-49.7,59.1-80.7c23.6-30.6,51.7-65.9,84.4-106c10.9-13.7,21.1-26.5,30.6-38.5c9.1-11.6,18.1-22.7,26.9-33.2
	c8.4-10.2,16.9-20,25.3-29.5C852.1,553.2,860.5,543.7,869.3,534.2z"/>
<path d="M974.2,602.8c2.5,0,4.9,0,7.4,0s5.1-0.2,7.9-0.5c-10.9,17.2-22.7,35-35.3,53.3c-13,18.3-27.1,37.3-42.2,57
	c-5.3,7-13.2,16.9-23.7,29.5c-10.9,12.7-23.4,26.9-37.4,42.7c-14.4,16.2-30.1,33.2-46.9,51.2c-17.2,18.3-34.8,36.4-52.7,54.3
	c-18.3,17.9-36.6,35-54.8,51.2c-18.3,16.5-35.9,31.1-52.7,43.8c-17.2,12.7-33.2,22.7-48,30.1s-27.6,11.1-38.5,11.1
	c-9.1,0-16.2-2.8-21.1-8.4c-5.3-5.3-7.9-12.5-7.9-21.6c0-10.5,3-23.4,9-38.5s14.1-31.5,24.3-49c9.8-17.6,21.3-36,34.3-55.4
	c13-19,26.7-38.1,41.1-57.5c14.1-19.3,28.3-38.1,42.7-56.4c14.1-17.9,27.4-34.6,40.1-50.1c12.3-15.5,23.4-29.2,33.2-41.1
	s17.2-21.1,22.1-27.4c15.5-19.7,30.6-38.3,45.4-55.9c14.4-17.2,28.8-33.6,43.2-49c3.5,15.8,9.3,29.5,17.4,41.1
	c-8.1,8.8-15.8,17.6-23.2,26.4c-7.7,9.1-15.6,18.5-23.7,27.9c-8.1,9.8-16.5,20.4-25.3,31.6c-9.1,11.2-19.2,23.6-30.1,36.9
	c-39,48.2-71.4,89.5-97,123.9s-46.4,63.6-62.2,87.5s-27.4,43.1-34.8,57.5c-7.4,14.8-12.1,26-14.2,33.8c11.2-4.2,25-12.3,41.1-24.3
	c16.2-11.6,33.8-25.7,52.7-42.2s38.7-34.8,59.1-54.8c20-20,39.7-40.3,59.1-60.6s37.4-40.4,54.3-60.1c16.9-19.3,31.5-36.9,43.8-52.7
	c12.3-16.2,23.7-31.6,34.3-46.4c10.2-14.8,19.9-28.8,29-42.2C952.4,601.5,962.6,602.8,974.2,602.8 M1214.7,486.2l69.1,69.1l-38,38
	l-69.1-69.1 M1176.7,177.7l68.6-68.6l38,38.5l-68,68 M905.2,177.7l-38.5,38l-68.6-68.6l38-38.5 M1230,323.8h108.1v54.3H1230
	 M1068.1,161.9h-54.3V53.8h54.3V161.9z"/>
<path class="st0" d="M1102.4,390.8c0.7,5.6,1.4,11.2,2.1,16.9c0.4,5.6,0.5,11.2,0.5,16.9c0,22.5-3.3,43.6-10,63.3
	s-15.8,36.9-27.4,51.7s-25.3,26.4-41.1,34.8s-33,12.7-51.7,12.7c-13.4,0-25.8-2.3-37.4-6.9c-12-4.2-22.3-10.5-31.1-19
	c-8.8-8.1-15.6-17.9-20.6-29.5c-5.3-11.6-7.9-24.8-7.9-39.6c0-10.5,1.8-20,5.3-28.5c3.5-8.1,8.4-15.8,14.8-23.2
	c6-7.4,13.2-14.4,21.6-21.1c8.1-6.7,16.9-13.7,26.4-21.1l11.1-8.4c21.8-19.3,36.4-38.5,43.8-57.5s11.1-37.1,11.1-54.3
	c0-6-0.2-11.8-0.5-17.4c-0.7-5.3-1.4-10.5-2.1-15.8c18.6,14.4,34.1,30.1,46.4,46.9c12,16.9,21.4,32.5,28.5,46.9
	c7,14.8,12,27.1,14.8,36.9C1101.2,385.3,1102.4,390.4,1102.4,390.8z"/>
<path class="st1" d="M986.9,216.2c14.1,6,26.7,13,38,21.1s21.3,16.7,30.1,25.8c8.8,9.5,16.5,19,23.2,28.5c6.3,9.8,12,19.3,16.9,28.5
	c11.2,21.8,19.3,44.5,24.3,68c2.1,12.3,3.2,24.3,3.2,35.9c0,24.3-3.5,47.1-10.5,68.6c-7.4,21.8-17.6,40.8-30.6,57
	c-13,16.5-28.7,29.5-46.9,39s-38.3,14.2-60.1,14.2c-15.8,0-30.6-2.6-44.3-7.9c-13.7-4.9-25.7-12.3-35.9-22.1
	c-10.2-9.5-18.3-21.1-24.3-34.8s-9-29-9-45.9c0-13.4,2.5-25.3,7.4-35.9s11.4-20.2,19.5-29c7.7-8.8,16.7-17.1,26.9-24.8
	c9.8-7.7,20-15.8,30.6-24.3c10.9-8.4,19.9-17.2,26.9-26.4s12.7-18.3,16.9-27.4s7.2-18.1,9-26.9c1.4-8.4,2.1-16.3,2.1-23.7
	c0-8.1-0.7-15.8-2.1-23.2c-1.4-7-3-13-4.7-17.9C991.5,226.6,989.4,221.1,986.9,216.2 M1037.5,305.3c-3.5,17.6-10.4,35.2-20.6,52.7
	c-10.5,17.9-26,35.2-46.4,51.7l-10.5,8.4c-10.2,7.7-18.8,14.6-25.8,20.6c-7.4,6.3-13.5,12.3-18.5,17.9s-8.4,11.2-10.5,16.9
	c-2.5,5.6-3.7,11.8-3.7,18.5c0,22.1,6.9,39.4,20.6,51.7s31.1,18.5,52.2,18.5c19,0,35.3-4.2,49-12.7c13.4-8.4,24.4-19.3,33.2-32.7
	c8.4-13.4,14.8-28.3,19-44.8c3.9-16.2,5.8-32.2,5.8-48c0-4.9-0.2-9.8-0.5-14.8s-0.9-9.8-1.6-14.8c0,0-0.5-2.8-1.6-8.4
	c-1.4-5.3-3.7-12.1-6.9-20.6s-7.4-17.9-12.7-28.5S1046,315.9,1037.5,305.3z"/>
</svg>
