<svg height="100%" width="100%" viewBox="0,0,2048,2048" focusable="false"><path type="path" class="OfficeIconColors_HighContrast" d="M 1229 1638 l -145 -386 h -642 l -140 386 h -148 l 546 -1433 h 134 l 543 1433 m -612 -1283 h -4 q -5 26 -12 51 q -7 25 -16 50 l -246 675 h 552 l -247 -675 q -18 -55 -27 -101 m 1108 157 l -189 -189 l -189 189 l -72 -72 l 261 -262 l 262 261 z"></path><path type="path" class="OfficeIconColors_m22" d="M 1229 1638 l -145 -386 h -642 l -140 386 h -148 l 546 -1433 h 134 l 543 1433 m -612 -1283 h -4 q -5 26 -12 51 q -7 25 -16 50 l -246 675 h 552 l -247 -675 q -18 -55 -27 -101 z"></path><path type="path" class="OfficeIconColors_m24" d="M 1873 512 l -189 -189 l -189 189 l -72 -72 l 261 -262 l 262 261 z"></path></svg>