<svg height="100%" width="100%" viewBox="0,0,2048,2048" focusable="false"><path type="path" class="OfficeIconColors_HighContrast" d="M 1951 278 l -261 261 l -262 -262 l 73 -72 l 189 189 l 188 -189 m -507 1433 h -146 l -110 -289 h -496 l -103 289 h -146 l 430 -1126 h 137 m 134 717 l -185 -504 q -4 -9 -8 -28 q -4 -19 -10 -48 h -4 q -6 47 -17 76 l -184 504 z"></path><path type="path" class="OfficeIconColors_m22" d="M 1371 1638 h -146 l -110 -289 h -496 l -103 289 h -146 l 430 -1126 h 137 m 134 717 l -185 -504 q -4 -9 -8 -28 q -4 -19 -10 -48 h -4 q -6 47 -17 76 l -184 504 z"></path><path type="path" class="OfficeIconColors_m24" d="M 1951 278 l -261 261 l -262 -262 l 73 -72 l 189 189 l 188 -189 z"></path></svg>