<?xml version="1.0" encoding="utf-8"?>
<!-- Generator: Adobe Illustrator 27.2.0, SVG Export Plug-In . SVG Version: 6.00 Build 0)  -->
<svg version="1.1" id="Calque_1" focusable="false" xmlns="http://www.w3.org/2000/svg" xmlns:xlink="http://www.w3.org/1999/xlink"
	 x="0px" y="0px" viewBox="0 0 1920 1080" style="enable-background:new 0 0 1920 1080;" xml:space="preserve">
<style type="text/css">
	.st0{fill:#90BCE8;}
	.st1{fill:#366DB3;}
</style>
<path d="M536,909.1L849.3,86h78l188.8,498.3c-3.5,3.2-6.7,6.3-9.5,9.5c-3.2,3.2-6.3,6.3-9.5,9.5c-7.7,8.1-14.4,15.1-20,21.1
	s-10.9,11.4-15.8,16.3s-9.7,9.8-14.2,14.8s-9.7,10.4-15.3,16.3H707.9l-88.6,244.7 M734.3,601.7h304.3L903,232
	c-7.4-20.7-12.7-40.4-15.8-59.1h-2.1c-4.2,20.7-9.7,40.4-16.3,59.1 M1473.1,405c7,7,10.5,16.9,10.5,29.5c0,15.5-4.7,33.8-14.2,54.8
	c-9.8,21.4-22.3,43.9-37.4,67.5c-15.5,23.9-32.5,48-51.2,72.2c-19,24.6-37.6,47.6-55.9,69.1c-18.6,21.8-35.9,41.3-51.7,58.5
	s-28.5,30.6-38,40.1c-6.3,6.3-13.4,13.2-21.1,20.6c-8.1,7.7-16.3,15.5-24.8,23.2s-16.9,15.3-25.3,22.7c-8.4,7.7-16.5,14.9-24.3,21.6
	v11.6c0,24.6-6.5,48-19.5,70.1c-13.4,22.1-30.9,41.7-52.7,58.5s-46.6,30.2-74.4,40.1c-28.1,9.8-57.1,14.8-87,14.8
	c-42.2-3.9-81.4-10.4-117.6-19.5c-15.5-3.9-30.9-8.6-46.4-14.2c-15.8-5.3-30.6-11.6-44.3-19c-13.7-7-26-15.1-36.9-24.3
	s-19.2-19.5-24.8-31.1c1.8,0.4,3.9,0.5,6.3,0.5c2.1,0.4,4.6,0.5,7.4,0.5c2.5,0,5.6,0,9.5,0c12,0,27.1-0.9,45.4-2.6
	c17.9-1.8,36.7-5.8,56.4-12.1c19.7-6,38.8-14.9,57.5-26.9c18.6-11.6,34.6-27.4,48-47.5l5.3-9.5c8.8-15.5,17.4-29.9,25.8-43.2
	s18.1-25,29-34.8c10.9-9.5,23.7-17.1,38.5-22.7s32.9-8.4,54.3-8.4l8.4-9c12.7-14.4,26.2-29.5,40.6-45.4
	c14.1-15.5,27.2-29.4,39.6-41.7c9.1-9.1,22-22.3,38.5-39.6c16.2-17.2,34.5-36,54.8-56.4c20.4-20,42-40.6,64.9-61.7
	s45.4-40.3,67.5-57.5s43.1-31.3,62.8-42.2s36.7-16.3,51.2-16.3C1457.6,395.5,1466.1,398.7,1473.1,405 M907.8,1026.2
	c22.5-0.4,44.5-4.2,65.9-11.6s40.4-17.2,57-29.5c16.5-12,29.9-25.7,40.1-41.1s15.3-31.3,15.3-47.5c0-15.8-2.3-28.8-6.9-39
	c-4.9-10.2-11.1-18.1-18.5-23.7c-7.7-5.6-16.2-9.5-25.3-11.6s-18.1-3.2-26.9-3.2c-10.2,0-18.8,1.4-25.8,4.2
	c-7.4,2.8-14.4,7.4-21.1,13.7c-6.7,6.7-13.2,15.1-19.5,25.3c-6.7,10.5-14.2,23.4-22.7,38.5l-7.4,12.7
	c-15.8,23.9-34.5,43.1-55.9,57.5c-21.4,14.8-43.4,26.2-65.9,34.3c19.7,5.6,39.7,10,60.1,13.2
	C870.7,1021.8,889.9,1024.5,907.8,1026.2 M1124,826.9c11.6-10.9,24.3-22.7,38-35.3c13.7-12.3,25.5-23.4,35.3-33.2
	c23.6-23.6,47.6-49.6,72.2-78c24.6-28.1,47.5-56.1,68.6-83.8s39.4-54,54.8-78.6c15.5-24.3,26.2-44.5,32.2-60.6
	c-8.8,4.2-19.9,11.1-33.2,20.6s-30.1,22.9-50.1,40.1s-43.8,38.8-71.2,64.9c-27.4,26.4-59.4,58.4-96,96c-16.2,16.5-32,32.9-47.5,49
	s-31.8,33.9-49,53.3C1098.5,791.9,1113.8,807.2,1124,826.9z"/>
<path d="M1474.2,402.4l-23.7,63.8c-6.7,19-17.4,40.1-32.2,63.3c-14.8,23.6-31.8,48-51.2,73.3c-19.3,25.7-40.3,51.5-62.8,77.5
	c-22.9,26-45.5,51-68,74.9s-44.1,46.1-64.9,66.4c-21.1,20.4-39.7,37.6-55.9,51.7c-6-22.1-16.2-40.3-30.6-54.3s-32.3-23.9-53.8-29.5
	c7.4-8.4,16-17.9,25.8-28.5c9.5-10.2,19.5-20.7,30.1-31.6c10.2-10.5,20.6-21.1,31.1-31.6c10.2-10.5,19.5-20,27.9-28.5l7.9-8.4
	c61.5-62.6,113.7-113,156.6-151.3s77-63.8,102.3-76.5L1474.2,402.4z"/>
<path d="M1473.1,405c7,7,10.5,16.9,10.5,29.5c0,15.5-4.7,33.8-14.2,54.8c-9.8,21.4-22.3,43.9-37.4,67.5
	c-15.5,23.9-32.5,48-51.2,72.2c-19,24.6-37.6,47.6-55.9,69.1c-18.6,21.8-35.9,41.3-51.7,58.5s-28.5,30.6-38,40.1
	c-8.4,8.4-17.8,17.4-27.9,26.9c-10.5,9.8-21.3,19.7-32.2,29.5s-21.4,19.2-31.6,27.9c-10.2,9.1-19.2,17.1-26.9,23.7
	c-1.1-21.4-6.2-40.8-15.3-58c5.6-5.3,12.7-11.6,21.1-19c8.1-7.4,16.7-15.1,25.8-23.2c8.8-8.1,17.6-16.2,26.4-24.3
	c8.4-8.1,16-15.5,22.7-22.1c23.6-23.6,47.6-49.6,72.2-78c24.6-28.1,47.5-56.1,68.6-83.8s39.4-54,54.8-78.6
	c15.5-24.3,26.2-44.5,32.2-60.6c-8.8,4.2-19.9,11.1-33.2,20.6s-30.1,22.9-50.1,40.1s-43.8,38.8-71.2,64.9
	c-27.4,26.4-59.4,58.4-96,96c-7.4,7.7-16,16.7-25.8,26.9c-9.8,10.5-20,21.3-30.6,32.2c-10.5,11.2-20.9,22.3-31.1,33.2
	c-10.2,11.2-19.3,21.4-27.4,30.6c-17.2-9.1-36.7-14.2-58.5-15.3c6.7-7.7,14.4-16.7,23.2-26.9c8.8-9.8,18.1-20.2,27.9-31.1
	c9.5-10.5,19.2-20.9,29-31.1c9.5-10.2,18.5-19.5,26.9-27.9c9.1-9.1,22-22.3,38.5-39.6c16.2-16.9,34.5-35.5,54.8-55.9
	c20.4-20,42-40.8,64.9-62.2c22.9-21.1,45.4-40.3,67.5-57.5s43.1-31.3,62.8-42.2s36.7-16.3,51.2-16.3
	C1457.6,395.5,1466.1,398.7,1473.1,405z"/>
<path class="st0" d="M905.7,1053.1c-19.7-1.8-40.1-4.6-61.2-8.4c-21.1-3.5-41.5-8.1-61.2-13.7l-81.7-22.7l79.6-28.5
	c23.9-8.4,44.8-19.5,62.8-33.2s33-29.7,45.4-48l6.3-11.1c8.4-15.1,16.5-28.7,24.3-40.6c7.4-11.6,15.3-21.6,23.7-30.1
	c8.4-8.1,17.8-14.2,27.9-18.5s22.5-6.3,36.9-6.3c33,0,58.7,9.1,77,27.4s27.4,43.9,27.4,77c0,13.4-2.6,26.4-7.9,39
	s-12.5,24.8-21.6,36.4c-9.5,11.6-20.6,22.3-33.2,32.2c-13,9.8-27.1,18.3-42.2,25.3c-15.1,7.4-31.1,13.2-48,17.4s-34.1,6.3-51.7,6.3
	H905.7z"/>
<path class="st1" d="M1008.5,765.2c19.7,0,37.6,3,53.8,9s30.1,14.6,41.7,25.8c11.2,11.2,20,25,26.4,41.1c6.3,16.5,9.5,35,9.5,55.4
	c0,24.6-6.5,48-19.5,70.1c-13.4,22.1-30.9,41.7-52.7,58.5s-46.6,30.2-74.4,40.1c-28.1,9.8-57.1,14.8-87,14.8
	c-42.2-3.9-81.4-10.4-117.6-19.5c-15.5-3.9-30.9-8.6-46.4-14.2c-15.8-5.3-30.6-11.6-44.3-19c-13.7-7-26-15.1-36.9-24.3
	s-19.2-19.5-24.8-31.1c1.8,0.4,3.9,0.5,6.3,0.5c2.1,0.4,4.6,0.5,7.4,0.5c2.5,0,5.6,0,9.5,0c12,0,27.1-0.9,45.4-2.6
	c17.9-1.8,36.7-5.8,56.4-12.1c19.7-6,38.8-14.9,57.5-26.9c18.6-11.6,34.6-27.4,48-47.5l5.8-10c7.7-14.1,15.8-27.6,24.3-40.6
	c8.1-13,17.2-24.6,27.4-34.8c10.2-9.8,22.1-17.9,35.9-24.3C973.4,768.2,989.5,765.2,1008.5,765.2 M907.8,1026.2
	c22.5-0.4,44.5-4.2,65.9-11.6s40.4-17.2,57-29.5c16.5-12,29.9-25.7,40.1-41.1s15.3-31.3,15.3-47.5c0-15.8-2.3-28.8-6.9-39
	c-4.9-10.2-11.1-18.1-18.5-23.7c-7.7-5.6-16.2-9.5-25.3-11.6s-18.1-3.2-26.9-3.2c-10.2,0-18.8,1.4-25.8,4.2
	c-7.4,2.8-14.4,7.4-21.1,13.7c-6.7,6.7-13.2,15.1-19.5,25.3c-6.7,10.5-14.2,23.4-22.7,38.5l-7.4,12.7
	c-15.8,23.9-34.5,43.1-55.9,57.5c-21.4,14.8-43.4,26.2-65.9,34.3c19.7,5.6,39.7,10,60.1,13.2
	C870.7,1021.8,889.9,1024.5,907.8,1026.2z"/>
<path d="M536,909.1L849.3,86h78l188.8,498.3c-3.5,3.2-6.7,6.3-9.5,9.5c-3.2,3.2-6.3,6.3-9.5,9.5c-7.7,8.1-14.4,15.1-20,21.1
	s-10.9,11.4-15.8,16.3s-9.7,9.8-14.2,14.8s-9.7,10.4-15.3,16.3H707.9l-88.6,244.7 M734.3,601.7h304.3L903,232
	c-7.4-20.7-12.7-40.4-15.8-59.1h-2.1c-4.2,20.7-9.7,40.4-16.3,59.1L734.3,601.7z"/>
</svg>
