<svg height="100%" width="100%" viewBox="0,0,2048,2048" focusable="false"><path type="path" class="OfficeIconColors_HighContrast" d="M 1638 1519 q -200 117 -503 117 q -167 0 -300 -48 q -133 -48 -226 -138 q -93 -89 -143 -218 q -50 -128 -50 -290 q 0 -160 55 -295 q 54 -135 155 -234 q 100 -98 242 -153 q 142 -55 318 -55 q 220 0 388 61 v 292 q -162 -93 -392 -93 q -96 0 -176 33 q -80 33 -138 93 q -59 61 -91 146 q -33 86 -33 191 q 0 106 28 189 q 28 83 81 140 q 52 57 127 87 q 75 30 169 30 q 57 0 103 -8 q 46 -7 79 -23 v -271 h -307 v -248 h 614 z"></path><path type="path" class="OfficeIconColors_m22" d="M 1638 1519 q -200 117 -503 117 q -167 0 -300 -48 q -133 -48 -226 -138 q -93 -89 -143 -218 q -50 -128 -50 -290 q 0 -160 55 -295 q 54 -135 155 -234 q 100 -98 242 -153 q 142 -55 318 -55 q 220 0 388 61 v 292 q -162 -93 -392 -93 q -96 0 -176 33 q -80 33 -138 93 q -59 61 -91 146 q -33 86 -33 191 q 0 106 28 189 q 28 83 81 140 q 52 57 127 87 q 75 30 169 30 q 57 0 103 -8 q 46 -7 79 -23 v -271 h -307 v -248 h 614 z"></path></svg>