<?xml version="1.0" encoding="utf-8"?>
<!-- Generator: Adobe Illustrator 27.2.0, SVG Export Plug-In . SVG Version: 6.00 Build 0)  -->
<svg version="1.1" id="Calque_1" focusable="false" xmlns="http://www.w3.org/2000/svg" xmlns:xlink="http://www.w3.org/1999/xlink"
	 x="0px" y="0px" viewBox="0 0 1920 1080" style="enable-background:new 0 0 1920 1080;" xml:space="preserve">
<style type="text/css">
	.st0{fill:#2A62B2;}
	.st1{fill:#3376CD;}
	.st2{fill:#438ED9;}
	.st3{fill:#53A6E4;}
</style>
<path d="M1295.4,439.3c28.8,1.8,55.7,8.8,80.7,21.1c24.6,12.3,46.2,28.3,64.9,48c18.3,19.7,32.7,42.4,43.2,68s15.8,52.9,15.8,81.7
	c0,31.6-6,60.8-17.9,87.5s-27.9,49.7-48,69.1c-20.4,19.7-43.8,35-70.1,45.9c-26.7,11.2-54.5,16.9-83.3,16.9H690
	c-23.9,0-47.1-3.2-69.6-9.5c-22.9-6.3-44.3-15.3-64.3-26.9c-20-11.2-38.3-25.1-54.8-41.7c-16.5-16.2-30.8-34.3-42.7-54.3
	c-12.3-20-21.8-41.7-28.5-64.9s-10-47.5-10-72.8c0-36.9,7-71.7,21.1-104.4c14.1-32.3,33.2-60.8,57.5-85.4c23.9-24.3,52-43.6,84.4-58
	c32.3-14.1,67-21.4,103.9-22.1c15.8-23.6,34.1-44.8,54.8-63.8c20.4-18.6,42.7-34.6,67-48c23.9-13,49.4-23,76.5-30.1
	c27.1-6.7,54.8-10,83.3-10c38.7,0,75.8,6.2,111.3,18.5c35.2,12.7,67.1,30.1,96,52.2c28.8,22.5,53.6,49.2,74.4,80.2
	C1270.8,367.7,1285.9,402,1295.4,439.3 M1432.5,658.1c0-20-3.7-39-11.1-57c-7.4-17.6-17.4-33.2-30.1-46.9
	c-12.7-13.4-27.6-24.3-44.8-32.7s-35.7-13.4-55.4-14.8l-22.7-1.6c-23.2,0-45.5,4.6-67,13.7l-77.5,32.7l291.6,174.6
	C1426.9,704.7,1432.5,682,1432.5,658.1 M968.4,253.1c-40.1,0-77.9,8.3-113.4,24.8c-35.9,16.5-66.4,39.9-91.8,70.1
	c13,3.9,25.7,8.4,38,13.7s24.3,11.4,35.9,18.5l215.2,128.7l122.9-51.7c8.1-3.5,16.3-6.7,24.8-9.5c8.4-2.5,16.9-4.4,25.3-5.8
	c-8.8-27.8-21.4-53.3-38-76.5c-16.9-23.2-36.6-43.2-59.1-60.1c-22.5-16.5-47.3-29.4-74.4-38.5C1026.4,257.7,998,253.1,968.4,253.1
	 M487.5,607.5c0,10.2,0.9,20.9,2.6,32.2c1.4,11.2,3.9,22.1,7.4,32.7c3.5,10.9,7.9,21.1,13.2,30.6c4.9,9.8,11.1,18.5,18.5,25.8
	l445.6-187.7L802.3,437.7c-17.9-10.5-36.4-18.6-55.4-24.3c-19.3-5.6-39.2-8.4-59.6-8.4c-27.4,0-53.3,5.3-77.5,15.8
	c-24.3,10.9-45.4,25.5-63.3,43.8c-18.3,18.6-32.7,40.3-43.2,64.9S487.5,580.1,487.5,607.5 M1280.6,810c16.9,0,33-2.8,48.5-8.4
	c15.1-5.6,29.2-13.4,42.2-23.2L1047,584.3L584.5,778.9c15.8,9.8,32.7,17.4,50.6,22.7c17.6,5.6,35.9,8.4,54.8,8.4H1280.6z"/>
<path class="st0" d="M686.3,337.5c15.1-22.9,32.9-43.6,53.3-62.2c20-18.6,42.2-34.6,66.4-48s50.1-23.7,77.5-31.1
	c27.1-7,55.4-10.5,84.9-10.5c39.4,0,76.8,6.3,112.3,19s67.7,30.2,96.5,52.7c28.5,22.9,52.9,49.7,73.3,80.7s35.3,64.7,44.8,101.2
	L1058.6,569L686.3,337.5z"/>
<path class="st1" d="M1058.6,513.6L852.9,762H468.5c-15.5-22.1-27.4-46.2-35.9-72.2S420,636.3,420,607.5c0-36.9,7-71.7,21.1-104.4
	c13.7-32.3,32.7-60.8,57-85.4c23.9-24.3,52-43.6,84.4-58s67-21.8,103.9-22.1h2.6c26.7,0,52,3.5,75.9,10.5
	c23.6,7.4,45.9,17.2,67,29.5L1058.6,513.6z"/>
<path class="st2" d="M1295.4,439.3c28.5,1.8,55.2,8.6,80.2,20.6c25,12.3,46.8,28.3,65.4,48c18.3,19.7,32.7,42.4,43.2,68
	c10.5,26,15.8,53.4,15.8,82.3c0,19-2.3,37.1-6.9,54.3c-4.6,17.6-11.1,34.1-19.5,49.6l-296.9-50.1l-118.1-198.3l135-57
	c13-5.3,26.4-9.7,40.1-13.2c13.7-3.2,27.9-4.7,42.7-4.7h3.2c2.8,0,5.4,0,7.9,0S1292.6,438.9,1295.4,439.3z"/>
<path class="st3" d="M1058.6,513.6c75.9,45.4,144.1,86.1,204.6,122.3c25.7,15.5,51,30.6,75.9,45.4c24.6,14.8,46.8,27.9,66.4,39.6
	c19.3,12,35.3,21.6,48,29c12.3,7.7,19,11.8,20,12.1c-9.1,17.2-20.4,32.9-33.8,46.9c-13.7,14.4-28.8,26.5-45.4,36.4
	c-16.5,10.2-34.5,18.1-53.8,23.7s-39.4,8.4-60.1,8.4H690c-22.1,0-43.6-2.6-64.3-7.9c-21.1-5.3-41.1-13-60.1-23.2
	c-19-9.8-36.7-22-53.3-36.4c-16.5-14.1-31.3-30.1-44.3-48L1058.6,513.6z"/>
</svg>
