<?xml version="1.0" encoding="utf-8"?>
<!-- Generator: Adobe Illustrator 27.2.0, SVG Export Plug-In . SVG Version: 6.00 Build 0)  -->
<svg version="1.1" id="Calque_1" focusable="false" xmlns="http://www.w3.org/2000/svg" xmlns:xlink="http://www.w3.org/1999/xlink"
	 x="0px" y="0px" viewBox="0 0 1920 1080" style="enable-background:new 0 0 1920 1080;" xml:space="preserve">
<style type="text/css">
	.st0{fill:#335EB9;}
</style>
<path d="M1446.7,50.6c17.2,17.6,30.2,37.1,39,58.5c8.4,21.8,12.7,44.1,12.7,67s-4.2,45-12.7,66.4c-8.8,21.8-21.8,41.3-39,58.5
	L765.4,982.4L420,1077.9l95.4-345.4l681.3-681.9c16.9-16.9,36-29.4,57.5-37.4s43.8-12.1,67-12.1s45.7,4,67.5,12.1
	S1429.9,33.8,1446.7,50.6 M705.3,928.7c-12-31.6-29.7-59.4-53.3-83.3c-23.9-23.6-51.7-41.3-83.3-53.3l-52.2,188.8 M1314.9,337.5
	L1160.4,183L607.2,735.6c34.8,15.5,65.6,36.4,92.3,62.8c26.4,26.7,47.3,57.5,62.8,92.3 M1399.3,253.1c10.5-10.5,18.5-22.5,23.7-35.9
	s7.9-27.1,7.9-41.1c0-14.8-2.8-28.7-8.4-41.7s-13.4-24.4-23.2-34.3s-21.4-17.8-34.8-23.7c-13.4-5.6-27.8-8.4-43.2-8.4
	c-14.4,0-28.3,2.5-41.7,7.4c-13.4,5.3-25.1,13-35.3,23.2l-36.4,36.4l155,154.5L1399.3,253.1z"/>
<path class="st0" d="M1446.7,50.6c17.2,17.6,30.2,37.1,39,58.5c8.4,21.8,12.7,44.1,12.7,67s-4.2,45-12.7,66.4
	c-8.8,21.8-21.8,41.3-39,58.5L765.4,982.4L420,1077.9l95.4-345.4l681.3-681.9c16.9-16.9,36-29.4,57.5-37.4s43.8-12.1,67-12.1
	s45.7,4,67.5,12.1S1429.9,33.8,1446.7,50.6 M705.3,928.7c-12-31.6-29.7-59.4-53.3-83.3c-23.9-23.6-51.7-41.3-83.3-53.3l-52.2,188.8
	 M1314.9,337.5L1160.4,183L607.2,735.6c34.8,15.5,65.6,36.4,92.3,62.8c26.4,26.7,47.3,57.5,62.8,92.3 M1399.3,253.1
	c10.5-10.5,18.5-22.5,23.7-35.9s7.9-27.1,7.9-41.1c0-14.8-2.8-28.7-8.4-41.7s-13.4-24.4-23.2-34.3s-21.4-17.8-34.8-23.7
	c-13.4-5.6-27.8-8.4-43.2-8.4c-14.4,0-28.3,2.5-41.7,7.4c-13.4,5.3-25.1,13-35.3,23.2l-36.4,36.4l155,154.5L1399.3,253.1z"/>
</svg>
