<?xml version="1.0" encoding="utf-8"?>
<!-- Generator: Adobe Illustrator 27.2.0, SVG Export Plug-In . SVG Version: 6.00 Build 0)  -->
<svg version="1.1" id="Calque_1" focusable="false" xmlns="http://www.w3.org/2000/svg" xmlns:xlink="http://www.w3.org/1999/xlink"
	 x="0px" y="0px" viewBox="0 0 1920 1080" style="enable-background:new 0 0 1920 1080;" xml:space="preserve">
<style type="text/css">
	.st0{fill:#FFFFFF;}
</style>
<path d="M1095,540h-12.1c-10.2,0-25.5,0.5-45.9,1.6c-20.7,1.1-44.5,3.7-71.2,7.9s-55.5,10.5-86.5,19c-30.9,8.8-61.7,20.6-92.3,35.3
	c-30.9,15.1-60.6,33.9-89.1,56.4c-28.5,22.9-53.6,50.3-75.4,82.3c-0.4-2.8-0.7-6.2-1.1-10c-0.4-3.2-0.5-7.2-0.5-12.1
	c0-4.6,0-9.8,0-15.8c0-14.4,0.9-32,2.6-52.7c1.4-20.7,4.7-43.4,10-68s12.8-50.3,22.7-77c9.5-26.7,22.1-53.3,38-79.6
	s35.5-51.9,59.1-76.5c23.2-24.6,51.2-46.9,83.8-67c32.3-20,69.8-37.3,112.3-51.7c42.5-14.1,91.1-23.9,145.5-29.5v-183l351.2,351.7
	L1095,723 M702.1,574.8c37.6-22.1,75.9-39.9,115-53.3C855.8,508.2,893,498,928.9,491s69.1-11.8,99.7-14.2c30.6-2.1,56.6-3.2,78-3.2
	c8.8,0,16.7,0,23.7,0c7,0.4,13,0.7,17.9,1.1c5.6,0.4,10.5,0.7,14.8,1.1v83.8l188.3-188.3L1163,183v80.2l-60.1,6.3
	c-56.6,6-107.4,17.4-152.4,34.3s-84.2,38.3-117.6,64.3c-33.4,26.4-61,57-82.8,91.8S712.3,533,702.1,574.8 M1297.5,675v405H420V405
	h67.5v607.5H1230V675H1297.5z"/>
<path class="st0" d="M1095,540h-12.1c-10.2,0-25.5,0.5-45.9,1.6c-20.7,1.1-44.5,3.7-71.2,7.9s-55.5,10.5-86.5,19
	c-30.9,8.8-61.7,20.6-92.3,35.3c-30.9,15.1-60.6,33.9-89.1,56.4c-28.5,22.9-53.6,50.3-75.4,82.3c-0.4-2.8-0.7-6.2-1.1-10
	c-0.4-3.2-0.5-7.2-0.5-12.1c0-4.6,0-9.8,0-15.8c0-14.4,0.9-32,2.6-52.7c1.4-20.7,4.7-43.4,10-68s12.8-50.3,22.7-77
	c9.5-26.7,22.1-53.3,38-79.6s35.5-51.9,59.1-76.5c23.2-24.6,51.2-46.9,83.8-67c32.3-20,69.8-37.3,112.3-51.7
	c42.5-14.1,91.1-23.9,145.5-29.5v-183l351.2,351.7L1095,723 M702.1,574.8c37.6-22.1,75.9-39.9,115-53.3
	C855.8,508.2,893,498,928.9,491s69.1-11.8,99.7-14.2c30.6-2.1,56.6-3.2,78-3.2c8.8,0,16.7,0,23.7,0c7,0.4,13,0.7,17.9,1.1
	c5.6,0.4,10.5,0.7,14.8,1.1v83.8l188.3-188.3L1163,183v80.2l-60.1,6.3c-56.6,6-107.4,17.4-152.4,34.3s-84.2,38.3-117.6,64.3
	c-33.4,26.4-61,57-82.8,91.8S712.3,533,702.1,574.8 M1297.5,675v405H420V405h67.5v607.5H1230V675H1297.5z"/>
</svg>
