<?xml version="1.0" encoding="utf-8"?>
<!-- Generator: Adobe Illustrator 27.2.0, SVG Export Plug-In . SVG Version: 6.00 Build 0)  -->
<svg version="1.1" id="Calque_1" focusable="false" xmlns="http://www.w3.org/2000/svg" xmlns:xlink="http://www.w3.org/1999/xlink"
	 x="0px" y="0px" viewBox="0 0 1920 1080" style="enable-background:new 0 0 1920 1080;" xml:space="preserve">
<style type="text/css">
	.st0{fill:#FFFFFF;}
	.st1{fill:#4389C8;}
</style>
<path d="M1338.1,0v161.9h-54.3v-53.8H798.1v53.8h-54.3V0h54.3v53.8h485.7V0 M528.1,216.2H690V270h-53.8v701.9H690v54.3H528.1v-54.3
	h53.8V270h-53.8 M1338.1,481.5v544.7H743.8v-810h378.1v2.6 M1121.9,486.2h149.8l-149.8-182.5 M1283.8,540h-215.7V270h-270v701.9
	h485.7V540z"/>
<path class="st0" d="M771.2,998.8V243.1h335.9L1311.2,491v507.8H771.2z"/>
<path d="M1338.1,481.5v544.7H743.8v-810h378.1v2.6 M1121.9,486.2h149.8l-149.8-182.5 M1283.8,540h-215.7V270h-270v701.9h485.7V540z"
	/>
<path class="st1" d="M1338.1,0v161.9h-54.3v-53.8H798.1v53.8h-54.3V0h54.3v53.8h485.7V0 M528.1,216.2H690V270h-53.8v701.9H690v54.3
	H528.1v-54.3h53.8V270h-53.8V216.2z"/>
</svg>
