<?xml version="1.0" encoding="utf-8"?>
<!-- Generator: Adobe Illustrator 27.2.0, SVG Export Plug-In . SVG Version: 6.00 Build 0)  -->
<svg version="1.1" id="Calque_1" focusable="false" xmlns="http://www.w3.org/2000/svg" xmlns:xlink="http://www.w3.org/1999/xlink"
	 x="0px" y="0px" viewBox="0 0 1920 1080" style="enable-background:new 0 0 1920 1080;" xml:space="preserve">
<style type="text/css">
	.st0{fill:#4389C8;}
</style>
<path d="M743.8,296.9l38.5-38l123.9,123.4V53.8H960v328.5l123.9-123.4l38,38L933.1,486.2 M1446.2,593.8H473.8V540h972.4 M1446.2,810
	H473.8v-53.8h972.4 M1446.2,1026.2H473.8v-54.3h972.4V1026.2z"/>
<path class="st0" d="M743.8,296.9l38.5-38l123.9,123.4V53.8H960v328.5l123.9-123.4l38,38L933.1,486.2L743.8,296.9z"/>
<path d="M1446.2,593.8H473.8V540h972.4 M1446.2,810H473.8v-53.8h972.4 M1446.2,1026.2H473.8v-54.3h972.4V1026.2z"/>
</svg>
