<?xml version="1.0" encoding="utf-8"?>
<!-- Generator: Adobe Illustrator 27.2.0, SVG Export Plug-In . SVG Version: 6.00 Build 0)  -->
<svg version="1.1" id="Calque_1" focusable="false" xmlns="http://www.w3.org/2000/svg" xmlns:xlink="http://www.w3.org/1999/xlink"
	 x="0px" y="0px" viewBox="0 0 1920 1080" style="enable-background:new 0 0 1920 1080;" xml:space="preserve">
<style type="text/css">
	.st0{fill:#FFFFFF;}
	.st1{fill:#DB4C44;}
	.st2{fill:#73A9DC;}
	.st3{fill:#4389C8;}
</style>
<path d="M905.7,378.1H743.8v-54.3h161.9 M1055.4,540H851.9v-53.8h215.7v41.7 M893.6,701.9H743.8v-53.8h203.6 M707.9,1026.2h-126
	V53.8h485.2l240.5,240.5c-5.3,3.5-10.4,7-15.3,10.5c-4.9,3.9-9.7,8.1-14.2,12.7l-60.6,60.6h-204.1v-270H635.7v863.8H729
	 M1067.6,323.8h193l-193-193 M1337.1,715.1v311.1h-313.2l54.3-54.3h205.1V768.3 M1468.4,355.4c10.5,10.5,18.5,22.5,23.7,35.9
	s7.9,26.9,7.9,40.6c0,14.1-2.6,27.6-7.9,40.6c-5.3,13.4-13.2,25.3-23.7,35.9l-483,479.9l-239.4,88.1l96.5-246.8L1316,355.4
	c10.2-10.2,22-17.9,35.3-23.2s26.9-7.9,40.6-7.9c14.1,0,27.8,2.6,41.1,7.9C1446,337.5,1457.8,345.2,1468.4,355.4 M907.3,841.1
	c31.6,18.6,57.1,43.9,76.5,75.9L1384,516.8l-76.5-76.5 M838.7,984.6l100.2-36.4c-15.1-26.7-36-47.6-62.8-62.8 M1430.4,470.4
	c5.3-5.3,9.3-11.2,12.1-17.9c2.5-6.3,3.7-13,3.7-20c0-7.4-1.4-14.4-4.2-21.1c-2.8-6.3-6.7-12.1-11.6-17.4
	c-5.3-4.9-11.1-8.8-17.4-11.6c-6.7-2.8-13.7-4.2-21.1-4.2c-7,0-13.7,1.2-20,3.7c-6.7,2.8-12.7,6.9-17.9,12.1l-8.4,8.4l76.5,75.9
	L1430.4,470.4z"/>
<path class="st0" d="M720.1,994.6H608.8V81.2h443l233.6,229.9c-1.1,1.1-2.3,1.9-3.7,2.6c-1.4,1.1-2.6,2.3-3.7,3.7l-481.5,482
	 M1310.2,741.4v253.1h-254.7L1310.2,741.4z"/>
<path class="st1" d="M905.7,378.1H743.8v-54.3h161.9 M1055.4,540H851.9v-53.8h215.7v41.7 M893.6,701.9H743.8v-53.8h203.6
	L893.6,701.9z"/>
<path d="M707.9,1026.2h-126V53.8h485.2l240.5,240.5c-5.3,3.5-10.4,7-15.3,10.5c-4.9,3.9-9.7,8.1-14.2,12.7l-60.6,60.6h-204.1v-270
	H635.7v863.8H729 M1067.6,323.8h193l-193-193 M1337.1,715.1v311.1h-313.2l54.3-54.3h205.1V768.3L1337.1,715.1z"/>
<path class="st0" d="M852.4,861.7c84.4-94.9,163.1-179.6,236.2-254.2c20.7-21.1,41.7-42.2,62.8-63.3c21.1-20.7,41.8-40.6,62.2-59.6
	c20-18.6,39.6-36,58.5-52.2c18.6-16.2,36-30.2,52.2-42.2c15.8-11.6,30.2-20.7,43.2-27.4c12.7-6.7,23.2-10,31.6-10
	c2.8,0,4.9,0.2,6.3,0.5c14.4,3.9,26.4,8.8,35.9,14.8c9.1,6,16.3,12.5,21.6,19.5s9,14.2,11.1,21.6c2.1,7.7,3.2,15.1,3.2,22.1
	c0,6-0.5,11.6-1.6,16.9c-1.1,5.6-2.3,10.4-3.7,14.2c-1.4,4.6-3,9-4.7,13.2l-504.7,501L852.4,861.7z"/>
<path class="st2" d="M861.4,848.5c27.1,9.5,50.6,24.3,70.7,44.3c19.7,20,34.3,43.4,43.8,70.1l-190.9,76.5L861.4,848.5z"/>
<path class="st3" d="M1468.4,355.4c10.5,10.5,18.5,22.5,23.7,35.9s7.9,26.9,7.9,40.6c0,14.1-2.6,27.6-7.9,40.6
	c-5.3,13.4-13.2,25.3-23.7,35.9l-483,479.9l-239.4,88.1l96.5-246.8L1316,355.4c10.2-10.2,22-17.9,35.3-23.2s26.9-7.9,40.6-7.9
	c14.1,0,27.8,2.6,41.1,7.9C1446,337.5,1457.8,345.2,1468.4,355.4 M907.3,841.1c31.6,18.6,57.1,43.9,76.5,75.9L1384,516.8l-76.5-76.5
	 M838.7,984.6l100.2-36.4c-15.1-26.7-36-47.6-62.8-62.8 M1430.4,470.4c5.3-5.3,9.3-11.2,12.1-17.9c2.5-6.3,3.7-13,3.7-20
	c0-7.4-1.4-14.4-4.2-21.1c-2.8-6.3-6.7-12.1-11.6-17.4c-5.3-4.9-11.1-8.8-17.4-11.6c-6.7-2.8-13.7-4.2-21.1-4.2
	c-7,0-13.7,1.2-20,3.7c-6.7,2.8-12.7,6.9-17.9,12.1l-8.4,8.4l76.5,75.9L1430.4,470.4z"/>
</svg>
