<?xml version="1.0" encoding="utf-8"?>
<!-- Generator: Adobe Illustrator 27.2.0, SVG Export Plug-In . SVG Version: 6.00 Build 0)  -->
<svg version="1.1" id="Calque_1" focusable="false" xmlns="http://www.w3.org/2000/svg" xmlns:xlink="http://www.w3.org/1999/xlink"
	 x="0px" y="0px" viewBox="0 0 1920 1080" style="enable-background:new 0 0 1920 1080;" xml:space="preserve">
<style type="text/css">
	.st0{fill:#FFFFFF;}
	.st1{fill:#4389C8;}
</style>
<path d="M420,216.2h490.4L732.7,38l38.5-38l242.6,243.1L771.2,486.2l-38.5-38.5L910.4,270H420 M1446.2,108.1v648.1H907.3l-271.1,270
	v-270H473.8V323.8h54.3v378.1H690v193.5l193.5-193.5h508.4v-540h-344.4l-53.8-53.8H1446.2z"/>
<path class="st0" d="M1418.8,135v593.8H896.2l-233.1,232v-232H501.2v-405h242.6L618.3,447.7l152.9,152.9l357.5-357.5L1020.6,135
	H1418.8z"/>
<path d="M1446.2,108.1v648.1H907.3l-271.1,270v-270H473.8V323.8h54.3v378.1H690v193.5l193.5-193.5h508.4v-540h-344.4l-53.8-53.8
	H1446.2z"/>
<path class="st1" d="M420,216.2h490.4L732.7,38l38.5-38l242.6,243.1L771.2,486.2l-38.5-38.5L910.4,270H420V216.2z"/>
</svg>
