<?xml version="1.0" encoding="utf-8"?>
<!-- Generator: Adobe Illustrator 27.2.0, SVG Export Plug-In . SVG Version: 6.00 Build 0)  -->
<svg version="1.1" id="Calque_1" focusable="false" xmlns="http://www.w3.org/2000/svg" xmlns:xlink="http://www.w3.org/1999/xlink"
	 x="0px" y="0px" viewBox="0 0 1920 1080" style="enable-background:new 0 0 1920 1080;" xml:space="preserve">
<style type="text/css">
	.st0{fill:#FFFFFF;}
	.st1{fill:#DB4344;}
</style>
<path d="M724.8,270L960,505.2L925.2,540L690,304.8L454.8,540L420,505.2L655.2,270L420,34.8L454.8,0L690,235.2L925.2,0L960,34.8
	 M1446.2,108.1v648.1H907.3l-271.1,270v-270H473.8V635.4l54.3-54.3v120.8H690v193.5l193.5-193.5h508.4v-540H947.3l53.8-53.8H1446.2z
	"/>
<path class="st0" d="M1418.8,135v593.8H896.2l-233.1,232v-232H501.2V608L690,419.2l235.2,235.2l149.2-149.2L839.2,270l135-135
	H1418.8z"/>
<path d="M1446.2,108.1v648.1H907.3l-271.1,270v-270H473.8V635.4l54.3-54.3v120.8H690v193.5l193.5-193.5h508.4v-540H947.3l53.8-53.8
	H1446.2z"/>
<path class="st1" d="M724.8,270L960,505.2L925.2,540L690,304.8L454.8,540L420,505.2L655.2,270L420,34.8L454.8,0L690,235.2L925.2,0
	L960,34.8L724.8,270z"/>
</svg>
