<?xml version="1.0" encoding="utf-8"?>
<!-- Generator: Adobe Illustrator 27.2.0, SVG Export Plug-In . SVG Version: 6.00 Build 0)  -->
<svg version="1.1" id="Calque_1" focusable="false" xmlns="http://www.w3.org/2000/svg" xmlns:xlink="http://www.w3.org/1999/xlink"
	 x="0px" y="0px" viewBox="0 0 1920 1080" style="enable-background:new 0 0 1920 1080;" xml:space="preserve">
<style type="text/css">
	.st0{fill:#FFFFFF;}
	.st1{fill:#DB4C44;}
	.st2{fill:#569C57;}
</style>
<path d="M743.8,794.2l38.5-38l231.5,231.5L1462,540l38,38l-486.2,486.2 M851.9,486.2h216.2V540H851.9 M906.2,378.1H743.8v-54.3
	h162.4 M788.6,648.1h225.2v53.8H842.9 M861.4,1026.2H581.9V53.8h485.7l270.5,270v225.7l-54.3,53.8V378.1h-270v-270H636.2v863.8
	h170.9 M1068.1,323.8h193.5l-193.5-193V323.8z"/>
<path class="st0" d="M829.7,994.6h-221V81.2h443.5l258.9,254.2v241l-297.4,296.9l-231.5-232L629.4,794.2L829.7,994.6z"/>
<path class="st1" d="M851.9,486.2h216.2V540H851.9 M906.2,378.1H743.8v-54.3h162.4 M788.6,648.1h225.2v53.8H842.9L788.6,648.1z"/>
<path d="M861.4,1026.2H581.9V53.8h485.7l270.5,270v225.7l-54.3,53.8V378.1h-270v-270H636.2v863.8h170.9 M1068.1,323.8h193.5
	l-193.5-193V323.8z"/>
<path class="st2" d="M1013.8,1064.2l-270-270l38.5-38l231.5,231.5L1462,540l38,38L1013.8,1064.2z"/>
</svg>
