<?xml version="1.0" encoding="utf-8"?>
<!-- Generator: Adobe Illustrator 27.2.0, SVG Export Plug-In . SVG Version: 6.00 Build 0)  -->
<svg version="1.1" id="Calque_1" focusable="false" xmlns="http://www.w3.org/2000/svg" xmlns:xlink="http://www.w3.org/1999/xlink"
	 x="0px" y="0px" viewBox="0 0 1920 1080" style="enable-background:new 0 0 1920 1080;" xml:space="preserve">
<style type="text/css">
	.st0{fill:#FFFFFF;}
	.st1{fill:#4389C8;}
</style>
<path d="M743.8,648.1h324.3v53.8H743.8 M1176.2,540H851.9v-53.8h324.3 M743.8,431.9c0,14.8-2.8,28.7-8.4,41.7
	c-5.6,13.4-13.2,25-22.7,34.8c-9.8,9.8-21.3,17.6-34.3,23.2c-13.4,5.6-27.4,8.4-42.2,8.4s-28.7-2.8-41.7-8.4
	c-13.4-5.6-25-13.4-34.8-23.2s-17.6-21.4-23.2-34.8c-5.6-13-8.4-26.9-8.4-41.7s2.8-28.8,8.4-42.2c5.6-13,13.4-24.4,23.2-34.3
	s21.4-17.6,34.8-23.2c13-5.6,26.9-8.4,41.7-8.4s28.8,2.8,42.2,8.4c13,5.6,24.4,13.4,34.3,23.2c9.5,9.8,17.1,21.3,22.7,34.3
	C741,403.1,743.8,417.1,743.8,431.9 M1338.1,323.8v702.4H581.9v-414c8.8,2.8,17.8,4.9,26.9,6.3c8.8,1.8,17.9,2.6,27.4,2.6v350.7
	h647.6V378.1h-270v-270H636.2v135c-9.5,0-18.6,0.7-27.4,2.1c-9.1,1.8-18.1,4-26.9,6.9V53.8h485.7 M1261.6,323.8l-193.5-193v193
	H1261.6z"/>
<path class="st0" d="M1311.2,335.4v663.4H608.8V618c4.6,0.7,9.1,1.4,13.7,2.1c4.2,0.7,8.8,1.1,13.7,1.1c26,0,50.4-4.9,73.3-14.8
	s42.9-23.4,60.1-40.6s30.8-37.4,40.6-60.6c9.8-22.9,14.8-47.3,14.8-73.3s-4.9-50.4-14.8-73.3s-23.4-42.9-40.6-60.1
	s-37.3-30.8-60.1-40.6s-47.3-14.8-73.3-14.8c-4.9,0-9.5,0.2-13.7,0.5c-4.6,0.7-9.1,1.4-13.7,2.1V81.2h443.5L1311.2,335.4z"/>
<path class="st1" d="M1068.1,701.9H743.8v-53.8h324.3 M1176.2,540H851.9v-53.8h324.3V540z"/>
<path d="M1338.1,323.8v702.4H581.9v-414c8.8,2.8,17.8,4.9,26.9,6.3c8.8,1.8,17.9,2.6,27.4,2.6v350.7h647.6V378.1h-270v-270H636.2
	v135c-9.5,0-18.6,0.7-27.4,2.1c-9.1,1.8-18.1,4-26.9,6.9V53.8h485.7 M1261.6,323.8l-193.5-193v193H1261.6z"/>
<path class="st0" d="M636.2,513.1c-11.2,0-21.8-2.1-31.6-6.3s-18.5-10-25.8-17.4s-13.2-16-17.4-25.8s-6.3-20.4-6.3-31.6
	s2.1-21.8,6.3-31.6s10-18.5,17.4-25.8c7.4-7,16-12.7,25.8-16.9s20.4-6.3,31.6-6.3c10.9,0,21.3,2.1,31.1,6.3s18.5,9.8,25.8,16.9
	c7.4,7.4,13.2,16,17.4,25.8s6.3,20.4,6.3,31.6s-2.1,21.8-6.3,31.6s-10,18.5-17.4,25.8s-16,13.2-25.8,17.4S647.1,513.1,636.2,513.1z"
	/>
<path class="st1" d="M636.2,323.8c14.8,0,28.8,2.8,42.2,8.4c13,5.6,24.4,13.4,34.3,23.2c9.5,9.8,17.1,21.3,22.7,34.3
	c5.6,13.4,8.4,27.4,8.4,42.2s-2.8,28.7-8.4,41.7c-5.6,13.4-13.2,25-22.7,34.8c-9.8,9.8-21.3,17.6-34.3,23.2
	c-13.4,5.6-27.4,8.4-42.2,8.4s-28.7-2.8-41.7-8.4c-13.4-5.6-25-13.4-34.8-23.2s-17.6-21.4-23.2-34.8c-5.6-13-8.4-26.9-8.4-41.7
	s2.8-28.8,8.4-42.2c5.6-13,13.4-24.4,23.2-34.3s21.4-17.6,34.8-23.2C607.6,326.6,621.4,323.8,636.2,323.8 M636.2,486.2
	c7.4,0,14.4-1.4,21.1-4.2c6.3-2.8,12-6.7,16.9-11.6s8.8-10.7,11.6-17.4s4.2-13.7,4.2-21.1s-1.4-14.4-4.2-21.1
	c-2.8-6.3-6.7-12-11.6-16.9s-10.5-8.8-16.9-11.6c-6.7-2.8-13.7-4.2-21.1-4.2s-14.4,1.4-21.1,4.2s-12.5,6.7-17.4,11.6
	s-8.8,10.5-11.6,16.9c-2.8,6.7-4.2,13.7-4.2,21.1s1.4,14.4,4.2,21.1s6.7,12.5,11.6,17.4s10.7,8.8,17.4,11.6S628.8,486.2,636.2,486.2
	z"/>
</svg>
