<?xml version="1.0" encoding="utf-8"?>
<!-- Generator: Adobe Illustrator 27.2.0, SVG Export Plug-In . SVG Version: 6.00 Build 0)  -->
<svg version="1.1" id="Calque_1" focusable="false" xmlns="http://www.w3.org/2000/svg" xmlns:xlink="http://www.w3.org/1999/xlink"
	 x="0px" y="0px" viewBox="0 0 1920 1080" style="enable-background:new 0 0 1920 1080;" xml:space="preserve">
<style type="text/css">
	.st0{fill:#326CB8;}
	.st1{fill:#387A26;}
</style>
<path d="M1414,331.7c10.2,11.2,17.9,23.7,23.2,37.4s7.9,28.5,7.9,44.3c0,22.9-4.4,43.4-13.2,61.7c-9.1,18.6-20.4,35.2-33.8,49.6
	s-28.1,26.7-44.3,36.9c-16.2,10.5-31.3,19.2-45.4,25.8c-14.1,7-26.2,12.1-36.4,15.3c-10.5,3.2-16.9,4.7-19,4.7
	c-0.7,0-2.3-0.4-4.7-1.1s-4.9-1.9-7.4-3.7c-2.8-1.4-5.3-3.3-7.4-5.8s-3.2-5.3-3.2-8.4c0-3.9,1.6-7.4,4.7-10.5
	c2.8-3.2,8.1-5.3,15.8-6.3c26.4-11.2,50.1-23.9,71.2-38c8.8-6,17.6-12.7,26.4-20c8.4-7.4,16-15.5,22.7-24.3
	c6.7-8.4,12.1-17.6,16.3-27.4c3.9-9.8,5.8-20.2,5.8-31.1c0-17.2-2.6-32.5-7.9-45.9c-5.6-13-13.2-24.3-22.7-33.8
	c-9.5-9.1-20.7-16.3-33.8-21.6s-27.1-8.4-42.2-9.5c-26,59.4-53.3,108.6-81.7,147.7c2.5,3.9,5.6,7.9,9.5,12.1
	c3.9,4.6,7.6,9,11.1,13.2s6.5,7.9,9,11.1c2.5,3.5,3.7,6.2,3.7,7.9s-0.4,3.7-1.1,5.8c-1.4,2.8-3.3,5.3-5.8,7.4
	c-2.1,1.8-4.7,3.3-7.9,4.7s-6.7,2.1-10.5,2.1c-6.7,0-13.2-2.1-19.5-6.3c-6.7-4.2-13.9-10.4-21.6-18.5
	c-12.7,13.4-24.8,24.1-36.4,32.2c-11.6,8.4-22.5,14.9-32.7,19.5c-10.5,4.9-20.2,8.3-29,10c-9.1,1.8-17.2,2.6-24.3,2.6
	c-10.2,0-18.5-1.1-24.8-3.2c-6.7-2.1-10.9-3.7-12.7-4.7c-8.1-3.9-15.6-12-22.7-24.3S979,511.5,979,492.5c0-9.5,1.6-20.9,4.7-34.3
	c2.8-13.4,9-27.6,18.5-42.7s23.2-30.8,41.1-46.9c17.6-16.2,41-31.8,70.1-46.9c-0.4-4.9-0.5-9.8-0.5-14.8c-0.4-4.9-0.5-9.8-0.5-14.8
	c0-12.7,0.4-26,1.1-40.1c0.7-13.7,1.8-28.3,3.2-43.8c-3.9,0.4-7.7,0.5-11.6,0.5s-7.7,0-11.6,0c-8.4,0-16.7-0.2-24.8-0.5
	c-8.4-0.4-16.7-1.1-24.8-2.1c-1.8,0-3.3-0.4-4.7-1.1c-0.4,0.4-4.4-2.1-12.1-7.4s-15.5-12.7-23.2-22.1l-4.7-5.8
	c-2.1-2.8-4.2-5.6-6.3-8.4c-2.1-2.5-3.2-5.4-3.2-9c0-0.7,0.2-1.9,0.5-3.7s1.2-3.5,2.6-5.3s3.5-3.3,6.3-4.7s6.9-2.1,12.1-2.1
	c2.8,0.4,6.2,0.9,10,1.6c3.5,1.1,7,3,10.5,5.8c6.3,5.3,10.7,9.3,13.2,12.1c2.1,2.8,4.7,4.7,7.9,5.8c2.8,1.4,7,2.3,12.7,2.6
	c5.3,0.4,14.1,0.5,26.4,0.5c10.2,0,20-0.5,29.5-1.6l9-59.1c-1.4-3.2-3.9-5.8-7.4-7.9s-7.2-4.2-11.1-6.3s-7.2-4.4-10-6.9
	c-3.2-2.5-4.7-5.6-4.7-9.5c0-3.5,1.1-6.3,3.2-8.4c1.8-1.8,3.9-3,6.3-3.7s4.7-1.2,6.9-1.6c2.1,0,3.5,0,4.2,0
	c32.3,6.3,55.2,12.3,68.6,17.9s20,12.3,20,20c0,0.4,0,0.7,0,1.1c-0.4,0.7-0.5,1.2-0.5,1.6l-3.7,11.6c-1.4,4.2-3,9.5-4.7,15.8
	c-2.1,6.3-4.2,13.5-6.3,21.6c11.6-4.2,22-9.1,31.1-14.8c8.8-5.3,17.1-10.4,24.8-15.3c7.4-4.6,14.4-8.6,21.1-12.1
	c6.3-3.2,12.8-4.7,19.5-4.7c8.8,0,15.6,2.5,20.6,7.4c4.9,5.3,7.4,11.6,7.4,19c0,4.6-1.1,9.5-3.2,14.8c-2.5,5.3-6.2,10.4-11.1,15.3
	c-4.9,5.3-11.2,10.2-19,14.8c-8.1,4.6-17.9,8.4-29.5,11.6c-25,7-49.7,12.5-74.4,16.3c-3.5,16.9-6.2,33.2-7.9,49
	c-2.1,16.2-3.5,32.2-4.2,48c10.9-3.9,21.6-7.2,32.2-10c10.5-2.5,20.9-4.6,31.1-6.3c-2.1-2.1-5.6-4.6-10.5-7.4
	c-5.3-2.5-10.5-5.3-15.8-8.4s-9.8-6.5-13.7-10c-4.2-3.5-6.3-7.2-6.3-11.1c0-6.3,2.3-10.4,6.9-12.1c4.2-1.4,8.8-2.1,13.7-2.1
	c30.9,0,55,4.2,72.2,12.7c16.9,8.8,25.3,20.9,25.3,36.4c23.9,2.5,45.5,7.9,64.9,16.3C1385,305.7,1401,317.3,1414,331.7
	 M1227.9,323.8c-10.2,1.8-20.4,3.9-30.6,6.3c-10.2,2.8-20.4,6.2-30.6,10c1.8,26,6,49.7,12.7,71.2c6.7-10.5,12.8-20.7,18.5-30.6
	c5.3-9.5,10-18.3,14.2-26.4c4.2-7.7,7.7-14.2,10.5-19.5C1225.1,329.6,1226.8,325.9,1227.9,323.8 M1143,463
	c-13-27.8-21.6-60.5-25.8-98.1c-11.6,8.1-22.7,17.8-33.2,29s-19.7,22.9-27.4,34.8c-8.1,12.3-14.4,24.4-19,36.4
	c-4.9,12.3-7.4,23.6-7.4,33.8v3.2c0.7,7.7,3.3,14.6,7.9,20.6s11.2,9,20,9c10.2,0,22.5-6,36.9-17.9C1109.4,502,1125.4,485.2,1143,463
	 M1036.5,872.2c18.6-1.4,37.6-5.1,57-11.1s38-13.9,55.9-23.7c17.6-9.5,33.9-20.9,49-34.3c14.8-13.4,27.2-27.9,37.4-43.8
	l-111.3-111.3h321.7v321.2L1344.4,868c-23.9,16.9-49,28.7-75.4,35.3c-26.4,7-52.7,10.5-79.1,10.5c-30.2,0-58.5-3.9-84.9-11.6
	C1078.3,894.6,1055.4,884.5,1036.5,872.2 M783.9,969.3c-3.5-13.7-5.3-27.2-5.3-40.6h-4.2c-35.9,32.7-84.4,49-145.5,49
	c-16.9,0-32.7-2.6-47.5-7.9c-15.1-5.3-28.1-13-39-23.2c-10.9-9.8-19.5-22.3-25.8-37.4c-6.3-14.8-9.5-32-9.5-51.7
	c0-20,3.2-39.4,9.5-58s16.5-35.2,30.6-49.6c13.7-14.4,32-26,54.8-34.8c22.5-8.4,50.1-12.7,82.8-12.7c13.7,0,27.9,0.9,42.7,2.6
	c14.8,2.1,29.9,5.3,45.4,9.5c1.8,0,2.8-0.7,3.2-2.1c0.4-1.1,0.5-1.9,0.5-2.6c0-22.5-2.1-40.8-6.3-54.8
	c-4.6-14.1-11.6-25.1-21.1-33.2c-9.5-7.7-21.6-13-36.4-15.8s-32.3-4.2-52.7-4.2c-11.6,0-20.4,0.5-26.4,1.6c-6.3,1.1-12,2.5-16.9,4.2
	c-5.3,2.1-10.9,4.4-16.9,6.9c-6.3,2.5-14.9,5.1-25.8,7.9l-11.1-60.1c10.9-3.2,20.7-6.2,29.5-9c8.4-2.5,17.1-4.7,25.8-6.9
	c8.4-1.8,17.8-3.3,27.9-4.7c10.2-1.1,22.3-1.6,36.4-1.6c25.3,0,48,2.3,68,6.9c19.7,4.9,36.6,12.8,50.6,23.7
	c13.7,11.2,24.3,25.8,31.6,43.8s11.1,40.1,11.1,66.4c0,3.2,0,8.6,0,16.3c-0.4,7.7-0.7,16.5-1.1,26.4s-0.5,20.2-0.5,31.1
	c-0.4,10.9-0.7,21.3-1.1,31.1s-0.5,18.5-0.5,25.8c-0.4,7.4-0.5,12.3-0.5,14.8c0,26.4,1.1,51.2,3.2,74.4c1.8,23.2,4.6,45.2,8.4,65.9
	 M775.4,882.2c-0.7-22.1-1.2-43.1-1.6-62.8c-0.7-19.3-1.1-37.8-1.1-55.4c-12-3.9-23.6-6.5-34.8-7.9c-11.6-1.4-22.7-2.1-33.2-2.1
	c-16.2,0-31.8,1.6-46.9,4.7c-15.5,3.5-29,9.1-40.6,16.9c-12,7.7-21.4,17.6-28.5,29.5c-7.4,12.3-11.1,27.2-11.1,44.8
	c0,20,7,36.4,21.1,49c13.7,12.7,34.5,19,62.2,19C708.5,918.1,746.6,906.2,775.4,882.2 M937.3,262.1c-18.6,1.4-37.6,5.1-57,11.1
	s-37.8,13.7-55.4,23.2c-17.9,9.8-34.3,21.4-49,34.8c-15.1,13.4-27.6,27.9-37.4,43.8l110.7,111.3H528.1V164.5l101.2,101.2
	c24.3-16.5,49.6-28.3,75.9-35.3c26-7,52-10.5,78-10.5c30.6,0,59.2,3.9,86,11.6C895.7,239.6,918.3,249.8,937.3,262.1z"/>
<path class="st0" d="M783.9,969.3c-3.5-13.7-5.3-27.2-5.3-40.6h-4.2c-35.9,32.7-84.4,49-145.5,49c-16.9,0-32.7-2.6-47.5-7.9
	c-15.1-5.3-28.1-13-39-23.2c-10.9-9.8-19.5-22.3-25.8-37.4c-6.3-14.8-9.5-32-9.5-51.7c0-20,3.2-39.4,9.5-58s16.5-35.2,30.6-49.6
	c13.7-14.4,32-26,54.8-34.8c22.5-8.4,50.1-12.7,82.8-12.7c13.7,0,27.9,0.9,42.7,2.6c14.8,2.1,29.9,5.3,45.4,9.5
	c1.8,0,2.8-0.7,3.2-2.1c0.4-1.1,0.5-1.9,0.5-2.6c0-22.5-2.1-40.8-6.3-54.8c-4.6-14.1-11.6-25.1-21.1-33.2
	c-9.5-7.7-21.6-13-36.4-15.8s-32.3-4.2-52.7-4.2c-11.6,0-20.4,0.5-26.4,1.6c-6.3,1.1-12,2.5-16.9,4.2c-5.3,2.1-10.9,4.4-16.9,6.9
	c-6.3,2.5-14.9,5.1-25.8,7.9l-11.1-60.1c10.9-3.2,20.7-6.2,29.5-9c8.4-2.5,17.1-4.7,25.8-6.9c8.4-1.8,17.8-3.3,27.9-4.7
	c10.2-1.1,22.3-1.6,36.4-1.6c25.3,0,48,2.3,68,6.9c19.7,4.9,36.6,12.8,50.6,23.7c13.7,11.2,24.3,25.8,31.6,43.8s11.1,40.1,11.1,66.4
	c0,3.2,0,8.6,0,16.3c-0.4,7.7-0.7,16.5-1.1,26.4s-0.5,20.2-0.5,31.1c-0.4,10.9-0.7,21.3-1.1,31.1s-0.5,18.5-0.5,25.8
	c-0.4,7.4-0.5,12.3-0.5,14.8c0,26.4,1.1,51.2,3.2,74.4c1.8,23.2,4.6,45.2,8.4,65.9 M775.4,882.2c-0.7-22.1-1.2-43.1-1.6-62.8
	c-0.7-19.3-1.1-37.8-1.1-55.4c-12-3.9-23.6-6.5-34.8-7.9c-11.6-1.4-22.7-2.1-33.2-2.1c-16.2,0-31.8,1.6-46.9,4.7
	c-15.5,3.5-29,9.1-40.6,16.9c-12,7.7-21.4,17.6-28.5,29.5c-7.4,12.3-11.1,27.2-11.1,44.8c0,20,7,36.4,21.1,49
	c13.7,12.7,34.5,19,62.2,19C708.5,918.1,746.6,906.2,775.4,882.2 M937.3,262.1c-18.6,1.4-37.6,5.1-57,11.1s-37.8,13.7-55.4,23.2
	c-17.9,9.8-34.3,21.4-49,34.8c-15.1,13.4-27.6,27.9-37.4,43.8l110.7,111.3H528.1V164.5l101.2,101.2c24.3-16.5,49.6-28.3,75.9-35.3
	c26-7,52-10.5,78-10.5c30.6,0,59.2,3.9,86,11.6C895.7,239.6,918.3,249.8,937.3,262.1z"/>
<path class="st1" d="M1414,331.7c10.2,11.2,17.9,23.7,23.2,37.4s7.9,28.5,7.9,44.3c0,22.9-4.4,43.4-13.2,61.7
	c-9.1,18.6-20.4,35.2-33.8,49.6s-28.1,26.7-44.3,36.9c-16.2,10.5-31.3,19.2-45.4,25.8c-14.1,7-26.2,12.1-36.4,15.3
	c-10.5,3.2-16.9,4.7-19,4.7c-0.7,0-2.3-0.4-4.7-1.1s-4.9-1.9-7.4-3.7c-2.8-1.4-5.3-3.3-7.4-5.8s-3.2-5.3-3.2-8.4
	c0-3.9,1.6-7.4,4.7-10.5c2.8-3.2,8.1-5.3,15.8-6.3c26.4-11.2,50.1-23.9,71.2-38c8.8-6,17.6-12.7,26.4-20c8.4-7.4,16-15.5,22.7-24.3
	c6.7-8.4,12.1-17.6,16.3-27.4c3.9-9.8,5.8-20.2,5.8-31.1c0-17.2-2.6-32.5-7.9-45.9c-5.6-13-13.2-24.3-22.7-33.8
	c-9.5-9.1-20.7-16.3-33.8-21.6s-27.1-8.4-42.2-9.5c-26,59.4-53.3,108.6-81.7,147.7c2.5,3.9,5.6,7.9,9.5,12.1
	c3.9,4.6,7.6,9,11.1,13.2s6.5,7.9,9,11.1c2.5,3.5,3.7,6.2,3.7,7.9s-0.4,3.7-1.1,5.8c-1.4,2.8-3.3,5.3-5.8,7.4
	c-2.1,1.8-4.7,3.3-7.9,4.7s-6.7,2.1-10.5,2.1c-6.7,0-13.2-2.1-19.5-6.3c-6.7-4.2-13.9-10.4-21.6-18.5
	c-12.7,13.4-24.8,24.1-36.4,32.2c-11.6,8.4-22.5,14.9-32.7,19.5c-10.5,4.9-20.2,8.3-29,10c-9.1,1.8-17.2,2.6-24.3,2.6
	c-10.2,0-18.5-1.1-24.8-3.2c-6.7-2.1-10.9-3.7-12.7-4.7c-8.1-3.9-15.6-12-22.7-24.3S979,511.5,979,492.5c0-9.5,1.6-20.9,4.7-34.3
	c2.8-13.4,9-27.6,18.5-42.7s23.2-30.8,41.1-46.9c17.6-16.2,41-31.8,70.1-46.9c-0.4-4.9-0.5-9.8-0.5-14.8c-0.4-4.9-0.5-9.8-0.5-14.8
	c0-12.7,0.4-26,1.1-40.1c0.7-13.7,1.8-28.3,3.2-43.8c-3.9,0.4-7.7,0.5-11.6,0.5s-7.7,0-11.6,0c-8.4,0-16.7-0.2-24.8-0.5
	c-8.4-0.4-16.7-1.1-24.8-2.1c-1.8,0-3.3-0.4-4.7-1.1c-0.4,0.4-4.4-2.1-12.1-7.4s-15.5-12.7-23.2-22.1l-4.7-5.8
	c-2.1-2.8-4.2-5.6-6.3-8.4c-2.1-2.5-3.2-5.4-3.2-9c0-0.7,0.2-1.9,0.5-3.7s1.2-3.5,2.6-5.3s3.5-3.3,6.3-4.7s6.9-2.1,12.1-2.1
	c2.8,0.4,6.2,0.9,10,1.6c3.5,1.1,7,3,10.5,5.8c6.3,5.3,10.7,9.3,13.2,12.1c2.1,2.8,4.7,4.7,7.9,5.8c2.8,1.4,7,2.3,12.7,2.6
	c5.3,0.4,14.1,0.5,26.4,0.5c10.2,0,20-0.5,29.5-1.6l9-59.1c-1.4-3.2-3.9-5.8-7.4-7.9s-7.2-4.2-11.1-6.3s-7.2-4.4-10-6.9
	c-3.2-2.5-4.7-5.6-4.7-9.5c0-3.5,1.1-6.3,3.2-8.4c1.8-1.8,3.9-3,6.3-3.7s4.7-1.2,6.9-1.6c2.1,0,3.5,0,4.2,0
	c32.3,6.3,55.2,12.3,68.6,17.9s20,12.3,20,20c0,0.4,0,0.7,0,1.1c-0.4,0.7-0.5,1.2-0.5,1.6l-3.7,11.6c-1.4,4.2-3,9.5-4.7,15.8
	c-2.1,6.3-4.2,13.5-6.3,21.6c11.6-4.2,22-9.1,31.1-14.8c8.8-5.3,17.1-10.4,24.8-15.3c7.4-4.6,14.4-8.6,21.1-12.1
	c6.3-3.2,12.8-4.7,19.5-4.7c8.8,0,15.6,2.5,20.6,7.4c4.9,5.3,7.4,11.6,7.4,19c0,4.6-1.1,9.5-3.2,14.8c-2.5,5.3-6.2,10.4-11.1,15.3
	c-4.9,5.3-11.2,10.2-19,14.8c-8.1,4.6-17.9,8.4-29.5,11.6c-25,7-49.7,12.5-74.4,16.3c-3.5,16.9-6.2,33.2-7.9,49
	c-2.1,16.2-3.5,32.2-4.2,48c10.9-3.9,21.6-7.2,32.2-10c10.5-2.5,20.9-4.6,31.1-6.3c-2.1-2.1-5.6-4.6-10.5-7.4
	c-5.3-2.5-10.5-5.3-15.8-8.4s-9.8-6.5-13.7-10c-4.2-3.5-6.3-7.2-6.3-11.1c0-6.3,2.3-10.4,6.9-12.1c4.2-1.4,8.8-2.1,13.7-2.1
	c30.9,0,55,4.2,72.2,12.7c16.9,8.8,25.3,20.9,25.3,36.4c23.9,2.5,45.5,7.9,64.9,16.3C1385,305.7,1401,317.3,1414,331.7
	 M1227.9,323.8c-10.2,1.8-20.4,3.9-30.6,6.3c-10.2,2.8-20.4,6.2-30.6,10c1.8,26,6,49.7,12.7,71.2c6.7-10.5,12.8-20.7,18.5-30.6
	c5.3-9.5,10-18.3,14.2-26.4c4.2-7.7,7.7-14.2,10.5-19.5C1225.1,329.6,1226.8,325.9,1227.9,323.8 M1143,463
	c-13-27.8-21.6-60.5-25.8-98.1c-11.6,8.1-22.7,17.8-33.2,29s-19.7,22.9-27.4,34.8c-8.1,12.3-14.4,24.4-19,36.4
	c-4.9,12.3-7.4,23.6-7.4,33.8v3.2c0.7,7.7,3.3,14.6,7.9,20.6s11.2,9,20,9c10.2,0,22.5-6,36.9-17.9C1109.4,502,1125.4,485.2,1143,463
	 M1036.5,872.2c18.6-1.4,37.6-5.1,57-11.1s38-13.9,55.9-23.7c17.6-9.5,33.9-20.9,49-34.3c14.8-13.4,27.2-27.9,37.4-43.8
	l-111.3-111.3h321.7v321.2L1344.4,868c-23.9,16.9-49,28.7-75.4,35.3c-26.4,7-52.7,10.5-79.1,10.5c-30.2,0-58.5-3.9-84.9-11.6
	C1078.3,894.6,1055.4,884.5,1036.5,872.2z"/>
</svg>
