<?xml version="1.0" encoding="utf-8"?>
<!-- Generator: Adobe Illustrator 27.2.0, SVG Export Plug-In . SVG Version: 6.00 Build 0)  -->
<svg version="1.1" id="Calque_1" focusable="false" xmlns="http://www.w3.org/2000/svg" xmlns:xlink="http://www.w3.org/1999/xlink"
	 x="0px" y="0px" viewBox="0 0 1920 1080" style="enable-background:new 0 0 1920 1080;" xml:space="preserve">
<style type="text/css">
	.st0{fill:#4389C8;}
</style>
<path d="M743.8,836.9l38.5-38l123.9,123.4V593.8H960v328.5l123.9-123.4l38,38l-188.8,189.3 M473.8,486.2h972.4V540H473.8 M473.8,270
	h972.4v53.8H473.8 M473.8,53.8h972.4v54.3H473.8V53.8z"/>
<path class="st0" d="M743.8,836.9l38.5-38l123.9,123.4V593.8H960v328.5l123.9-123.4l38,38l-188.8,189.3L743.8,836.9z"/>
<path d="M473.8,486.2h972.4V540H473.8 M473.8,270h972.4v53.8H473.8 M473.8,53.8h972.4v54.3H473.8V53.8z"/>
</svg>
