<?xml version="1.0" encoding="utf-8"?>
<!-- Generator: Adobe Illustrator 27.2.0, SVG Export Plug-In . SVG Version: 6.00 Build 0)  -->
<svg version="1.1" id="Calque_1" focusable="false" xmlns="http://www.w3.org/2000/svg" xmlns:xlink="http://www.w3.org/1999/xlink"
	 x="0px" y="0px" viewBox="0 0 1920 1080" style="enable-background:new 0 0 1920 1080;" xml:space="preserve">
<style type="text/css">
	.st0{fill:#FFFFFF;}
</style>
<path d="M1446.2,701.9v324.3H743.8v-540H1230 M1369.7,701.9L1230,562.1v139.7 M798.1,540v431.9h593.8V756.2h-215.7V540 M690,756.2
	H473.8V53.8h324.3L1013.8,270v161.9H960V323.8H743.8V108.1H528.1v593.8H690 M798.1,270h139.7L798.1,130.3V270z"/>
<path class="st0" d="M690,725.1H491.2V77h283.7l212,207.8v147.1H690 M771.2,513.1h444L1423,724.6v284.2H771.2V513.1z"/>
<path d="M1446.2,701.9v324.3H743.8v-540H1230 M1369.7,701.9L1230,562.1v139.7 M798.1,540v431.9h593.8V756.2h-215.7V540 M690,756.2
	H473.8V53.8h324.3L1013.8,270v161.9H960V323.8H743.8V108.1H528.1v593.8H690 M798.1,270h139.7L798.1,130.3V270z"/>
</svg>
