<?xml version="1.0" encoding="utf-8"?>
<!-- Generator: Adobe Illustrator 27.2.0, SVG Export Plug-In . SVG Version: 6.00 Build 0)  -->
<svg version="1.1" id="Calque_1" focusable="false" xmlns="http://www.w3.org/2000/svg" xmlns:xlink="http://www.w3.org/1999/xlink"
	 x="0px" y="0px" viewBox="0 0 1920 1080" style="enable-background:new 0 0 1920 1080;" xml:space="preserve">
<style type="text/css">
	.st0{fill:#FFFFFF;}
	.st1{fill:#989898;}
	.st2{fill:#4389C8;}
</style>
<path d="M420,0h1080v1080H420 M1432.5,1012.5v-945h-945v945 M1365,270h-67.5v540h67.5v67.5h-67.5V945H1230v-67.5H690V945h-67.5
	v-67.5H555V810h67.5V270H555v-67.5h67.5V135H690v67.5h540V135h67.5v67.5h67.5 M1230,810V270H690v540 M1162.5,472.5h-405V405h405
	 M1162.5,675h-405v-67.5h405V675z"/>
<path class="st0" d="M1466.2,1046.2H453.8V33.8h1012.5V1046.2z"/>
<path class="st1" d="M1162.5,472.5h-405V405h405 M1162.5,675h-405v-67.5h405V675z"/>
<path class="st2" d="M1365,270h-67.5v540h67.5v67.5h-67.5V945H1230v-67.5H690V945h-67.5v-67.5H555V810h67.5V270H555v-67.5h67.5V135
	H690v67.5h540V135h67.5v67.5h67.5 M1230,810V270H690v540H1230z"/>
<path d="M420,0h1080v1080H420 M1432.5,1012.5v-945h-945v945H1432.5z"/>
</svg>
