<?xml version="1.0" encoding="utf-8"?>
<!-- Generator: Adobe Illustrator 27.2.0, SVG Export Plug-In . SVG Version: 6.00 Build 0)  -->
<svg version="1.1" id="Calque_1" focusable="false" xmlns="http://www.w3.org/2000/svg" xmlns:xlink="http://www.w3.org/1999/xlink"
	 x="0px" y="0px" viewBox="0 0 1920 1080" style="enable-background:new 0 0 1920 1080;" xml:space="preserve">
<style type="text/css">
	.st0{fill:#FFFFFF;}
	.st1{fill:#4389C8;}
</style>
<path d="M1446.2,486.2h-108.1v540h-54.3v-540H636.2v540h-54.3v-540H473.8v-54.3h108.1V53.8h54.3v378.1h647.6V53.8h54.3v378.1h108.1
	 M743.8,648.1h432.4v53.8H743.8 M743.8,810h432.4v53.8H743.8 M1176.2,270H743.8v-53.8h432.4V270z"/>
<path class="st0" d="M1311.2,53.8v972.4H608.8V53.8H1311.2z"/>
<path d="M636.2,1026.2h-54.3V53.8h54.3 M1338.1,53.8v972.4h-54.3V53.8H1338.1z"/>
<path d="M743.8,648.1h432.4v53.8H743.8 M743.8,810h432.4v53.8H743.8 M743.8,216.2h432.4V270H743.8V216.2z"/>
<path class="st1" d="M473.8,431.9h972.4v54.3H473.8V431.9z"/>
</svg>
