<?xml version="1.0" encoding="utf-8"?>
<!-- Generator: Adobe Illustrator 27.2.0, SVG Export Plug-In . SVG Version: 6.00 Build 0)  -->
<svg version="1.1" id="Calque_1" focusable="false" xmlns="http://www.w3.org/2000/svg" xmlns:xlink="http://www.w3.org/1999/xlink"
	 x="0px" y="0px" viewBox="0 0 1920 1080" style="enable-background:new 0 0 1920 1080;" xml:space="preserve">
<style type="text/css">
	.st0{fill:#FFFFFF;}
	.st1{fill:#4389C8;}
</style>
<path d="M473.8,161.9v701.9h270v54.3H420v-810h349.1c21.8,0,41.3,3,58.5,9s32.5,13.7,45.9,23.2s25,20,34.8,31.6
	c9.8,12,18.1,23.7,24.8,35.3c6.7-11.6,14.9-23.4,24.8-35.3c9.8-11.6,21.4-22.1,34.8-31.6s28.7-17.2,45.9-23.2s36.7-9,58.5-9h349.1
	V327l-54.3,43.8V161.9h-294.8c-15.8,0-30.1,2.3-42.7,6.9s-23.7,10.4-33.2,17.4c-9.8,7.4-18.3,15.5-25.3,24.3
	c-7,9.1-13,17.9-17.9,26.4c-4.9,8.8-8.8,16.7-11.6,23.7c-3.2,7.4-5.3,13-6.3,16.9v240.5l-53.8,53.8V277.4c-1.4-3.9-3.5-9.5-6.3-16.9
	c-2.8-7-6.7-14.9-11.6-23.7c-4.9-8.4-10.9-17.2-17.9-26.4c-7.4-8.8-15.8-16.9-25.3-24.3c-9.8-7-20.9-12.8-33.2-17.4
	c-12.7-4.6-26.9-6.9-42.7-6.9 M1267.4,542.1c22.1,28.1,39.7,58.2,52.7,90.2c12.7,32,19,66.6,19,103.9c0,39-7.2,77.3-21.6,115
	s-34.8,74-61.2,109.2l-29.5-23.2c23.2-32,40.6-64.9,52.2-98.6c11.2-33.8,16.9-67.9,16.9-102.3c0-33-5.1-63.5-15.3-91.2
	s-24.4-54-42.7-78.6 M1386.6,447.2c35.5,43.6,63.3,91.4,83.3,143.4s30.1,107.1,30.1,165.1s-10,113-30.1,165.1s-48,99.8-83.8,143.4
	l-29.5-23.2c32.3-40.4,57.1-84.7,74.4-132.9c17.2-47.8,25.8-98.6,25.8-152.4c0-53.4-8.4-104.2-25.3-152.4
	c-17.2-48.2-42-92.5-74.4-132.9 M1121.9,431.9h54.3V1080h-54.3L906.2,863.8H798.1V648.1h108.1 M1121.9,508.4L928.4,701.9h-76.5V810
	h76.5l193.5,193.5V508.4z"/>
<path class="st0" d="M1418.8,135v214.1l-188.8,154v-125h-130.3L883.5,593.8H743.8v297.4H446.9V135h322.2c22.1,0,42.2,3.9,60.1,11.6
	c17.6,8.1,33.2,18.5,46.9,31.1c13.4,13,24.8,27.4,34.3,43.2c9.1,16.2,16.3,32.3,21.6,48.5l1.1,3.7l1.1-3.7
	c5.3-16.2,12.5-32.3,21.6-48.5c9.1-15.8,20.6-30.2,34.3-43.2c13.4-12.7,29-23,46.9-31.1c17.9-7.7,38-11.6,60.1-11.6 M1113.5,474.1
	h36.4V1041h-35.3L913.1,836.9h-88.6V676.6h88.6L1113.5,474.1z"/>
<path d="M1446.2,108.1V327l-54.3,43.8V161.9h-294.8c-15.8,0-30.1,2.3-42.7,6.9s-23.7,10.4-33.2,17.4c-9.8,7.4-18.3,15.5-25.3,24.3
	c-7,9.1-13,17.9-17.9,26.4c-4.9,8.8-8.8,16.7-11.6,23.7c-3.2,7.4-5.3,13-6.3,16.9v240.5l-53.8,53.8V277.4c-1.4-3.9-3.5-9.5-6.3-16.9
	c-2.8-7-6.7-14.9-11.6-23.7c-4.9-8.4-10.9-17.2-17.9-26.4c-7.4-8.8-15.8-16.9-25.3-24.3c-9.8-7-20.9-12.8-33.2-17.4
	c-12.7-4.6-26.9-6.9-42.7-6.9H473.8v701.9h270v54.3H420v-810h349.1c21.8,0,41.3,3,58.5,9s32.5,13.7,45.9,23.2s25,20,34.8,31.6
	c9.8,12,18.1,23.7,24.8,35.3c6.7-11.6,14.9-23.4,24.8-35.3c9.8-11.6,21.4-22.1,34.8-31.6s28.7-17.2,45.9-23.2s36.7-9,58.5-9H1446.2z
	"/>
<path class="st1" d="M1267.4,542.1c22.1,28.1,39.7,58.2,52.7,90.2c12.7,32,19,66.6,19,103.9c0,39-7.2,77.3-21.6,115
	s-34.8,74-61.2,109.2l-29.5-23.2c23.2-32,40.6-64.9,52.2-98.6c11.2-33.8,16.9-67.9,16.9-102.3c0-33-5.1-63.5-15.3-91.2
	s-24.4-54-42.7-78.6 M1386.6,447.2c35.5,43.6,63.3,91.4,83.3,143.4s30.1,107.1,30.1,165.1s-10,113-30.1,165.1s-48,99.8-83.8,143.4
	l-29.5-23.2c32.3-40.4,57.1-84.7,74.4-132.9c17.2-47.8,25.8-98.6,25.8-152.4c0-53.4-8.4-104.2-25.3-152.4
	c-17.2-48.2-42-92.5-74.4-132.9 M1121.9,431.9h54.3V1080h-54.3L906.2,863.8H798.1V648.1h108.1 M1121.9,508.4L928.4,701.9h-76.5V810
	h76.5l193.5,193.5V508.4z"/>
</svg>
