<?xml version="1.0" encoding="utf-8"?>
<!-- Generator: Adobe Illustrator 27.2.0, SVG Export Plug-In . SVG Version: 6.00 Build 0)  -->
<svg version="1.1" id="Calque_1" focusable="false" xmlns="http://www.w3.org/2000/svg" xmlns:xlink="http://www.w3.org/1999/xlink"
	 x="0px" y="0px" viewBox="0 0 1920 1080" style="enable-background:new 0 0 1920 1080;" xml:space="preserve">
<style type="text/css">
	.st0{fill:#FFFFFF;}
</style>
<path d="M1013.8,593.8V486.2h54.3v107.6 M690,593.8V486.2h53.8v107.6 M1338.1,593.8V486.2h53.8v107.6 M1338.1,796.3L1230,688.7
	l-108.1,107.6v121.8h216.2 M1230,607.5l161.9,161.9v202.5h-323.8V769.4 M743.8,283.7l108.1,107.6L960,283.7V161.9H743.8
	 M851.9,472.5L690,310.6V108.1h323.8v202.5 M1013.8,810h-540V270h162.4v53.8H528.1v432.4h485.7 M1446.2,270v53.8h-378.1V270H1446.2z
	"/>
<path class="st0" d="M1446.2,296.9v450.4L1230,531l-216.2,216.2v35.9H501.2V296.9h135v35.9L851.9,549l216.2-216.2v-35.9 M1365,945
	h-270V783.1l135-135l135,135 M716.9,135h270v161.9l-135,135l-135-135V135z"/>
<path d="M1013.8,593.8V486.2h54.3v107.6 M690,593.8V486.2h53.8v107.6 M1338.1,593.8V486.2h53.8v107.6 M1338.1,796.3L1230,688.7
	l-108.1,107.6v121.8h216.2 M1230,607.5l161.9,161.9v202.5h-323.8V769.4 M743.8,283.7l108.1,107.6L960,283.7V161.9H743.8
	 M851.9,472.5L690,310.6V108.1h323.8v202.5 M1013.8,810h-540V270h162.4v53.8H528.1v432.4h485.7 M1446.2,270v53.8h-378.1V270H1446.2z
	"/>
</svg>
