<?xml version="1.0" encoding="utf-8"?>
<!-- Generator: Adobe Illustrator 27.2.0, SVG Export Plug-In . SVG Version: 6.00 Build 0)  -->
<svg version="1.1" id="Calque_1" focusable="false" xmlns="http://www.w3.org/2000/svg" xmlns:xlink="http://www.w3.org/1999/xlink"
	 x="0px" y="0px" viewBox="0 0 1920 1080" style="enable-background:new 0 0 1920 1080;" xml:space="preserve">
<style type="text/css">
	.st0{fill:#FFFFFF;}
	.st1{fill:#F3DC99;}
	.st2{fill:#D27B37;}
</style>
<path d="M1442,212c8.8,9.5,13.2,20,13.2,31.6c0,12.3-4.4,22.9-13.2,31.6l-190.9,190.9l63.3,63.8c8.8,9.1,15.5,19.2,20,30.1
	c4.2,11.2,6.3,22.5,6.3,33.8c0,11.6-2.1,22.9-6.3,33.8c-4.6,10.9-11.2,20.7-20,29.5l-63.3,63.8c-34.8,30.2-69.4,59.4-103.9,87.5
	c-14.8,12-30.1,24.3-45.9,36.9s-31.6,25-47.5,36.9c-16.2,12-31.8,23.2-46.9,33.8c-15.1,10.9-29.2,20.2-42.2,27.9L487,466.2h0.5
	c0.4,0,0.7-0.2,1.1-0.5c0.4,0,0.9,0,1.6,0c5.3-0.4,15.8-1.2,31.6-2.6s34.8-3.9,57-7.4c22.1-3.2,46.4-7.7,72.8-13.7
	c26.4-5.6,52.7-13.2,79.1-22.7c26.4-9.1,51.7-20.4,75.9-33.8c23.9-13,44.8-28.5,62.8-46.4l63.3-63.8c8.8-8.8,18.8-15.3,30.1-19.5
	c10.9-4.2,22.1-6.3,33.8-6.3c11.2,0,22.5,2.1,33.8,6.3s21.3,10.7,30.1,19.5l63.3,63.8l190.9-190.9c4.6-4.6,9.7-7.9,15.3-10
	c5.3-1.8,10.9-2.8,16.9-3.2c11.6,0,22.1,4.4,31.6,13.2 M1218.9,689.2l-318-318.5c-20,20-43.4,37.4-70.1,52.2s-54.3,27.2-82.8,37.4
	c-28.5,10.5-56.8,19-84.9,25.3c-28.1,6.7-54,11.8-77.5,15.3l27.9,28.5l0.5-1.6l581.7,181.4c3.9-3.2,7.2-6,10-8.4
	c2.5-2.5,4.7-4.6,6.9-6.3S1216.8,691,1218.9,689.2 M1187.3,466.2l222.5-222.5l-63.3-63.8l-223.1,223.1l-95.4-95.4
	c-8.8-8.8-19.3-13.2-31.6-13.2s-22.9,4.4-31.6,13.2l-32.2,31.6l318.5,318l31.6-31.6c8.8-8.8,13.2-19.3,13.2-31.6
	c0-5.6-1.1-11.2-3.2-16.9s-5.4-10.7-10-15.3L1187.3,466.2z"/>
<path class="st0" d="M900.9,339.1l47.5-47.5c13.4-13.4,29.4-20,48-20c9.1,0,17.8,1.6,25.8,4.7c8.1,3.5,15.3,8.6,21.6,15.3l79.6,79.1
	L1330.2,164c4.6-4.2,10-6.3,16.3-6.3s11.6,2.1,15.8,6.3l63.8,63.8c4.2,4.9,6.3,10.2,6.3,15.8s-2.1,10.9-6.3,15.8l-207.2,206.7
	l79.6,79.6c6.7,6.7,11.6,14.1,14.8,22.1c3.2,8.4,4.7,17.1,4.7,25.8s-1.6,17.2-4.7,25.3s-8.1,15.5-14.8,22.1l-63.3,64.3
	c-0.4,0-4.7,3.5-13.2,10.5c-8.4,7.4-19.5,17.1-33.2,29c-14.1,12-30.2,25.3-48.5,40.1c-18.3,15.1-37.3,30.4-57,45.9
	c-20,15.5-39.9,30.6-59.6,45.4c-20,14.8-38.7,27.6-55.9,38.5L537.1,484.6c14.1-1.4,30.4-3.7,49-6.9c18.6-2.8,38.3-6.5,59.1-11.1
	s42.2-10.2,64.3-16.9c21.8-6.3,43.2-14.1,64.3-23.2S815,406.9,834,395c19-11.6,36-25,51.2-40.1L900.9,339.1z"/>
<path class="st1" d="M967.9,914.9L606.2,553.7l591.2,184c-13.7,11.6-29.9,25.1-48.5,40.6c-19,15.5-38.8,31.3-59.6,47.5
	c-20.7,16.5-41.5,32.5-62.2,48C1005.9,889.6,986.2,903.3,967.9,914.9z"/>
<path class="st2" d="M900.9,307.4l381.8,381.8l-31.6,31.6c-34.8,30.2-69.4,59.4-103.9,87.5c-14.8,12-30.1,24.3-45.9,36.9
	s-31.6,25-47.5,36.9c-16.2,12-31.8,23.2-46.9,33.8c-15.1,10.9-29.2,20.2-42.2,27.9L487,466.2c50.6-3.5,99.8-10.4,147.7-20.6
	c20.4-4.2,41.3-9.5,62.8-15.8s42.5-13.9,63.3-22.7c20.7-8.4,40.4-18.3,59.1-29.5s35.2-24.1,49.6-38.5 M693.7,609.1l276.9,277.4
	c14.1-9.5,28.8-20,44.3-31.6c15.1-11.2,30.4-22.9,45.9-34.8s30.6-23.9,45.4-35.9s28.5-23.2,41.1-33.8 M1218.9,689.2l-318-318.5
	c-20,20-43.4,37.4-70.1,52.2s-54.3,27.2-82.8,37.4c-28.5,10.5-56.8,19-84.9,25.3c-28.1,6.7-54,11.8-77.5,15.3l27.9,28.5l0.5-1.6
	l581.7,181.4c3.9-3.2,7.2-6,10-8.4c2.5-2.5,4.7-4.6,6.9-6.3S1216.8,691,1218.9,689.2z"/>
<path d="M1442,212c8.8,9.5,13.2,20,13.2,31.6c0,12.3-4.4,22.9-13.2,31.6l-190.9,190.9l63.3,63.8c8.8,9.1,15.5,19.2,20,30.1
	c4.2,11.2,6.3,22.5,6.3,33.8c0,11.6-2.1,22.9-6.3,33.8c-4.6,10.9-11.2,20.7-20,29.5l-63.3,63.8L869.3,339.1l63.3-63.8
	c8.8-8.8,18.8-15.3,30.1-19.5c10.9-4.2,22.1-6.3,33.8-6.3c11.2,0,22.5,2.1,33.8,6.3s21.3,10.7,30.1,19.5l63.3,63.8l190.9-190.9
	c4.6-4.6,9.7-7.9,15.3-10c5.3-1.8,10.9-2.8,16.9-3.2c11.6,0,22.1,4.4,31.6,13.2 M1187.3,466.2l222.5-222.5l-63.3-63.8l-223.1,223.1
	l-95.4-95.4c-8.8-8.8-19.3-13.2-31.6-13.2s-22.9,4.4-31.6,13.2l-32.2,31.6l318.5,318l31.6-31.6c8.8-8.8,13.2-19.3,13.2-31.6
	c0-5.6-1.1-11.2-3.2-16.9s-5.4-10.7-10-15.3L1187.3,466.2z"/>
</svg>
