<?xml version="1.0" encoding="utf-8"?>
<!-- Generator: Adobe Illustrator 27.2.0, SVG Export Plug-In . SVG Version: 6.00 Build 0)  -->
<svg version="1.1" id="Layer_1" focusable="false" xmlns="http://www.w3.org/2000/svg" xmlns:xlink="http://www.w3.org/1999/xlink"
	 x="0px" y="0px" viewBox="0 0 595.3 841.9" style="enable-background:new 0 0 595.3 841.9;" xml:space="preserve">
<style type="text/css">
	.st0{fill:#B2B2B2;}
</style>
<path d="M357.2,153c16.5,0,32.4,2.1,47.7,6.4c15.1,4.3,29.3,10.3,42.4,18c13.2,7.8,25.2,17.1,36,27.9c10.9,10.9,20.2,22.9,27.9,36
	c7.8,13.4,13.8,27.6,18,42.7c4.3,15.3,6.4,31.2,6.4,47.7c0,14.9-1.6,29.1-4.7,42.4c-3.1,13.4-7.4,25.9-12.8,37.5
	c-5.4,11.8-11.7,22.8-18.9,32.8c-7.4,10.1-15.1,19.2-23.3,27.3L259.9,688.9l-21.8-21.2l217.1-217.1c6.8-6.8,13.3-14,19.5-21.8
	c6-7.6,11.3-16.1,16-25.6c4.7-9.3,8.4-19.9,11.3-31.7c2.7-11.6,4.1-24.9,4.1-39.8c0-21.1-4-40.8-11.9-59
	c-8.1-18-19.1-33.7-32.8-47.1c-13.8-13.4-29.8-23.8-48.2-31.4c-18.6-7.6-38.4-11.3-59.3-11.3c-17.2,0-34,3.2-50.3,9.6
	c-16.5,6.6-31.2,16.5-44.2,29.6L110.2,361.4h187.5v29.9H59.6V153h29.6v186.6l148.8-138.6c16.7-16.7,35.3-28.9,55.8-36.6
	C314.2,156.7,335.3,153,357.2,153z"/>
<path class="st0" d="M357.2,153c16.5,0,32.4,2.1,47.7,6.4c15.1,4.3,29.3,10.3,42.4,18c13.2,7.8,25.2,17.1,36,27.9
	c10.9,10.9,20.2,22.9,27.9,36c7.8,13.4,13.8,27.6,18,42.7c4.3,15.3,6.4,31.2,6.4,47.7c0,14.9-1.6,29.1-4.7,42.4
	c-3.1,13.4-7.4,25.9-12.8,37.5c-5.4,11.8-11.7,22.8-18.9,32.8c-7.4,10.1-15.1,19.2-23.3,27.3L259.9,688.9l-21.8-21.2l217.1-217.1
	c6.8-6.8,13.3-14,19.5-21.8c6-7.6,11.3-16.1,16-25.6c4.7-9.3,8.4-19.9,11.3-31.7c2.7-11.6,4.1-24.9,4.1-39.8c0-21.1-4-40.8-11.9-59
	c-8.1-18-19.1-33.7-32.8-47.1c-13.8-13.4-29.8-23.8-48.2-31.4c-18.6-7.6-38.4-11.3-59.3-11.3c-17.2,0-34,3.2-50.3,9.6
	c-16.5,6.6-31.2,16.5-44.2,29.6L110.2,361.4h187.5v29.9H59.6V153h29.6v186.6l148.8-138.6c16.7-16.7,35.3-28.9,55.8-36.6
	C314.2,156.7,335.3,153,357.2,153z"/>
</svg>
