<?xml version="1.0" encoding="utf-8"?>
<!-- Generator: Adobe Illustrator 27.2.0, SVG Export Plug-In . SVG Version: 6.00 Build 0)  -->
<svg version="1.1" id="Layer_1" focusable="false" xmlns="http://www.w3.org/2000/svg" xmlns:xlink="http://www.w3.org/1999/xlink"
	 x="0px" y="0px" viewBox="0 0 595.3 841.9" style="enable-background:new 0 0 595.3 841.9;" xml:space="preserve">
<path d="M119.2,659h356.9v29.9H119.2 M402.6,490.1c0,17.1-3.1,32.3-9.3,45.6c-6.4,13.6-15.3,25-26.7,34.3
	c-11.6,9.3-25.7,16.4-42.1,21.2c-16.5,5-34.9,7.6-55.2,7.6c-7,0-14.9-0.8-23.8-2.3c-8.9-1.4-17.7-3.2-26.5-5.5
	c-8.7-2.3-16.7-4.8-23.8-7.6c-7.4-2.7-12.9-5.2-16.6-7.6v-55.8c5.6,5,12.4,9.7,20.3,14c7.9,4.5,16.3,8.3,25,11.6
	c8.7,3.3,17.6,5.8,26.7,7.6c8.9,1.9,17.2,2.9,25,2.9c51.7,0,77.6-20.1,77.6-60.2c0-8.7-1.2-16.5-3.5-23.3
	c-2.3-6.8-6.6-13.6-12.8-20.3c-6.2-6.6-14.8-13.7-25.9-21.2c-11-7.4-25.3-16-42.7-25.9c-16.7-9.5-30.6-18.5-41.9-27
	c-11.4-8.5-20.6-17.3-27.6-26.5c-7-8.9-12-18.4-15.1-28.5c-3.1-9.9-4.7-20.9-4.7-33.1c0-15.9,3.2-30.4,9.6-43.6
	c6.4-13,15.3-24.2,26.7-33.7c11.2-9.5,24.7-16.9,40.4-22.1c15.5-5.2,32.5-7.8,50.9-7.8c36.2,0,62.7,4.7,79.4,14.2v52.6
	c-21.1-16.5-48.3-24.7-81.7-24.7c-11,0-21.1,1.5-30.2,4.4c-9.3,2.9-17.3,7-24.1,12.2c-6.8,5.4-12,11.9-15.7,19.5
	c-3.9,7.6-5.8,15.9-5.8,25c0,10.1,1.1,18.6,3.2,25.6s6.1,13.6,11.9,19.8c5.8,6.2,13.9,12.5,24.1,18.9c10.1,6.4,23.2,14,39.2,23
	c17.8,9.9,32.8,19.4,45.1,28.5c12.2,9.1,22.1,18.3,29.6,27.6c7.4,9.3,12.7,18.9,16,28.8C400.9,468,402.6,478.7,402.6,490.1z"/>
<path d="M119.2,659h356.9v29.9H119.2 M402.6,490.1c0,17.1-3.1,32.3-9.3,45.6c-6.4,13.6-15.3,25-26.7,34.3
	c-11.6,9.3-25.7,16.4-42.1,21.2c-16.5,5-34.9,7.6-55.2,7.6c-7,0-14.9-0.8-23.8-2.3c-8.9-1.4-17.7-3.2-26.5-5.5
	c-8.7-2.3-16.7-4.8-23.8-7.6c-7.4-2.7-12.9-5.2-16.6-7.6v-55.8c5.6,5,12.4,9.7,20.3,14c7.9,4.5,16.3,8.3,25,11.6
	c8.7,3.3,17.6,5.8,26.7,7.6c8.9,1.9,17.2,2.9,25,2.9c51.7,0,77.6-20.1,77.6-60.2c0-8.7-1.2-16.5-3.5-23.3
	c-2.3-6.8-6.6-13.6-12.8-20.3c-6.2-6.6-14.8-13.7-25.9-21.2c-11-7.4-25.3-16-42.7-25.9c-16.7-9.5-30.6-18.5-41.9-27
	c-11.4-8.5-20.6-17.3-27.6-26.5c-7-8.9-12-18.4-15.1-28.5c-3.1-9.9-4.7-20.9-4.7-33.1c0-15.9,3.2-30.4,9.6-43.6
	c6.4-13,15.3-24.2,26.7-33.7c11.2-9.5,24.7-16.9,40.4-22.1c15.5-5.2,32.5-7.8,50.9-7.8c36.2,0,62.7,4.7,79.4,14.2v52.6
	c-21.1-16.5-48.3-24.7-81.7-24.7c-11,0-21.1,1.5-30.2,4.4c-9.3,2.9-17.3,7-24.1,12.2c-6.8,5.4-12,11.9-15.7,19.5
	c-3.9,7.6-5.8,15.9-5.8,25c0,10.1,1.1,18.6,3.2,25.6s6.1,13.6,11.9,19.8c5.8,6.2,13.9,12.5,24.1,18.9c10.1,6.4,23.2,14,39.2,23
	c17.8,9.9,32.8,19.4,45.1,28.5c12.2,9.1,22.1,18.3,29.6,27.6c7.4,9.3,12.7,18.9,16,28.8C400.9,468,402.6,478.7,402.6,490.1z"/>
</svg>
