<?xml version="1.0" encoding="utf-8"?>
<!-- Generator: Adobe Illustrator 27.2.0, SVG Export Plug-In . SVG Version: 6.00 Build 0)  -->
<svg version="1.1" id="Layer_1" focusable="false" xmlns="http://www.w3.org/2000/svg" xmlns:xlink="http://www.w3.org/1999/xlink"
	 x="0px" y="0px" viewBox="0 0 595.3 841.9" style="enable-background:new 0 0 595.3 841.9;" xml:space="preserve">
<style type="text/css">
	.st0{fill:#4288C8;}
</style>
<path d="M567.1,204.1L491.2,280l-76.2-76.2l21.2-20.9l54.9,54.9l54.6-54.9 M398.5,599.4h-42.4l-32-84H179.9l-29.9,84h-42.4
	l125-327.3h39.8 M311.3,480.5L257.5,334c-0.8-1.7-1.6-4.5-2.3-8.1c-0.8-3.7-1.7-8.3-2.9-14h-1.2c-1.2,9.1-2.8,16.5-4.9,22.1
	l-53.5,146.5H311.3z"/>
<path d="M398.5,599.4h-42.4l-32-84H179.9l-29.9,84h-42.4l125-327.3h39.8 M311.3,480.5L257.5,334c-0.8-1.7-1.6-4.5-2.3-8.1
	c-0.8-3.7-1.7-8.3-2.9-14h-1.2c-1.2,9.1-2.8,16.5-4.9,22.1l-53.5,146.5H311.3z"/>
<path class="st0" d="M567.1,204.1L491.2,280l-76.2-76.2l21.2-20.9l54.9,54.9l54.6-54.9L567.1,204.1z"/>
</svg>
