<?xml version="1.0" encoding="utf-8"?>
<!-- Generator: Adobe Illustrator 27.2.0, SVG Export Plug-In . SVG Version: 6.00 Build 0)  -->
<svg version="1.1" id="Layer_1" focusable="false" xmlns="http://www.w3.org/2000/svg" xmlns:xlink="http://www.w3.org/1999/xlink"
	 x="0px" y="0px" viewBox="0 0 595.3 841.9" style="enable-background:new 0 0 595.3 841.9;" xml:space="preserve">
<path d="M476.1,564.8c-38.8,22.7-87.5,34-146.2,34c-32.4,0-61.4-4.7-87.2-14c-25.8-9.3-47.7-22.7-65.7-40.1
	c-18-17.2-31.9-38.4-41.6-63.4c-9.7-24.8-14.5-52.9-14.5-84.3c0-31,5.3-59.6,16-85.7c10.5-26.2,25.5-48.8,45.1-68
	c19.4-19,42.8-33.8,70.3-44.5c27.5-10.7,58.3-16,92.4-16c42.6,0,80.2,5.9,112.8,17.7v84.9c-31.4-18-69.4-27-113.9-27
	c-18.6,0-35.7,3.2-51.2,9.6s-28.9,15.4-40.1,27c-11.4,11.8-20.2,26-26.5,42.4c-6.4,16.7-9.6,35.2-9.6,55.5c0,20.5,2.7,38.9,8.1,54.9
	c5.4,16.1,13.3,29.6,23.5,40.7c10.1,11,22.4,19.5,36.9,25.3s30.9,8.7,49.1,8.7c11,0,21-0.8,29.9-2.3c8.9-1.4,16.6-3.6,23-6.7v-78.8
	h-89.2v-72.1h178.5V564.8z"/>
<path d="M476.1,564.8c-38.8,22.7-87.5,34-146.2,34c-32.4,0-61.4-4.7-87.2-14c-25.8-9.3-47.7-22.7-65.7-40.1
	c-18-17.2-31.9-38.4-41.6-63.4c-9.7-24.8-14.5-52.9-14.5-84.3c0-31,5.3-59.6,16-85.7c10.5-26.2,25.5-48.8,45.1-68
	c19.4-19,42.8-33.8,70.3-44.5c27.5-10.7,58.3-16,92.4-16c42.6,0,80.2,5.9,112.8,17.7v84.9c-31.4-18-69.4-27-113.9-27
	c-18.6,0-35.7,3.2-51.2,9.6s-28.9,15.4-40.1,27c-11.4,11.8-20.2,26-26.5,42.4c-6.4,16.7-9.6,35.2-9.6,55.5c0,20.5,2.7,38.9,8.1,54.9
	c5.4,16.1,13.3,29.6,23.5,40.7c10.1,11,22.4,19.5,36.9,25.3s30.9,8.7,49.1,8.7c11,0,21-0.8,29.9-2.3c8.9-1.4,16.6-3.6,23-6.7v-78.8
	h-89.2v-72.1h178.5V564.8z"/>
</svg>
