<?xml version="1.0" encoding="utf-8"?>
<!-- Generator: Adobe Illustrator 27.2.0, SVG Export Plug-In . SVG Version: 6.00 Build 0)  -->
<svg version="1.1" id="Calque_1" focusable="false" xmlns="http://www.w3.org/2000/svg" xmlns:xlink="http://www.w3.org/1999/xlink"
	 x="0px" y="0px" viewBox="0 0 1920 1080" style="enable-background:new 0 0 1920 1080;" xml:space="preserve">
<style type="text/css">
	.st0{fill:#FFFFFF;}
</style>
<path d="M960,53.8c44.6,0,87.7,5.8,129.2,17.4c41.1,11.6,79.8,27.9,116,49c35.9,21.1,68.7,46.4,98.6,75.9
	c29.5,29.9,54.8,62.8,75.9,98.6c21.1,36.2,37.4,74.9,49,116c11.6,41.5,17.4,84.6,17.4,129.2s-5.8,87.5-17.4,128.7
	c-11.6,41.5-27.9,80.2-49,116c-21.1,36.2-46.4,69.1-75.9,98.6c-29.9,29.9-62.8,55.4-98.6,76.5c-36.2,21.1-74.9,37.4-116,49
	c-41.5,11.6-84.6,17.4-129.2,17.4s-87.5-5.8-128.7-17.4c-41.5-11.6-80.2-27.9-116-49c-36.2-21.1-69.1-46.6-98.6-76.5
	c-29.9-29.5-55.4-62.4-76.5-98.6c-21.1-35.9-37.4-74.5-49-116c-11.6-41.1-17.4-84-17.4-128.7s5.8-87.7,17.4-129.2
	c11.6-41.1,27.9-79.8,49-116c21.1-35.9,46.6-68.7,76.5-98.6c29.5-29.5,62.4-54.8,98.6-75.9c35.9-21.1,74.5-37.4,116-49
	C872.5,59.6,915.4,53.8,960,53.8 M528.1,540c0,39.7,5.3,77.9,15.8,114.4c10.2,36.9,24.6,71.4,43.2,103.4s41.1,61.2,67.5,87.5
	s55.5,48.9,87.5,67.5s66.4,33,103.4,43.2c36.6,10.5,74.7,15.8,114.4,15.8V108.1c-39.7,0-77.9,5.1-114.4,15.3
	c-36.9,10.5-71.4,25.1-103.4,43.8s-61.2,41.1-87.5,67.5s-48.9,55.5-67.5,87.5s-33,66.3-43.2,102.8C533.4,462,528.1,500.3,528.1,540z
	"/>
<path class="st0" d="M1418.8,540c0,42.2-5.4,82.8-16.3,121.8c-10.9,39.4-26.2,75.9-45.9,109.7c-20,34.1-43.9,65-71.7,92.8
	c-28.1,28.1-59.1,52-92.8,71.7c-34.1,20-70.7,35.5-109.7,46.4c-39.4,10.9-80.2,16.3-122.3,16.3s-82.8-5.4-121.8-16.3
	c-39.4-10.9-75.9-26.4-109.7-46.4c-34.1-19.7-65-43.6-92.8-71.7c-28.1-27.8-52-58.7-71.7-92.8c-20-33.8-35.5-70.3-46.4-109.7
	c-10.9-39-16.3-79.6-16.3-121.8s5.4-83,16.3-122.3c10.9-39,26.4-75.6,46.4-109.7c19.7-33.8,43.6-64.7,71.7-92.8
	c27.8-27.8,58.7-51.7,92.8-71.7c33.8-19.7,70.3-35,109.7-45.9c39-10.9,79.6-16.3,121.8-16.3s83,5.4,122.3,16.3
	c39,10.9,75.6,26.2,109.7,45.9c33.8,20,64.7,43.9,92.8,71.7c27.8,28.1,51.7,59.1,71.7,92.8c19.7,34.1,35,70.7,45.9,109.7
	C1413.3,457,1418.8,497.8,1418.8,540z"/>
<path d="M960,53.8c44.6,0,87.7,5.8,129.2,17.4c41.1,11.6,79.8,27.9,116,49c35.9,21.1,68.7,46.4,98.6,75.9
	c29.5,29.9,54.8,62.8,75.9,98.6c21.1,36.2,37.4,74.9,49,116c11.6,41.5,17.4,84.6,17.4,129.2s-5.8,87.5-17.4,128.7
	c-11.6,41.5-27.9,80.2-49,116c-21.1,36.2-46.4,69.1-75.9,98.6c-29.9,29.9-62.8,55.4-98.6,76.5c-36.2,21.1-74.9,37.4-116,49
	c-41.5,11.6-84.6,17.4-129.2,17.4s-87.5-5.8-128.7-17.4c-41.5-11.6-80.2-27.9-116-49c-36.2-21.1-69.1-46.6-98.6-76.5
	c-29.9-29.5-55.4-62.4-76.5-98.6c-21.1-35.9-37.4-74.5-49-116c-11.6-41.1-17.4-84-17.4-128.7s5.8-87.7,17.4-129.2
	c11.6-41.1,27.9-79.8,49-116c21.1-35.9,46.6-68.7,76.5-98.6c29.5-29.5,62.4-54.8,98.6-75.9c35.9-21.1,74.5-37.4,116-49
	C872.5,59.6,915.4,53.8,960,53.8 M528.1,540c0,39.7,5.3,77.9,15.8,114.4c10.2,36.9,24.6,71.4,43.2,103.4s41.1,61.2,67.5,87.5
	s55.5,48.9,87.5,67.5s66.4,33,103.4,43.2c36.6,10.5,74.7,15.8,114.4,15.8V108.1c-39.7,0-77.9,5.1-114.4,15.3
	c-36.9,10.5-71.4,25.1-103.4,43.8s-61.2,41.1-87.5,67.5s-48.9,55.5-67.5,87.5s-33,66.3-43.2,102.8C533.4,462,528.1,500.3,528.1,540z
	"/>
</svg>
