<?xml version="1.0" encoding="utf-8"?>
<!-- Generator: Adobe Illustrator 27.2.0, SVG Export Plug-In . SVG Version: 6.00 Build 0)  -->
<svg version="1.1" id="Calque_1" focusable="false" xmlns="http://www.w3.org/2000/svg" xmlns:xlink="http://www.w3.org/1999/xlink"
	 x="0px" y="0px" viewBox="0 0 1920 1080" style="enable-background:new 0 0 1920 1080;" xml:space="preserve">
<style type="text/css">
	.st0{fill:#FFFFFF;}
</style>
<path d="M1095,135h360.2v810H1095c-25.3,0-49.7,4.2-73.3,12.7c-23.9,8.4-45.4,23.2-64.3,44.3c-6.7,7.4-14.8,11.1-24.3,11.1
	c-9.8,0-17.9-3.7-24.3-11.1c-19-21.1-38.8-35.9-59.6-44.3S805.5,945,780.2,945H420V135h360.2c14.8,0,29,2.6,42.7,7.9
	c13.4,5.3,26.4,12,39,20c12.3,8.1,24.4,16.9,36.4,26.4c11.6,9.8,23,19.2,34.3,27.9h1.1c11.2-8.8,23.2-18.1,35.9-27.9
	c12.7-9.5,25.8-18.3,39.6-26.4s27.8-14.8,42.2-20S1080.2,135,1095,135 M780.2,900.2c25.7,0,49.6,3.5,71.7,10.5s43.2,18.8,63.3,35.3
	V260.5c-9.5-8.8-19.3-17.9-29.5-27.4c-10.5-9.5-21.3-18.3-32.2-26.4c-11.2-7.7-22.9-14.2-34.8-19.5c-12.3-4.9-25.1-7.4-38.5-7.4
	H464.8v720.4 M1409.8,900.2V179.8H1095c-12.3,0-24.4,2.1-36.4,6.3c-12.3,4.6-24.1,10.4-35.3,17.4c-11.6,7-22.7,14.8-33.2,23.2
	c-10.5,8.8-20.6,17.4-30.1,25.8v687.1c20-14.4,41.5-24.6,64.3-30.6s46.4-9,70.7-9 M825,360.2H555v-45.4h270 M825,449.8v45.4H555
	v-45.4 M825,584.8v45.4H555v-45.4 M825,719.8v45.4H555v-45.4 M1320.2,314.8v315.4h-270V314.8 M1274.8,360.2H1095v224.6h179.8
	 M1320.2,719.8v45.4h-270v-45.4H1320.2z"/>
<path class="st0" d="M1056,164.5h375.5V926h-395.5l-100.2,59.6L818.1,926H441.6V164.5h366.5l126.6,81.7L1056,164.5z"/>
<path d="M1095,135h360.2v810H1095c-25.3,0-49.7,4.2-73.3,12.7c-23.9,8.4-45.4,23.2-64.3,44.3c-6.7,7.4-14.8,11.1-24.3,11.1
	c-9.8,0-17.9-3.7-24.3-11.1c-19-21.1-38.8-35.9-59.6-44.3S805.5,945,780.2,945H420V135h360.2c14.8,0,29,2.6,42.7,7.9
	c13.4,5.3,26.4,12,39,20c12.3,8.1,24.4,16.9,36.4,26.4c11.6,9.8,23,19.2,34.3,27.9h1.1c11.2-8.8,23.2-18.1,35.9-27.9
	c12.7-9.5,25.8-18.3,39.6-26.4s27.8-14.8,42.2-20S1080.2,135,1095,135 M780.2,900.2c25.7,0,49.6,3.5,71.7,10.5s43.2,18.8,63.3,35.3
	V260.5c-9.5-8.8-19.3-17.9-29.5-27.4c-10.5-9.5-21.3-18.3-32.2-26.4c-11.2-7.7-22.9-14.2-34.8-19.5c-12.3-4.9-25.1-7.4-38.5-7.4
	H464.8v720.4 M1409.8,900.2V179.8H1095c-12.3,0-24.4,2.1-36.4,6.3c-12.3,4.6-24.1,10.4-35.3,17.4c-11.6,7-22.7,14.8-33.2,23.2
	c-10.5,8.8-20.6,17.4-30.1,25.8v687.1c20-14.4,41.5-24.6,64.3-30.6s46.4-9,70.7-9H1409.8z"/>
<path d="M825,360.2H555v-45.4h270 M825,449.8v45.4H555v-45.4 M825,584.8v45.4H555v-45.4 M825,719.8v45.4H555v-45.4 M1320.2,314.8
	v315.4h-270V314.8 M1274.8,360.2H1095v224.6h179.8 M1320.2,719.8v45.4h-270v-45.4H1320.2z"/>
</svg>
