<?xml version="1.0" encoding="utf-8"?>
<!-- Generator: Adobe Illustrator 27.2.0, SVG Export Plug-In . SVG Version: 6.00 Build 0)  -->
<svg version="1.1" id="Calque_1" focusable="false" xmlns="http://www.w3.org/2000/svg" xmlns:xlink="http://www.w3.org/1999/xlink"
	 x="0px" y="0px" viewBox="0 0 1920 1080" style="enable-background:new 0 0 1920 1080;" xml:space="preserve">
<style type="text/css">
	.st0{fill:#FFFFFF;}
	.st1{fill:#4389C8;}
</style>
<path d="M1068.1,734.6c42.5,0,63.8,43.6,63.8,130.8c0,41.1-5.8,72.8-17.4,94.9s-27.8,33.2-48.5,33.2c-21.4,0-37.8-10.9-49-32.7
	c-11.6-21.8-17.4-52.9-17.4-93.3c0-44.6,6-78,17.9-100.2C1029.4,745.5,1046.3,734.6,1068.1,734.6 M1340.2,734.6
	c42.5,0,63.8,43.6,63.8,130.8c0,40.8-5.8,72.2-17.4,94.4c-11.6,22.5-27.8,33.8-48.5,33.8c-21.4,0-37.8-10.9-49-32.7
	c-11.6-21.8-17.4-52.9-17.4-93.3c0-44.6,6-78,17.9-100.2C1301.5,745.5,1318.4,734.6,1340.2,734.6 M1500,648.1V1080H743.8V648.1
	 M905.2,707.2h-6.9c-16.9,15.8-32.2,27.9-45.9,36.4c-7,4.2-14.6,9-22.7,14.2s-15.1,9.1-21.1,11.6v23.2c15.5-7,28.5-13.5,39-19.5
	c10.2-6,19-11.4,26.4-16.3v268.9h31.1 M1135.1,983.5c16.5-27.4,24.8-67.7,24.8-120.8c0-107.2-29.9-160.8-89.6-160.8
	c-32,0-56.4,14.2-73.3,42.7s-25.3,70.5-25.3,126c0,49.2,7.9,87.4,23.7,114.4c15.5,27.4,38.1,41.1,68,41.1
	C1094.3,1026.2,1118.2,1012,1135.1,983.5 M1407.2,983.5c16.5-27.4,24.8-67.7,24.8-120.8c0-107.2-29.9-160.8-89.6-160.8
	c-32,0-56.4,14.2-73.3,42.7s-25.3,70.5-25.3,126c0,49.2,7.9,87.4,23.7,114.4c15.5,27.4,38.1,41.1,68,41.1
	C1366.4,1026.2,1390.3,1012,1407.2,983.5 M690,1026.2H581.9V53.8h485.7l270.5,270v270h-54.3V378.1h-270v-270H636.2v863.8H690
	 M1068.1,323.8h193.5l-193.5-193V323.8z"/>
<path class="st0" d="M690,994.6h-81.2V81.2h443.5l258.9,254.2v258.4H690V994.6z"/>
<path d="M690,1026.2H581.9V53.8h485.7l270.5,270v270h-54.3V378.1h-270v-270H636.2v863.8H690 M1068.1,323.8h193.5l-193.5-193V323.8z"
	/>
<path class="st1" d="M1500,1080H743.8V648.1H1500V1080z"/>
<path class="st0" d="M1063.4,1026.2c-29.9,0-52.6-13.7-68-41.1c-15.8-27.1-23.7-65.2-23.7-114.4c0-55.5,8.4-97.6,25.3-126
	s41.3-42.7,73.3-42.7c59.8,0,89.6,53.6,89.6,160.8c0,52.7-8.3,93.2-24.8,121.3C1118.2,1012.1,1094.3,1026.2,1063.4,1026.2
	 M1068.1,734.6c-21.8,0-38.7,10.9-50.6,32.7c-12,22.1-17.9,55.5-17.9,100.2c0,40.4,5.8,71.5,17.4,93.3c11.2,21.8,27.6,32.7,49,32.7
	c20.7,0,36.9-11.1,48.5-33.2s17.4-53.8,17.4-94.9C1131.9,778.2,1110.6,734.6,1068.1,734.6 M905.2,707.2v318.5H874V756.7
	c-7.4,4.9-16.2,10.4-26.4,16.3c-10.5,6-23.6,12.5-39,19.5v-23.2c6-2.5,13-6.3,21.1-11.6s15.6-10,22.7-14.2
	c13.7-8.4,29-20.6,45.9-36.4 M1335.5,1026.2c-29.9,0-52.6-13.7-68-41.1c-15.8-27.1-23.7-65.2-23.7-114.4c0-55.5,8.4-97.6,25.3-126
	s41.3-42.7,73.3-42.7c59.8,0,89.6,53.6,89.6,160.8c0,52.7-8.3,93.2-24.8,121.3C1390.3,1012.1,1366.4,1026.2,1335.5,1026.2
	 M1340.2,734.6c-21.8,0-38.7,10.9-50.6,32.7c-12,22.1-17.9,55.5-17.9,100.2c0,40.4,5.8,71.5,17.4,93.3c11.2,21.8,27.6,32.7,49,32.7
	c20.7,0,36.9-11.2,48.5-33.8c11.6-22.1,17.4-53.6,17.4-94.4C1404,778.2,1382.8,734.6,1340.2,734.6z"/>
</svg>
