<?xml version="1.0" encoding="utf-8"?>
<!-- Generator: Adobe Illustrator 27.2.0, SVG Export Plug-In . SVG Version: 6.00 Build 0)  -->
<svg version="1.1" id="Calque_1" focusable="false" xmlns="http://www.w3.org/2000/svg" xmlns:xlink="http://www.w3.org/1999/xlink"
	 x="0px" y="0px" viewBox="0 0 1920 1080" style="enable-background:new 0 0 1920 1080;" xml:space="preserve">
<style type="text/css">
	.st0{fill:#FFFFFF;}
	.st1{fill:#3C7BB4;}
</style>
<path d="M1338.1,323.8v702.4H581.9V53.8h485.7 M1068.1,323.8h193.5l-193.5-193 M1283.8,378.1h-270v-270H636.2v863.8h647.6
	 M1107.7,648.1H1038l-10.5,53.8h71.2l-10,54.3h-68.6l-23.7,107.6H951l22.7-107.6h-65.9l-22.7,107.6h-44.8l22.1-107.6h-64.3l7.9-54.3
	h64.3l11.6-53.8h-64.9l6.9-54.3H893l22.1-107.6h46.4l-22.1,107.6h65.9l23.2-107.6h44.3l-21.6,107.6h64.9 M927.8,648.1l-12.7,53.8h67
	l10.5-53.8H927.8z"/>
<path class="st0" d="M608.8,81.2h443.5l258.9,254.2v659.2H608.8V81.2z"/>
<path d="M1338.1,323.8v702.4H581.9V53.8h485.7 M1068.1,323.8h193.5l-193.5-193 M1283.8,378.1h-270v-270H636.2v863.8h647.6V378.1z"/>
<path class="st1" d="M1107.7,648.1H1038l-10.5,53.8h71.2l-10,54.3h-68.6l-23.7,107.6H951l22.7-107.6h-65.9l-22.7,107.6h-44.8
	l22.1-107.6h-64.3l7.9-54.3h64.3l11.6-53.8h-64.9l6.9-54.3H893l22.1-107.6h46.4l-22.1,107.6h65.9l23.2-107.6h44.3l-21.6,107.6h64.9
	 M927.8,648.1l-12.7,53.8h67l10.5-53.8H927.8z"/>
</svg>
