<?xml version="1.0" encoding="utf-8"?>
<!-- Generator: Adobe Illustrator 27.2.0, SVG Export Plug-In . SVG Version: 6.00 Build 0)  -->
<svg version="1.1" id="Calque_1" focusable="false" xmlns="http://www.w3.org/2000/svg" xmlns:xlink="http://www.w3.org/1999/xlink"
	 x="0px" y="0px" viewBox="0 0 1920 1080" style="enable-background:new 0 0 1920 1080;" xml:space="preserve">
<style type="text/css">
	.st0{fill:#FFFFFF;}
</style>
<path d="M581.9,431.9c14.8,0,28.8,2.8,42.2,8.4c13,5.6,24.4,13.4,34.3,23.2s17.6,21.3,23.2,34.3c5.6,13.4,8.4,27.4,8.4,42.2
	s-2.8,28.7-8.4,41.7c-5.6,13.4-13.4,25-23.2,34.8s-21.3,17.6-34.3,23.2c-13.4,5.6-27.4,8.4-42.2,8.4s-28.7-2.8-41.7-8.4
	c-13.4-5.6-25-13.4-34.8-23.2s-17.6-21.4-23.2-34.8c-5.6-13-8.4-26.9-8.4-41.7s2.8-28.8,8.4-42.2c5.6-13,13.4-24.4,23.2-34.3
	s21.4-17.6,34.8-23.2C553.2,434.7,567.1,431.9,581.9,431.9 M960,431.9c14.8,0,28.8,2.8,42.2,8.4c13,5.6,24.4,13.4,34.3,23.2
	s17.6,21.3,23.2,34.3c5.6,13.4,8.4,27.4,8.4,42.2s-2.8,28.7-8.4,41.7c-5.6,13.4-13.4,25-23.2,34.8s-21.3,17.6-34.3,23.2
	c-13.4,5.6-27.4,8.4-42.2,8.4s-28.7-2.8-41.7-8.4c-13.4-5.6-25-13.4-34.8-23.2S866,595,860.3,581.7c-5.6-13-8.4-26.9-8.4-41.7
	s2.8-28.8,8.4-42.2c5.6-13,13.4-24.4,23.2-34.3s21.4-17.6,34.8-23.2C931.3,434.7,945.2,431.9,960,431.9 M1338.1,431.9
	c14.8,0,28.8,2.8,42.2,8.4c13,5.6,24.4,13.4,34.3,23.2s17.6,21.3,23.2,34.3c5.6,13.4,8.4,27.4,8.4,42.2s-2.8,28.7-8.4,41.7
	c-5.6,13.4-13.4,25-23.2,34.8s-21.3,17.6-34.3,23.2c-13.4,5.6-27.4,8.4-42.2,8.4s-28.7-2.8-41.7-8.4c-13.4-5.6-25-13.4-34.8-23.2
	s-17.6-21.4-23.2-34.8c-5.6-13-8.4-26.9-8.4-41.7s2.8-28.8,8.4-42.2c5.6-13,13.4-24.4,23.2-34.3s21.4-17.6,34.8-23.2
	C1309.5,434.7,1323.3,431.9,1338.1,431.9z"/>
<path class="st0" d="M581.9,431.9c14.8,0,28.8,2.8,42.2,8.4c13,5.6,24.4,13.4,34.3,23.2s17.6,21.3,23.2,34.3
	c5.6,13.4,8.4,27.4,8.4,42.2s-2.8,28.7-8.4,41.7c-5.6,13.4-13.4,25-23.2,34.8s-21.3,17.6-34.3,23.2c-13.4,5.6-27.4,8.4-42.2,8.4
	s-28.7-2.8-41.7-8.4c-13.4-5.6-25-13.4-34.8-23.2s-17.6-21.4-23.2-34.8c-5.6-13-8.4-26.9-8.4-41.7s2.8-28.8,8.4-42.2
	c5.6-13,13.4-24.4,23.2-34.3s21.4-17.6,34.8-23.2C553.2,434.7,567.1,431.9,581.9,431.9 M960,431.9c14.8,0,28.8,2.8,42.2,8.4
	c13,5.6,24.4,13.4,34.3,23.2s17.6,21.3,23.2,34.3c5.6,13.4,8.4,27.4,8.4,42.2s-2.8,28.7-8.4,41.7c-5.6,13.4-13.4,25-23.2,34.8
	s-21.3,17.6-34.3,23.2c-13.4,5.6-27.4,8.4-42.2,8.4s-28.7-2.8-41.7-8.4c-13.4-5.6-25-13.4-34.8-23.2S866,595,860.3,581.7
	c-5.6-13-8.4-26.9-8.4-41.7s2.8-28.8,8.4-42.2c5.6-13,13.4-24.4,23.2-34.3s21.4-17.6,34.8-23.2C931.3,434.7,945.2,431.9,960,431.9
	 M1338.1,431.9c14.8,0,28.8,2.8,42.2,8.4c13,5.6,24.4,13.4,34.3,23.2s17.6,21.3,23.2,34.3c5.6,13.4,8.4,27.4,8.4,42.2
	s-2.8,28.7-8.4,41.7c-5.6,13.4-13.4,25-23.2,34.8s-21.3,17.6-34.3,23.2c-13.4,5.6-27.4,8.4-42.2,8.4s-28.7-2.8-41.7-8.4
	c-13.4-5.6-25-13.4-34.8-23.2s-17.6-21.4-23.2-34.8c-5.6-13-8.4-26.9-8.4-41.7s2.8-28.8,8.4-42.2c5.6-13,13.4-24.4,23.2-34.3
	s21.4-17.6,34.8-23.2C1309.5,434.7,1323.3,431.9,1338.1,431.9z"/>
</svg>
