<?xml version="1.0" encoding="utf-8"?>
<!-- Generator: Adobe Illustrator 27.2.0, SVG Export Plug-In . SVG Version: 6.00 Build 0)  -->
<svg version="1.1" id="Calque_1" focusable="false" xmlns="http://www.w3.org/2000/svg" xmlns:xlink="http://www.w3.org/1999/xlink"
	 x="0px" y="0px" viewBox="0 0 1920 1080" style="enable-background:new 0 0 1920 1080;" xml:space="preserve">
<style type="text/css">
	.st0{fill:none;}
	.st1{fill:#FFFFFF;}
</style>
<path d="M1475.7,431.9l-215.2,431.9H473.8V161.9H863L971.1,270h367v161.9 M528.1,803.7l185.1-371.8h570.6V323.8H948.9L840.8,216.2
	H528.1 M1388.2,486.2H746.4L585.1,810h641.8L1388.2,486.2z"/>
<path class="st0" d="M501.2,836.9V188.8h350.7L960,296.9h351.2v161.9H1432l-188.3,378.1H501.2z"/>
<path class="st1" d="M1475.7,431.9l-215.2,431.9H473.8V161.9H863L971.1,270h367v161.9 M528.1,803.7l185.1-371.8h570.6V323.8H948.9
	L840.8,216.2H528.1 M1388.2,486.2H746.4L585.1,810h641.8L1388.2,486.2z"/>
</svg>
