<svg height="100%" width="100%" viewBox="0,0,2048,2048" focusable="false"><path type="path" class="OfficeIconColors_HighContrast" d="M 1938 402 q 25 27 25 60 q 0 35 -25 60 l -362 362 l 120 121 q 25 26 38 57 q 12 32 12 64 q 0 33 -12 64 q -13 31 -38 56 l -120 121 q -99 86 -197 166 q -42 34 -87 70 q -45 36 -90 70 q -46 34 -89 64 q -43 31 -80 53 l -906 -906 h 1 q 1 0 2 -1 q 1 0 3 0 q 15 -1 60 -5 q 45 -4 108 -14 q 63 -9 138 -26 q 75 -16 150 -43 q 75 -26 144 -64 q 68 -37 119 -88 l 120 -121 q 25 -25 57 -37 q 31 -12 64 -12 q 32 0 64 12 q 32 12 57 37 l 120 121 l 362 -362 q 13 -13 29 -19 q 15 -5 32 -6 q 33 0 60 25 m -302 1026 l -603 -604 q -57 57 -133 99 q -76 42 -157 71 q -81 30 -161 48 q -80 19 -147 29 l 53 54 l 1 -3 l 1103 344 q 11 -9 19 -16 q 7 -7 13 -12 q 6 -5 12 -10 m -60 -423 l 422 -422 l -120 -121 l -423 423 l -181 -181 q -25 -25 -60 -25 q -35 0 -60 25 l -61 60 l 604 603 l 60 -60 q 25 -25 25 -60 q 0 -16 -6 -32 q -6 -16 -19 -29 z"></path><path type="path" class="OfficeIconColors_m20" d="M 912 643 l 90 -90 q 38 -38 91 -38 q 26 0 49 9 q 23 10 41 29 l 151 150 l 392 -392 q 13 -12 31 -12 q 18 0 30 12 l 121 121 q 12 14 12 30 q 0 16 -12 30 l -393 392 l 151 151 q 19 19 28 42 q 9 24 9 49 q 0 25 -9 48 q -9 23 -28 42 l -120 122 q -1 0 -25 20 q -24 21 -63 55 q -40 34 -92 76 q -52 43 -108 87 q -57 44 -113 86 q -57 42 -106 73 l -817 -816 q 40 -4 93 -13 q 53 -8 112 -21 q 59 -13 122 -32 q 62 -18 122 -44 q 60 -26 114 -60 q 54 -33 97 -76 z"></path><path type="path" class="OfficeIconColors_m212" d="M 1039 1735 l -686 -685 l 1121 349 q -39 33 -92 77 q -54 44 -113 90 q -59 47 -118 91 q -60 45 -112 78 z"></path><path type="path" class="OfficeIconColors_m211" d="M 912 583 l 724 724 l -60 60 q -99 86 -197 166 q -42 34 -87 70 q -45 36 -90 70 q -46 34 -89 64 q -43 31 -80 53 l -906 -906 q 144 -10 280 -39 q 58 -12 119 -30 q 61 -18 120 -43 q 59 -24 112 -56 q 53 -32 94 -73 m -333 512 l 525 526 q 40 -27 84 -60 q 43 -32 87 -66 q 44 -34 86 -68 q 42 -34 78 -64 m 136 -116 l -603 -604 q -57 57 -133 99 q -76 42 -157 71 q -81 30 -161 48 q -80 19 -147 29 l 53 54 l 1 -3 l 1103 344 q 11 -9 19 -16 q 7 -7 13 -12 q 6 -5 12 -10 z"></path><path type="path" class="OfficeIconColors_m22" d="M 1938 402 q 25 27 25 60 q 0 35 -25 60 l -362 362 l 120 121 q 25 26 38 57 q 12 32 12 64 q 0 33 -12 64 q -13 31 -38 56 l -120 121 l -724 -724 l 120 -121 q 25 -25 57 -37 q 31 -12 64 -12 q 32 0 64 12 q 32 12 57 37 l 120 121 l 362 -362 q 13 -13 29 -19 q 15 -5 32 -6 q 33 0 60 25 m -362 603 l 422 -422 l -120 -121 l -423 423 l -181 -181 q -25 -25 -60 -25 q -35 0 -60 25 l -61 60 l 604 603 l 60 -60 q 25 -25 25 -60 q 0 -16 -6 -32 q -6 -16 -19 -29 z"></path></svg>